{
.appVersion = "1075";
copyright = "Copyright (c) 2013-2017 by Alessio Laiso (hello@alessiolaiso.com). Licensed under the SIL Open Font License, Version 1.3";
customParameters = (
{
name = license;

glyphs = (
{
glyphname = .notdef;
layers = (
{
layerId = "A0CD44AA-8F44-4864-B482-F84B7650FD25";
paths = (
{
closed = 1;
nodes = (
"216 521 LINE",
"220 511 OFFCURVE",
"228 506 OFFCURVE",
"239 506 CURVE SMOOTH",
"244 506 OFFCURVE",
"249 508 OFFCURVE",
"254 510 CURVE SMOOTH",
"259 512 OFFCURVE",
"265 515 OFFCURVE",
"271 518 CURVE SMOOTH",
"277 521 OFFCURVE",
"285 523 OFFCURVE",
"293 525 CURVE SMOOTH",
"301 527 OFFCURVE",
"311 528 OFFCURVE",
"323 528 CURVE SMOOTH",
"338 528 OFFCURVE",
"350 525 OFFCURVE",
"357 518 CURVE SMOOTH",
"364 511 OFFCURVE",
"367 501 OFFCURVE",
"366 489 CURVE SMOOTH",
"365 477 OFFCURVE",
"360 467 OFFCURVE",
"354 459 CURVE SMOOTH",
"348 451 OFFCURVE",
"340 443 OFFCURVE",
"332 436 CURVE SMOOTH",
"324 429 OFFCURVE",
"315 422 OFFCURVE",
"306 416 CURVE SMOOTH",
"297 410 OFFCURVE",
"288 403 OFFCURVE",
"280 396 CURVE SMOOTH",
"272 389 OFFCURVE",
"266 381 OFFCURVE",
"261 372 CURVE SMOOTH",
"256 363 OFFCURVE",
"255 353 OFFCURVE",
"255 341 CURVE SMOOTH",
"256 284 LINE",
"341 284 LINE",
"358 332 LINE",
"361 339 OFFCURVE",
"364 346 OFFCURVE",
"371 352 CURVE SMOOTH",
"378 358 OFFCURVE",
"386 364 OFFCURVE",
"394 370 CURVE SMOOTH",
"402 376 OFFCURVE",
"411 383 OFFCURVE",
"420 390 CURVE SMOOTH",
"429 397 OFFCURVE",
"438 405 OFFCURVE",
"446 415 CURVE SMOOTH",
"454 425 OFFCURVE",
"462 436 OFFCURVE",
"468 449 CURVE SMOOTH",
"474 462 OFFCURVE",
"479 479 OFFCURVE",
"481 497 CURVE SMOOTH",
"483 517 OFFCURVE",
"482 534 OFFCURVE",
"477 550 CURVE SMOOTH",
"472 566 OFFCURVE",
"465 580 OFFCURVE",
"453 592 CURVE",
"441 603 OFFCURVE",
"426 613 OFFCURVE",
"408 619 CURVE SMOOTH",
"390 625 OFFCURVE",
"370 628 OFFCURVE",
"347 628 CURVE SMOOTH",
"314 628 OFFCURVE",
"284 622 OFFCURVE",
"259 612 CURVE SMOOTH",
"234 602 OFFCURVE",
"210 589 OFFCURVE",
"189 574 CURVE"
);
},
{
closed = 1;
nodes = (
"210 147 OFFCURVE",
"211 138 OFFCURVE",
"213 130 CURVE SMOOTH",
"215 122 OFFCURVE",
"220 115 OFFCURVE",
"225 109 CURVE SMOOTH",
"230 103 OFFCURVE",
"237 98 OFFCURVE",
"245 94 CURVE SMOOTH",
"253 90 OFFCURVE",
"261 89 OFFCURVE",
"271 89 CURVE SMOOTH",
"280 89 OFFCURVE",
"289 90 OFFCURVE",
"298 94 CURVE SMOOTH",
"307 98 OFFCURVE",
"314 103 OFFCURVE",
"321 109 CURVE SMOOTH",
"328 115 OFFCURVE",
"333 122 OFFCURVE",
"338 130 CURVE SMOOTH",
"343 138 OFFCURVE",
"346 147 OFFCURVE",
"347 157 CURVE SMOOTH",
"348 166 OFFCURVE",
"347 175 OFFCURVE",
"345 183 CURVE SMOOTH",
"343 191 OFFCURVE",
"338 199 OFFCURVE",
"333 205 CURVE SMOOTH",
"328 211 OFFCURVE",
"321 215 OFFCURVE",
"313 219 CURVE SMOOTH",
"305 223 OFFCURVE",
"297 225 OFFCURVE",
"288 225 CURVE SMOOTH",
"278 225 OFFCURVE",
"269 223 OFFCURVE",
"260 219 CURVE SMOOTH",
"251 215 OFFCURVE",
"244 211 OFFCURVE",
"237 205 CURVE SMOOTH",
"230 199 OFFCURVE",
"225 191 OFFCURVE",
"220 183 CURVE SMOOTH",
"215 175 OFFCURVE",
"212 166 OFFCURVE",
"211 157 CURVE SMOOTH"
);
},
{
closed = 1;
nodes = (
"109 723 LINE",
"20 0 LINE",
"526 0 LINE",
"614 723 LINE"
);
},
{
closed = 1;
nodes = (
"57 35 LINE",
"138 689 LINE",
"574 689 LINE",
"494 35 LINE"
);
}
);
width = 635;
}
);
note = .notdef;
},
{
glyphname = exclam;
layers = (
{
layerId = "A0CD44AA-8F44-4864-B482-F84B7650FD25";
paths = (
{
closed = 1;
nodes = (
"238 723 LINE",
"121 723 LINE",
"86 437 LINE SMOOTH",
"82 407 OFFCURVE",
"80 377 OFFCURVE",
"79 348 CURVE SMOOTH",
"78 319 OFFCURVE",
"79 288 OFFCURVE",
"80 255 CURVE",
"164 255 LINE",
"173 288 OFFCURVE",
"180 319 OFFCURVE",
"187 348 CURVE SMOOTH",
"194 377 OFFCURVE",
"198 407 OFFCURVE",
"202 437 CURVE SMOOTH"
);
},
{
closed = 1;
nodes = (
"21 57 OFFCURVE",
"21 47 OFFCURVE",
"24 38 CURVE SMOOTH",
"27 29 OFFCURVE",
"31 22 OFFCURVE",
"37 15 CURVE SMOOTH",
"43 8 OFFCURVE",
"50 3 OFFCURVE",
"59 -1 CURVE SMOOTH",
"68 -5 OFFCURVE",
"77 -7 OFFCURVE",
"88 -7 CURVE SMOOTH",
"98 -7 OFFCURVE",
"109 -5 OFFCURVE",
"119 -1 CURVE SMOOTH",
"129 3 OFFCURVE",
"138 8 OFFCURVE",
"145 15 CURVE SMOOTH",
"152 22 OFFCURVE",
"158 29 OFFCURVE",
"163 38 CURVE SMOOTH",
"168 47 OFFCURVE",
"172 57 OFFCURVE",
"173 68 CURVE SMOOTH",
"174 78 OFFCURVE",
"174 89 OFFCURVE",
"171 98 CURVE SMOOTH",
"168 107 OFFCURVE",
"164 115 OFFCURVE",
"158 122 CURVE SMOOTH",
"152 129 OFFCURVE",
"145 134 OFFCURVE",
"136 138 CURVE SMOOTH",
"127 142 OFFCURVE",
"117 144 OFFCURVE",
"107 144 CURVE SMOOTH",
"96 144 OFFCURVE",
"86 142 OFFCURVE",
"76 138 CURVE SMOOTH",
"66 134 OFFCURVE",
"58 129 OFFCURVE",
"50 122 CURVE SMOOTH",
"42 115 OFFCURVE",
"36 107 OFFCURVE",
"31 98 CURVE SMOOTH",
"26 89 OFFCURVE",
"23 78 OFFCURVE",
"22 68 CURVE SMOOTH"
);
}
);
width = 258;
}
);
note = exclam;
unicode = 0021;
},
{
glyphname = quotedbl;
lastChange = "2017-01-26 15:47:16 +0000";
layers = (
{
layerId = "A0CD44AA-8F44-4864-B482-F84B7650FD25";
paths = (
{
closed = 1;
nodes = (
"153 723 LINE",
"46 723 LINE",
"28 579 LINE",
"29 501 LINE SMOOTH",
"29 486 OFFCURVE",
"33 475 OFFCURVE",
"39 467 CURVE SMOOTH",
"45 459 OFFCURVE",
"54 456 OFFCURVE",
"66 456 CURVE SMOOTH",
"80 456 OFFCURVE",
"91 459 OFFCURVE",
"98 467 CURVE SMOOTH",
"105 475 OFFCURVE",
"110 486 OFFCURVE",
"114 501 CURVE SMOOTH",
"136 579 LINE"
);
},
{
closed = 1;
nodes = (
"337 723 LINE",
"230 723 LINE",
"212 579 LINE",
"213 501 LINE SMOOTH",
"213 486 OFFCURVE",
"217 475 OFFCURVE",
"223 467 CURVE SMOOTH",
"229 459 OFFCURVE",
"238 456 OFFCURVE",
"250 456 CURVE SMOOTH",
"264 456 OFFCURVE",
"275 459 OFFCURVE",
"282 467 CURVE SMOOTH",
"289 475 OFFCURVE",
"294 486 OFFCURVE",
"298 501 CURVE SMOOTH",
"320 579 LINE"
);
}
);
width = 361;
}
);
leftKerningGroup = ordfeminine;
note = quotedbl;
rightKerningGroup = ordfeminine;
unicode = 0022;
},
{
glyphname = numbersign;
layers = (
{
layerId = "A0CD44AA-8F44-4864-B482-F84B7650FD25";
paths = (
{
closed = 1;
nodes = (
"413 204 LINE",
"521 204 LINE",
"532 243 LINE",
"534 249 OFFCURVE",
"535 254 OFFCURVE",
"536 259 CURVE SMOOTH",
"538 271 OFFCURVE",
"536 280 OFFCURVE",
"531 285 CURVE SMOOTH",
"526 290 OFFCURVE",
"518 293 OFFCURVE",
"507 293 CURVE SMOOTH",
"436 293 LINE",
"479 431 LINE",
"529 431 LINE SMOOTH",
"547 431 OFFCURVE",
"560 434 OFFCURVE",
"569 440 CURVE SMOOTH",
"578 446 OFFCURVE",
"584 455 OFFCURVE",
"588 468 CURVE SMOOTH",
"604 520 LINE",
"502 520 LINE",
"553 680 LINE",
"554 682 OFFCURVE",
"554 685 OFFCURVE",
"554 688 CURVE",
"555 698 OFFCURVE",
"553 706 OFFCURVE",
"546 713 CURVE SMOOTH",
"539 720 OFFCURVE",
"531 723 OFFCURVE",
"519 723 CURVE SMOOTH",
"464 723 LINE",
"401 520 LINE",
"299 520 LINE",
"362 723 LINE",
"306 723 LINE SMOOTH",
"293 723 OFFCURVE",
"281 719 OFFCURVE",
"270 712 CURVE SMOOTH",
"259 705 OFFCURVE",
"252 694 OFFCURVE",
"248 681 CURVE SMOOTH",
"197 520 LINE",
"142 520 LINE SMOOTH",
"124 520 OFFCURVE",
"111 517 OFFCURVE",
"102 511 CURVE SMOOTH",
"93 505 OFFCURVE",
"87 495 OFFCURVE",
"83 482 CURVE SMOOTH",
"67 431 LINE",
"174 431 LINE",
"131 293 LINE",
"36 293 LINE",
"24 254 LINE SMOOTH",
"22 248 OFFCURVE",
"22 242 OFFCURVE",
"21 237 CURVE",
"20 225 OFFCURVE",
"21 217 OFFCURVE",
"26 212 CURVE SMOOTH",
"31 207 OFFCURVE",
"39 204 OFFCURVE",
"50 204 CURVE SMOOTH",
"107 204 LINE",
"44 0 LINE",
"99 0 LINE SMOOTH",
"112 0 OFFCURVE",
"124 3 OFFCURVE",
"136 10 CURVE SMOOTH",
"148 17 OFFCURVE",
"155 29 OFFCURVE",
"160 45 CURVE SMOOTH",
"209 204 LINE",
"311 204 LINE",
"263 51 LINE",
"262 49 OFFCURVE",
"262 48 OFFCURVE",
"262 46 CURVE SMOOTH",
"262 44 OFFCURVE",
"261 43 OFFCURVE",
"261 41 CURVE",
"260 29 OFFCURVE",
"262 20 OFFCURVE",
"268 12 CURVE SMOOTH",
"274 4 OFFCURVE",
"283 0 OFFCURVE",
"293 0 CURVE SMOOTH",
"349 0 LINE"
);
},
{
closed = 1;
nodes = (
"232 293 LINE",
"275 431 LINE",
"377 431 LINE",
"335 293 LINE"
);
}
);
width = 624;
}
);
note = numbersign;
unicode = 0023;
},
{
glyphname = dollar;
layers = (
{
layerId = "A0CD44AA-8F44-4864-B482-F84B7650FD25";
paths = (
{
closed = 1;
nodes = (
"182 -112 LINE",
"227 -112 LINE SMOOTH",
"237 -112 OFFCURVE",
"245 -108 OFFCURVE",
"252 -102 CURVE SMOOTH",
"259 -96 OFFCURVE",
"262 -88 OFFCURVE",
"264 -80 CURVE",
"279 -7 LINE",
"317 -4 OFFCURVE",
"351 3 OFFCURVE",
"382 16 CURVE SMOOTH",
"413 29 OFFCURVE",
"439 46 OFFCURVE",
"461 67 CURVE SMOOTH",
"483 88 OFFCURVE",
"501 112 OFFCURVE",
"515 139 CURVE SMOOTH",
"529 166 OFFCURVE",
"538 195 OFFCURVE",
"542 226 CURVE SMOOTH",
"546 257 OFFCURVE",
"543 284 OFFCURVE",
"534 305 CURVE SMOOTH",
"525 326 OFFCURVE",
"511 343 OFFCURVE",
"494 357 CURVE SMOOTH",
"477 371 OFFCURVE",
"457 382 OFFCURVE",
"435 391 CURVE SMOOTH",
"413 400 OFFCURVE",
"390 409 OFFCURVE",
"367 416 CURVE",
"410 623 LINE",
"423 620 OFFCURVE",
"434 616 OFFCURVE",
"444 611 CURVE SMOOTH",
"454 606 OFFCURVE",
"463 602 OFFCURVE",
"471 597 CURVE",
"493 586 LINE SMOOTH",
"499 583 OFFCURVE",
"506 581 OFFCURVE",
"511 581 CURVE SMOOTH",
"518 581 OFFCURVE",
"523 583 OFFCURVE",
"528 586 CURVE SMOOTH",
"533 589 OFFCURVE",
"539 594 OFFCURVE",
"544 601 CURVE",
"580 646 LINE",
"563 664 OFFCURVE",
"543 681 OFFCURVE",
"519 695 CURVE SMOOTH",
"495 709 OFFCURVE",
"466 719 OFFCURVE",
"431 725 CURVE",
"451 824 LINE",
"406 824 LINE SMOOTH",
"396 824 OFFCURVE",
"388 820 OFFCURVE",
"381 814 CURVE SMOOTH",
"374 808 OFFCURVE",
"371 800 OFFCURVE",
"369 792 CURVE SMOOTH",
"355 730 LINE",
"318 728 OFFCURVE",
"285 720 OFFCURVE",
"255 708 CURVE SMOOTH",
"225 696 OFFCURVE",
"200 681 OFFCURVE",
"178 662 CURVE SMOOTH",
"156 643 OFFCURVE",
"139 621 OFFCURVE",
"126 597 CURVE SMOOTH",
"113 573 OFFCURVE",
"104 547 OFFCURVE",
"101 522 CURVE SMOOTH",
"97 488 OFFCURVE",
"99 461 OFFCURVE",
"108 438 CURVE SMOOTH",
"117 415 OFFCURVE",
"129 396 OFFCURVE",
"146 381 CURVE SMOOTH",
"163 366 OFFCURVE",
"182 355 OFFCURVE",
"204 346 CURVE SMOOTH",
"226 337 OFFCURVE",
"248 329 OFFCURVE",
"271 322 CURVE",
"225 98 LINE",
"207 101 OFFCURVE",
"191 107 OFFCURVE",
"178 114 CURVE SMOOTH",
"165 121 OFFCURVE",
"154 127 OFFCURVE",
"144 134 CURVE SMOOTH",
"134 141 OFFCURVE",
"126 148 OFFCURVE",
"118 153 CURVE SMOOTH",
"110 158 OFFCURVE",
"103 160 OFFCURVE",
"96 160 CURVE SMOOTH",
"90 160 OFFCURVE",
"84 159 OFFCURVE",
"78 156 CURVE SMOOTH",
"72 153 OFFCURVE",
"67 148 OFFCURVE",
"63 143 CURVE SMOOTH",
"18 87 LINE",
"39 63 OFFCURVE",
"66 43 OFFCURVE",
"98 27 CURVE SMOOTH",
"130 11 OFFCURVE",
"166 1 OFFCURVE",
"204 -4 CURVE"
);
},
{
closed = 1;
nodes = (
"418 176 OFFCURVE",
"407 151 OFFCURVE",
"386 132 CURVE SMOOTH",
"365 113 OFFCURVE",
"337 101 OFFCURVE",
"301 96 CURVE",
"343 300 LINE",
"355 296 OFFCURVE",
"367 290 OFFCURVE",
"377 285 CURVE SMOOTH",
"387 280 OFFCURVE",
"397 273 OFFCURVE",
"404 266 CURVE SMOOTH",
"411 259 OFFCURVE",
"417 251 OFFCURVE",
"420 241 CURVE SMOOTH",
"423 231 OFFCURVE",
"424 220 OFFCURVE",
"422 207 CURVE SMOOTH"
);
},
{
closed = 1;
nodes = (
"220 545 OFFCURVE",
"224 556 OFFCURVE",
"229 566 CURVE SMOOTH",
"234 576 OFFCURVE",
"242 584 OFFCURVE",
"251 592 CURVE SMOOTH",
"260 600 OFFCURVE",
"271 607 OFFCURVE",
"285 613 CURVE",
"299 618 OFFCURVE",
"314 622 OFFCURVE",
"333 624 CURVE",
"295 439 LINE",
"283 444 OFFCURVE",
"272 449 OFFCURVE",
"262 455 CURVE SMOOTH",
"252 461 OFFCURVE",
"244 467 OFFCURVE",
"237 475 CURVE SMOOTH",
"230 483 OFFCURVE",
"225 491 OFFCURVE",
"222 501 CURVE SMOOTH",
"219 511 OFFCURVE",
"217 521 OFFCURVE",
"219 534 CURVE"
);
}
);
width = 597;
}
);
note = dollar;
unicode = 0024;
},
{
glyphname = percent;
layers = (
{
layerId = "A0CD44AA-8F44-4864-B482-F84B7650FD25";
paths = (
{
closed = 1;
nodes = (
"387 576 OFFCURVE",
"387 601 OFFCURVE",
"381 624 CURVE SMOOTH",
"375 647 OFFCURVE",
"366 666 OFFCURVE",
"353 682 CURVE SMOOTH",
"340 698 OFFCURVE",
"323 710 OFFCURVE",
"304 718 CURVE SMOOTH",
"285 726 OFFCURVE",
"263 730 OFFCURVE",
"239 730 CURVE SMOOTH",
"215 730 OFFCURVE",
"192 726 OFFCURVE",
"171 718 CURVE SMOOTH",
"150 710 OFFCURVE",
"130 698 OFFCURVE",
"113 682 CURVE SMOOTH",
"96 666 OFFCURVE",
"83 647 OFFCURVE",
"72 624 CURVE SMOOTH",
"61 601 OFFCURVE",
"53 576 OFFCURVE",
"50 548 CURVE SMOOTH",
"47 521 OFFCURVE",
"47 496 OFFCURVE",
"53 474 CURVE SMOOTH",
"59 452 OFFCURVE",
"68 434 OFFCURVE",
"81 418 CURVE SMOOTH",
"94 402 OFFCURVE",
"110 390 OFFCURVE",
"129 382 CURVE SMOOTH",
"148 374 OFFCURVE",
"170 370 OFFCURVE",
"194 370 CURVE SMOOTH",
"216 370 OFFCURVE",
"238 374 OFFCURVE",
"259 382 CURVE SMOOTH",
"280 390 OFFCURVE",
"300 402 OFFCURVE",
"317 418 CURVE SMOOTH",
"334 434 OFFCURVE",
"349 452 OFFCURVE",
"361 474 CURVE SMOOTH",
"373 496 OFFCURVE",
"381 521 OFFCURVE",
"384 548 CURVE SMOOTH"
);
},
{
closed = 1;
nodes = (
"286 529 OFFCURVE",
"282 514 OFFCURVE",
"277 501 CURVE SMOOTH",
"272 489 OFFCURVE",
"265 479 OFFCURVE",
"258 471 CURVE SMOOTH",
"251 463 OFFCURVE",
"242 457 OFFCURVE",
"233 454 CURVE SMOOTH",
"224 451 OFFCURVE",
"214 450 OFFCURVE",
"204 450 CURVE SMOOTH",
"194 450 OFFCURVE",
"185 451 OFFCURVE",
"177 454 CURVE SMOOTH",
"169 457 OFFCURVE",
"161 463 OFFCURVE",
"156 471 CURVE SMOOTH",
"151 479 OFFCURVE",
"147 489 OFFCURVE",
"145 501 CURVE SMOOTH",
"143 513 OFFCURVE",
"144 529 OFFCURVE",
"146 548 CURVE SMOOTH",
"148 567 OFFCURVE",
"152 583 OFFCURVE",
"157 596 CURVE SMOOTH",
"162 609 OFFCURVE",
"169 620 OFFCURVE",
"176 628 CURVE SMOOTH",
"183 636 OFFCURVE",
"191 641 OFFCURVE",
"200 645 CURVE SMOOTH",
"209 649 OFFCURVE",
"219 650 OFFCURVE",
"229 650 CURVE SMOOTH",
"239 650 OFFCURVE",
"248 649 OFFCURVE",
"256 645 CURVE SMOOTH",
"264 641 OFFCURVE",
"271 636 OFFCURVE",
"277 628 CURVE SMOOTH",
"283 620 OFFCURVE",
"287 609 OFFCURVE",
"289 596 CURVE SMOOTH",
"291 583 OFFCURVE",
"290 567 OFFCURVE",
"288 548 CURVE SMOOTH"
);
},
{
closed = 1;
nodes = (
"20 0 LINE",
"112 0 LINE SMOOTH",
"121 0 OFFCURVE",
"128 1 OFFCURVE",
"135 5 CURVE SMOOTH",
"142 9 OFFCURVE",
"147 13 OFFCURVE",
"152 18 CURVE",
"775 723 LINE",
"686 723 LINE SMOOTH",
"675 723 OFFCURVE",
"666 721 OFFCURVE",
"660 717 CURVE SMOOTH",
"654 713 OFFCURVE",
"648 709 OFFCURVE",
"643 704 CURVE"
);
},
{
closed = 1;
nodes = (
"748 198 OFFCURVE",
"748 223 OFFCURVE",
"742 246 CURVE SMOOTH",
"736 269 OFFCURVE",
"727 288 OFFCURVE",
"714 304 CURVE SMOOTH",
"701 320 OFFCURVE",
"684 332 OFFCURVE",
"665 340 CURVE SMOOTH",
"646 348 OFFCURVE",
"624 352 OFFCURVE",
"600 352 CURVE SMOOTH",
"576 352 OFFCURVE",
"553 348 OFFCURVE",
"532 340 CURVE SMOOTH",
"511 332 OFFCURVE",
"492 320 OFFCURVE",
"475 304 CURVE SMOOTH",
"458 288 OFFCURVE",
"444 269 OFFCURVE",
"433 246 CURVE SMOOTH",
"422 223 OFFCURVE",
"414 198 OFFCURVE",
"411 170 CURVE SMOOTH",
"408 143 OFFCURVE",
"409 118 OFFCURVE",
"415 96 CURVE SMOOTH",
"421 74 OFFCURVE",
"430 56 OFFCURVE",
"443 40 CURVE SMOOTH",
"456 24 OFFCURVE",
"472 12 OFFCURVE",
"491 4 CURVE SMOOTH",
"510 -4 OFFCURVE",
"532 -9 OFFCURVE",
"556 -9 CURVE SMOOTH",
"578 -9 OFFCURVE",
"600 -4 OFFCURVE",
"621 4 CURVE SMOOTH",
"642 12 OFFCURVE",
"662 24 OFFCURVE",
"679 40 CURVE SMOOTH",
"696 56 OFFCURVE",
"711 74 OFFCURVE",
"723 96 CURVE SMOOTH",
"735 118 OFFCURVE",
"742 143 OFFCURVE",
"745 170 CURVE SMOOTH"
);
},
{
closed = 1;
nodes = (
"648 151 OFFCURVE",
"644 136 OFFCURVE",
"639 123 CURVE SMOOTH",
"634 110 OFFCURVE",
"627 101 OFFCURVE",
"620 93 CURVE SMOOTH",
"613 85 OFFCURVE",
"604 79 OFFCURVE",
"595 76 CURVE SMOOTH",
"586 73 OFFCURVE",
"576 71 OFFCURVE",
"566 71 CURVE SMOOTH",
"556 71 OFFCURVE",
"546 73 OFFCURVE",
"538 76 CURVE SMOOTH",
"530 79 OFFCURVE",
"523 85 OFFCURVE",
"518 93 CURVE SMOOTH",
"513 101 OFFCURVE",
"509 110 OFFCURVE",
"507 123 CURVE SMOOTH",
"505 136 OFFCURVE",
"505 151 OFFCURVE",
"507 170 CURVE SMOOTH",
"509 189 OFFCURVE",
"514 206 OFFCURVE",
"519 219 CURVE SMOOTH",
"524 232 OFFCURVE",
"530 242 OFFCURVE",
"537 250 CURVE SMOOTH",
"544 258 OFFCURVE",
"553 263 OFFCURVE",
"562 267 CURVE SMOOTH",
"571 271 OFFCURVE",
"580 273 OFFCURVE",
"590 273 CURVE SMOOTH",
"600 273 OFFCURVE",
"610 271 OFFCURVE",
"618 267 CURVE SMOOTH",
"626 263 OFFCURVE",
"633 258 OFFCURVE",
"639 250 CURVE SMOOTH",
"645 242 OFFCURVE",
"649 232 OFFCURVE",
"651 219 CURVE SMOOTH",
"653 206 OFFCURVE",
"652 189 OFFCURVE",
"650 170 CURVE SMOOTH"
);
}
);
width = 795;
}
);
note = percent;
unicode = 0025;
},
{
glyphname = ampersand;
layers = (
{
layerId = "A0CD44AA-8F44-4864-B482-F84B7650FD25";
paths = (
{
closed = 1;
nodes = (
"355 731 OFFCURVE",
"326 726 OFFCURVE",
"299 716 CURVE SMOOTH",
"272 706 OFFCURVE",
"250 693 OFFCURVE",
"230 676 CURVE SMOOTH",
"210 659 OFFCURVE",
"194 641 OFFCURVE",
"182 618 CURVE SMOOTH",
"170 596 OFFCURVE",
"163 571 OFFCURVE",
"160 546 CURVE SMOOTH",
"157 522 OFFCURVE",
"158 499 OFFCURVE",
"163 475 CURVE SMOOTH",
"168 451 OFFCURVE",
"178 427 OFFCURVE",
"193 402 CURVE",
"170 392 OFFCURVE",
"150 380 OFFCURVE",
"130 366 CURVE SMOOTH",
"110 352 OFFCURVE",
"93 336 OFFCURVE",
"78 319 CURVE SMOOTH",
"63 302 OFFCURVE",
"51 283 OFFCURVE",
"41 263 CURVE SMOOTH",
"31 243 OFFCURVE",
"25 221 OFFCURVE",
"22 199 CURVE SMOOTH",
"18 167 OFFCURVE",
"20 139 OFFCURVE",
"30 113 CURVE SMOOTH",
"40 87 OFFCURVE",
"54 66 OFFCURVE",
"73 48 CURVE SMOOTH",
"92 30 OFFCURVE",
"114 16 OFFCURVE",
"140 6 CURVE SMOOTH",
"166 -4 OFFCURVE",
"192 -8 OFFCURVE",
"220 -8 CURVE SMOOTH",
"266 -8 OFFCURVE",
"309 -1 OFFCURVE",
"350 14 CURVE SMOOTH",
"391 29 OFFCURVE",
"429 49 OFFCURVE",
"464 75 CURVE",
"508 24 LINE",
"512 19 OFFCURVE",
"515 15 OFFCURVE",
"519 12 CURVE SMOOTH",
"523 9 OFFCURVE",
"526 7 OFFCURVE",
"530 5 CURVE SMOOTH",
"534 3 OFFCURVE",
"539 2 OFFCURVE",
"544 1 CURVE SMOOTH",
"549 0 OFFCURVE",
"554 0 OFFCURVE",
"560 0 CURVE SMOOTH",
"681 0 LINE",
"549 157 LINE",
"576 191 OFFCURVE",
"599 228 OFFCURVE",
"616 268 CURVE SMOOTH",
"633 308 OFFCURVE",
"644 350 OFFCURVE",
"650 394 CURVE",
"573 394 LINE SMOOTH",
"565 394 OFFCURVE",
"559 391 OFFCURVE",
"554 386 CURVE SMOOTH",
"549 381 OFFCURVE",
"546 376 OFFCURVE",
"544 368 CURVE",
"539 344 OFFCURVE",
"532 320 OFFCURVE",
"522 297 CURVE SMOOTH",
"512 274 OFFCURVE",
"502 252 OFFCURVE",
"488 231 CURVE",
"320 430 LINE",
"310 441 OFFCURVE",
"302 452 OFFCURVE",
"296 462 CURVE SMOOTH",
"290 472 OFFCURVE",
"285 482 OFFCURVE",
"281 491 CURVE SMOOTH",
"277 500 OFFCURVE",
"276 510 OFFCURVE",
"275 519 CURVE SMOOTH",
"274 528 OFFCURVE",
"274 538 OFFCURVE",
"275 548 CURVE SMOOTH",
"276 560 OFFCURVE",
"280 571 OFFCURVE",
"285 582 CURVE SMOOTH",
"290 593 OFFCURVE",
"297 602 OFFCURVE",
"306 610 CURVE SMOOTH",
"315 618 OFFCURVE",
"325 625 OFFCURVE",
"337 630 CURVE SMOOTH",
"349 635 OFFCURVE",
"361 637 OFFCURVE",
"375 637 CURVE SMOOTH",
"387 637 OFFCURVE",
"396 636 OFFCURVE",
"405 632 CURVE SMOOTH",
"414 628 OFFCURVE",
"421 624 OFFCURVE",
"427 618 CURVE SMOOTH",
"433 612 OFFCURVE",
"438 605 OFFCURVE",
"442 597 CURVE SMOOTH",
"446 589 OFFCURVE",
"448 582 OFFCURVE",
"450 573 CURVE",
"452 566 OFFCURVE",
"455 561 OFFCURVE",
"459 558 CURVE SMOOTH",
"463 555 OFFCURVE",
"468 553 OFFCURVE",
"474 553 CURVE SMOOTH",
"477 553 LINE SMOOTH",
"478 553 OFFCURVE",
"479 554 OFFCURVE",
"480 554 CURVE",
"561 570 LINE",
"562 591 OFFCURVE",
"558 611 OFFCURVE",
"551 630 CURVE SMOOTH",
"544 649 OFFCURVE",
"534 667 OFFCURVE",
"519 682 CURVE SMOOTH",
"504 697 OFFCURVE",
"486 709 OFFCURVE",
"464 718 CURVE SMOOTH",
"442 727 OFFCURVE",
"416 731 OFFCURVE",
"387 731 CURVE SMOOTH"
);
},
{
closed = 1;
nodes = (
"151 234 OFFCURVE",
"160 257 OFFCURVE",
"175 279 CURVE SMOOTH",
"190 301 OFFCURVE",
"212 321 OFFCURVE",
"241 338 CURVE",
"407 143 LINE",
"385 127 OFFCURVE",
"361 113 OFFCURVE",
"336 104 CURVE SMOOTH",
"311 95 OFFCURVE",
"283 91 OFFCURVE",
"254 91 CURVE SMOOTH",
"238 91 OFFCURVE",
"223 93 OFFCURVE",
"209 99 CURVE SMOOTH",
"195 105 OFFCURVE",
"183 112 OFFCURVE",
"173 122 CURVE SMOOTH",
"163 132 OFFCURVE",
"157 145 OFFCURVE",
"152 160 CURVE SMOOTH",
"147 175 OFFCURVE",
"146 191 OFFCURVE",
"148 209 CURVE SMOOTH"
);
}
);
width = 701;
}
);
note = ampersand;
unicode = 0026;
},
{
glyphname = quotesingle;
lastChange = "2017-01-26 15:47:16 +0000";
layers = (
{
layerId = "A0CD44AA-8F44-4864-B482-F84B7650FD25";
paths = (
{
closed = 1;
nodes = (
"153 723 LINE",
"46 723 LINE",
"28 579 LINE",
"29 501 LINE SMOOTH",
"29 486 OFFCURVE",
"33 475 OFFCURVE",
"39 467 CURVE SMOOTH",
"45 459 OFFCURVE",
"54 456 OFFCURVE",
"66 456 CURVE SMOOTH",
"80 456 OFFCURVE",
"91 459 OFFCURVE",
"98 467 CURVE SMOOTH",
"105 475 OFFCURVE",
"110 486 OFFCURVE",
"114 501 CURVE SMOOTH",
"136 579 LINE"
);
}
);
width = 177;
}
);
leftKerningGroup = ordfeminine;
note = quotesingle;
rightKerningGroup = ordfeminine;
unicode = 0027;
},
{
glyphname = parenleft;
layers = (
{
layerId = "A0CD44AA-8F44-4864-B482-F84B7650FD25";
paths = (
{
closed = 1;
nodes = (
"142 383 OFFCURVE",
"159 450 OFFCURVE",
"184 516 CURVE SMOOTH",
"209 582 OFFCURVE",
"240 646 OFFCURVE",
"278 704 CURVE",
"283 713 OFFCURVE",
"286 720 OFFCURVE",
"287 726 CURVE SMOOTH",
"288 732 OFFCURVE",
"287 738 OFFCURVE",
"284 742 CURVE SMOOTH",
"281 746 OFFCURVE",
"277 749 OFFCURVE",
"273 752 CURVE",
"222 785 LINE",
"193 747 OFFCURVE",
"167 709 OFFCURVE",
"145 671 CURVE SMOOTH",
"123 633 OFFCURVE",
"104 594 OFFCURVE",
"88 555 CURVE SMOOTH",
"72 516 OFFCURVE",
"60 476 OFFCURVE",
"50 436 CURVE SMOOTH",
"40 396 OFFCURVE",
"32 356 OFFCURVE",
"27 314 CURVE SMOOTH",
"22 272 OFFCURVE",
"20 231 OFFCURVE",
"20 191 CURVE SMOOTH",
"20 151 OFFCURVE",
"23 111 OFFCURVE",
"29 72 CURVE SMOOTH",
"35 33 OFFCURVE",
"44 -6 OFFCURVE",
"57 -44 CURVE SMOOTH",
"70 -82 OFFCURVE",
"86 -120 OFFCURVE",
"106 -158 CURVE",
"166 -124 LINE SMOOTH",
"171 -121 OFFCURVE",
"175 -118 OFFCURVE",
"179 -114 CURVE SMOOTH",
"183 -110 OFFCURVE",
"185 -105 OFFCURVE",
"186 -98 CURVE",
"186 -88 LINE SMOOTH",
"186 -84 OFFCURVE",
"184 -80 OFFCURVE",
"182 -76 CURVE",
"158 -18 OFFCURVE",
"143 45 OFFCURVE",
"134 111 CURVE SMOOTH",
"125 177 OFFCURVE",
"126 245 OFFCURVE",
"134 314 CURVE SMOOTH"
);
}
);
width = 305;
}
);
note = parenleft;
unicode = 0028;
},
{
glyphname = parenright;
layers = (
{
layerId = "A0CD44AA-8F44-4864-B482-F84B7650FD25";
paths = (
{
closed = 1;
nodes = (
"163 245 OFFCURVE",
"146 177 OFFCURVE",
"121 111 CURVE SMOOTH",
"96 45 OFFCURVE",
"65 -18 OFFCURVE",
"27 -76 CURVE",
"24 -80 OFFCURVE",
"22 -84 OFFCURVE",
"21 -88 CURVE SMOOTH",
"20 -92 OFFCURVE",
"18 -95 OFFCURVE",
"18 -98 CURVE",
"17 -105 OFFCURVE",
"18 -110 OFFCURVE",
"21 -114 CURVE SMOOTH",
"24 -118 OFFCURVE",
"28 -121 OFFCURVE",
"32 -124 CURVE",
"83 -158 LINE",
"112 -120 OFFCURVE",
"138 -82 OFFCURVE",
"160 -44 CURVE SMOOTH",
"182 -6 OFFCURVE",
"201 33 OFFCURVE",
"217 72 CURVE SMOOTH",
"233 111 OFFCURVE",
"246 151 OFFCURVE",
"256 191 CURVE SMOOTH",
"266 231 OFFCURVE",
"273 272 OFFCURVE",
"278 314 CURVE SMOOTH",
"283 356 OFFCURVE",
"286 396 OFFCURVE",
"286 436 CURVE SMOOTH",
"286 476 OFFCURVE",
"282 516 OFFCURVE",
"276 555 CURVE SMOOTH",
"270 594 OFFCURVE",
"261 633 OFFCURVE",
"248 671 CURVE SMOOTH",
"235 709 OFFCURVE",
"219 747 OFFCURVE",
"199 785 CURVE",
"140 752 LINE SMOOTH",
"135 749 OFFCURVE",
"130 746 OFFCURVE",
"126 742 CURVE SMOOTH",
"122 738 OFFCURVE",
"120 732 OFFCURVE",
"119 726 CURVE SMOOTH",
"118 720 OFFCURVE",
"120 713 OFFCURVE",
"123 704 CURVE",
"147 646 OFFCURVE",
"162 582 OFFCURVE",
"171 516 CURVE SMOOTH",
"180 450 OFFCURVE",
"179 383 OFFCURVE",
"171 314 CURVE SMOOTH"
);
}
);
width = 306;
}
);
note = parenright;
unicode = 0029;
},
{
glyphname = asterisk;
lastChange = "2017-01-26 15:47:16 +0000";
layers = (
{
layerId = "A0CD44AA-8F44-4864-B482-F84B7650FD25";
paths = (
{
closed = 1;
nodes = (
"142 418 LINE",
"201 418 LINE",
"212 510 LINE SMOOTH",
"214 524 OFFCURVE",
"213 537 OFFCURVE",
"210 548 CURVE",
"213 543 OFFCURVE",
"217 539 OFFCURVE",
"222 535 CURVE SMOOTH",
"227 531 OFFCURVE",
"231 528 OFFCURVE",
"237 524 CURVE SMOOTH",
"311 478 LINE",
"346 528 LINE",
"272 574 LINE SMOOTH",
"260 581 OFFCURVE",
"249 586 OFFCURVE",
"238 588 CURVE",
"244 589 OFFCURVE",
"251 591 OFFCURVE",
"257 593 CURVE SMOOTH",
"263 595 OFFCURVE",
"270 598 OFFCURVE",
"276 602 CURVE",
"361 648 LINE",
"337 698 LINE",
"253 652 LINE",
"247 648 OFFCURVE",
"240 645 OFFCURVE",
"235 641 CURVE SMOOTH",
"230 637 OFFCURVE",
"224 633 OFFCURVE",
"220 628 CURVE",
"223 634 OFFCURVE",
"225 640 OFFCURVE",
"227 646 CURVE SMOOTH",
"229 652 OFFCURVE",
"230 659 OFFCURVE",
"231 666 CURVE SMOOTH",
"242 758 LINE",
"183 758 LINE",
"172 666 LINE SMOOTH",
"171 659 OFFCURVE",
"171 652 OFFCURVE",
"171 646 CURVE SMOOTH",
"171 640 OFFCURVE",
"171 634 OFFCURVE",
"173 628 CURVE",
"170 633 OFFCURVE",
"167 637 OFFCURVE",
"162 641 CURVE SMOOTH",
"157 645 OFFCURVE",
"152 648 OFFCURVE",
"147 652 CURVE",
"73 699 LINE",
"38 649 LINE",
"112 602 LINE SMOOTH",
"118 598 OFFCURVE",
"122 596 OFFCURVE",
"128 593 CURVE SMOOTH",
"134 590 OFFCURVE",
"140 589 OFFCURVE",
"146 588 CURVE",
"140 587 OFFCURVE",
"133 585 OFFCURVE",
"127 583 CURVE SMOOTH",
"121 581 OFFCURVE",
"114 578 OFFCURVE",
"108 574 CURVE",
"23 528 LINE",
"46 478 LINE",
"131 524 LINE",
"137 528 OFFCURVE",
"143 531 OFFCURVE",
"148 535 CURVE SMOOTH",
"153 539 OFFCURVE",
"159 542 OFFCURVE",
"163 547 CURVE",
"160 541 OFFCURVE",
"158 535 OFFCURVE",
"156 529 CURVE SMOOTH",
"154 523 OFFCURVE",
"154 517 OFFCURVE",
"153 510 CURVE SMOOTH"
);
}
);
width = 383;
}
);
leftKerningGroup = quotedbl;
note = asterisk;
rightKerningGroup = quotedbl;
unicode = 002A;
},
{
glyphname = plus;
layers = (
{
layerId = "A0CD44AA-8F44-4864-B482-F84B7650FD25";
paths = (
{
closed = 1;
nodes = (
"353 586 LINE",
"253 586 LINE",
"228 382 LINE",
"34 382 LINE",
"23 290 LINE",
"216 290 LINE",
"191 84 LINE",
"291 84 LINE",
"316 290 LINE",
"511 290 LINE",
"522 382 LINE",
"328 382 LINE"
);
}
);
width = 544;
}
);
note = plus;
unicode = 002B;
},
{
glyphname = comma;
lastChange = "2017-01-26 15:47:16 +0000";
layers = (
{
layerId = "A0CD44AA-8F44-4864-B482-F84B7650FD25";
paths = (
{
closed = 1;
nodes = (
"42 65 OFFCURVE",
"42 55 OFFCURVE",
"44 46 CURVE SMOOTH",
"46 37 OFFCURVE",
"51 30 OFFCURVE",
"56 23 CURVE SMOOTH",
"61 16 OFFCURVE",
"68 11 OFFCURVE",
"76 7 CURVE SMOOTH",
"84 3 OFFCURVE",
"94 2 OFFCURVE",
"104 2 CURVE",
"101 -8 OFFCURVE",
"97 -18 OFFCURVE",
"91 -27 CURVE SMOOTH",
"85 -36 OFFCURVE",
"79 -43 OFFCURVE",
"73 -51 CURVE SMOOTH",
"67 -59 OFFCURVE",
"61 -65 OFFCURVE",
"55 -71 CURVE SMOOTH",
"49 -77 OFFCURVE",
"43 -82 OFFCURVE",
"39 -86 CURVE SMOOTH",
"36 -89 OFFCURVE",
"34 -92 OFFCURVE",
"32 -95 CURVE SMOOTH",
"30 -98 OFFCURVE",
"28 -101 OFFCURVE",
"28 -104 CURVE",
"27 -111 OFFCURVE",
"29 -117 OFFCURVE",
"34 -122 CURVE SMOOTH",
"54 -142 LINE",
"73 -128 OFFCURVE",
"90 -113 OFFCURVE",
"106 -96 CURVE SMOOTH",
"122 -79 OFFCURVE",
"135 -62 OFFCURVE",
"147 -44 CURVE SMOOTH",
"159 -26 OFFCURVE",
"168 -10 OFFCURVE",
"175 8 CURVE SMOOTH",
"182 26 OFFCURVE",
"186 43 OFFCURVE",
"188 59 CURVE SMOOTH",
"189 70 OFFCURVE",
"190 81 OFFCURVE",
"188 91 CURVE SMOOTH",
"186 101 OFFCURVE",
"182 110 OFFCURVE",
"177 118 CURVE SMOOTH",
"172 126 OFFCURVE",
"165 133 OFFCURVE",
"156 137 CURVE SMOOTH",
"147 141 OFFCURVE",
"137 143 OFFCURVE",
"124 143 CURVE SMOOTH",
"113 143 OFFCURVE",
"102 142 OFFCURVE",
"93 138 CURVE SMOOTH",
"84 134 OFFCURVE",
"76 130 OFFCURVE",
"69 124 CURVE SMOOTH",
"62 118 OFFCURVE",
"56 110 OFFCURVE",
"51 102 CURVE SMOOTH",
"46 94 OFFCURVE",
"44 85 OFFCURVE",
"43 76 CURVE SMOOTH"
);
}
);
width = 218;
}
);
leftKerningGroup = comma;
note = comma;
rightKerningGroup = comma;
unicode = 002C;
},
{
glyphname = hyphen;
lastChange = "2017-01-26 15:47:16 +0000";
layers = (
{
layerId = "A0CD44AA-8F44-4864-B482-F84B7650FD25";
paths = (
{
closed = 1;
nodes = (
"42 354 LINE",
"30 250 LINE",
"288 250 LINE",
"301 354 LINE"
);
}
);
width = 331;
}
);
leftKerningGroup = emdash;
note = hyphen;
rightKerningGroup = emdash;
unicode = 002D;
},
{
glyphname = period;
lastChange = "2017-01-26 15:47:16 +0000";
layers = (
{
layerId = "A0CD44AA-8F44-4864-B482-F84B7650FD25";
paths = (
{
closed = 1;
nodes = (
"28 57 OFFCURVE",
"28 47 OFFCURVE",
"31 38 CURVE SMOOTH",
"34 29 OFFCURVE",
"38 22 OFFCURVE",
"44 15 CURVE SMOOTH",
"50 8 OFFCURVE",
"57 3 OFFCURVE",
"66 -1 CURVE SMOOTH",
"75 -5 OFFCURVE",
"84 -7 OFFCURVE",
"95 -7 CURVE SMOOTH",
"105 -7 OFFCURVE",
"116 -5 OFFCURVE",
"126 -1 CURVE SMOOTH",
"136 3 OFFCURVE",
"145 8 OFFCURVE",
"152 15 CURVE SMOOTH",
"159 22 OFFCURVE",
"165 29 OFFCURVE",
"170 38 CURVE SMOOTH",
"175 47 OFFCURVE",
"179 57 OFFCURVE",
"180 68 CURVE SMOOTH",
"181 78 OFFCURVE",
"181 89 OFFCURVE",
"178 98 CURVE SMOOTH",
"175 107 OFFCURVE",
"171 115 OFFCURVE",
"165 122 CURVE SMOOTH",
"159 129 OFFCURVE",
"152 134 OFFCURVE",
"143 138 CURVE SMOOTH",
"134 142 OFFCURVE",
"124 144 OFFCURVE",
"114 144 CURVE SMOOTH",
"103 144 OFFCURVE",
"93 142 OFFCURVE",
"83 138 CURVE SMOOTH",
"73 134 OFFCURVE",
"65 129 OFFCURVE",
"57 122 CURVE SMOOTH",
"49 115 OFFCURVE",
"43 107 OFFCURVE",
"38 98 CURVE SMOOTH",
"33 89 OFFCURVE",
"30 78 OFFCURVE",
"29 68 CURVE SMOOTH"
);
}
);
width = 210;
}
);
leftKerningGroup = comma;
note = period;
rightKerningGroup = comma;
unicode = 002E;
},
{
glyphname = slash;
layers = (
{
layerId = "A0CD44AA-8F44-4864-B482-F84B7650FD25";
paths = (
{
closed = 1;
nodes = (
"524 743 LINE",
"472 743 LINE SMOOTH",
"457 743 OFFCURVE",
"444 740 OFFCURVE",
"432 732 CURVE SMOOTH",
"420 724 OFFCURVE",
"410 714 OFFCURVE",
"403 700 CURVE SMOOTH",
"20 -48 LINE",
"72 -48 LINE SMOOTH",
"78 -48 OFFCURVE",
"84 -46 OFFCURVE",
"91 -44 CURVE SMOOTH",
"98 -42 OFFCURVE",
"105 -40 OFFCURVE",
"111 -36 CURVE SMOOTH",
"117 -32 OFFCURVE",
"124 -28 OFFCURVE",
"129 -22 CURVE SMOOTH",
"134 -16 OFFCURVE",
"139 -10 OFFCURVE",
"143 -2 CURVE SMOOTH"
);
}
);
width = 543;
}
);
note = slash;
unicode = 002F;
},
{
glyphname = zero;
layers = (
{
layerId = "A0CD44AA-8F44-4864-B482-F84B7650FD25";
paths = (
{
closed = 1;
nodes = (
"566 425 OFFCURVE",
"566 480 OFFCURVE",
"558 526 CURVE SMOOTH",
"550 572 OFFCURVE",
"536 611 OFFCURVE",
"516 641 CURVE SMOOTH",
"496 671 OFFCURVE",
"471 694 OFFCURVE",
"440 709 CURVE SMOOTH",
"409 724 OFFCURVE",
"375 731 OFFCURVE",
"337 731 CURVE SMOOTH",
"299 731 OFFCURVE",
"264 724 OFFCURVE",
"230 709 CURVE SMOOTH",
"196 694 OFFCURVE",
"165 671 OFFCURVE",
"138 641 CURVE SMOOTH",
"111 611 OFFCURVE",
"87 572 OFFCURVE",
"68 526 CURVE SMOOTH",
"49 480 OFFCURVE",
"36 425 OFFCURVE",
"28 362 CURVE SMOOTH",
"20 299 OFFCURVE",
"20 243 OFFCURVE",
"28 197 CURVE SMOOTH",
"36 151 OFFCURVE",
"49 112 OFFCURVE",
"69 82 CURVE SMOOTH",
"89 52 OFFCURVE",
"114 29 OFFCURVE",
"144 14 CURVE SMOOTH",
"174 -1 OFFCURVE",
"208 -8 OFFCURVE",
"246 -8 CURVE SMOOTH",
"284 -8 OFFCURVE",
"320 -1 OFFCURVE",
"354 14 CURVE SMOOTH",
"388 29 OFFCURVE",
"419 52 OFFCURVE",
"447 82 CURVE SMOOTH",
"475 112 OFFCURVE",
"498 151 OFFCURVE",
"517 197 CURVE SMOOTH",
"536 243 OFFCURVE",
"550 299 OFFCURVE",
"558 362 CURVE SMOOTH"
);
},
{
closed = 1;
nodes = (
"424 310 OFFCURVE",
"415 266 OFFCURVE",
"403 232 CURVE SMOOTH",
"391 198 OFFCURVE",
"377 169 OFFCURVE",
"362 149 CURVE SMOOTH",
"347 129 OFFCURVE",
"331 115 OFFCURVE",
"313 107 CURVE SMOOTH",
"295 99 OFFCURVE",
"277 94 OFFCURVE",
"259 94 CURVE SMOOTH",
"241 94 OFFCURVE",
"224 99 OFFCURVE",
"209 107 CURVE SMOOTH",
"194 115 OFFCURVE",
"181 130 OFFCURVE",
"171 150 CURVE SMOOTH",
"161 170 OFFCURVE",
"154 198 OFFCURVE",
"151 232 CURVE SMOOTH",
"148 266 OFFCURVE",
"149 310 OFFCURVE",
"155 362 CURVE SMOOTH",
"161 414 OFFCURVE",
"171 458 OFFCURVE",
"183 492 CURVE SMOOTH",
"195 526 OFFCURVE",
"208 554 OFFCURVE",
"223 574 CURVE SMOOTH",
"238 594 OFFCURVE",
"254 608 OFFCURVE",
"272 616 CURVE SMOOTH",
"290 624 OFFCURVE",
"307 629 OFFCURVE",
"325 629 CURVE SMOOTH",
"343 629 OFFCURVE",
"359 624 OFFCURVE",
"375 616 CURVE SMOOTH",
"391 608 OFFCURVE",
"404 594 OFFCURVE",
"414 574 CURVE SMOOTH",
"424 554 OFFCURVE",
"432 526 OFFCURVE",
"435 492 CURVE SMOOTH",
"438 458 OFFCURVE",
"436 414 OFFCURVE",
"430 362 CURVE SMOOTH"
);
}
);
width = 585;
}
);
note = zero;
unicode = 0030;
},
{
glyphname = one;
layers = (
{
layerId = "A0CD44AA-8F44-4864-B482-F84B7650FD25";
paths = (
{
closed = 1;
nodes = (
"404 84 OFFCURVE",
"368 88 OFFCURVE",
"302 93 CURVE",
"379 724 LINE",
"278 724 LINE",
"34 537 LINE",
"67 483 LINE",
"69 479 OFFCURVE",
"73 476 OFFCURVE",
"78 473 CURVE SMOOTH",
"83 470 OFFCURVE",
"89 469 OFFCURVE",
"96 469 CURVE SMOOTH",
"100 469 OFFCURVE",
"104 470 OFFCURVE",
"109 471 CURVE SMOOTH",
"114 472 OFFCURVE",
"118 475 OFFCURVE",
"123 479 CURVE SMOOTH",
"238 566 LINE",
"235 548 OFFCURVE",
"232 530 OFFCURVE",
"230 514 CURVE SMOOTH",
"178 94 LINE",
"100 88 OFFCURVE",
"58 84 OFFCURVE",
"51 83 CURVE",
"37 80 OFFCURVE",
"30 72 OFFCURVE",
"28 58 CURVE SMOOTH",
"20 0 LINE",
"217 0 LINE",
"224 0 LINE",
"420 0 LINE",
"428 58 LINE SMOOTH",
"430 72 OFFCURVE",
"423 80 OFFCURVE",
"410 83 CURVE"
);
}
);
width = 449;
}
);
note = one;
unicode = 0031;
},
{
glyphname = two;
layers = (
{
layerId = "A0CD44AA-8F44-4864-B482-F84B7650FD25";
paths = (
{
closed = 1;
nodes = (
"541 108 LINE",
"550 178 LINE",
"497 178 LINE SMOOTH",
"484 178 OFFCURVE",
"475 172 OFFCURVE",
"471 160 CURVE",
"470 156 OFFCURVE",
"466 141 OFFCURVE",
"461 115 CURVE",
"302 115 LINE SMOOTH",
"288 115 OFFCURVE",
"273 113 OFFCURVE",
"257 111 CURVE",
"241 108 OFFCURVE",
"226 105 OFFCURVE",
"209 100 CURVE",
"392 267 LINE SMOOTH",
"414 287 OFFCURVE",
"435 307 OFFCURVE",
"455 326 CURVE SMOOTH",
"475 345 OFFCURVE",
"493 365 OFFCURVE",
"509 386 CURVE SMOOTH",
"525 407 OFFCURVE",
"537 428 OFFCURVE",
"548 451 CURVE SMOOTH",
"559 474 OFFCURVE",
"566 498 OFFCURVE",
"569 525 CURVE SMOOTH",
"573 556 OFFCURVE",
"571 584 OFFCURVE",
"563 609 CURVE SMOOTH",
"555 634 OFFCURVE",
"542 656 OFFCURVE",
"525 674 CURVE SMOOTH",
"508 692 OFFCURVE",
"485 706 OFFCURVE",
"459 716 CURVE SMOOTH",
"433 726 OFFCURVE",
"402 731 OFFCURVE",
"369 731 CURVE SMOOTH",
"337 731 OFFCURVE",
"307 727 OFFCURVE",
"278 718 CURVE SMOOTH",
"249 709 OFFCURVE",
"223 695 OFFCURVE",
"199 678 CURVE SMOOTH",
"175 660 OFFCURVE",
"155 639 OFFCURVE",
"137 613 CURVE SMOOTH",
"119 587 OFFCURVE",
"106 556 OFFCURVE",
"97 521 CURVE",
"161 510 LINE SMOOTH",
"167 509 OFFCURVE",
"172 508 OFFCURVE",
"177 508 CURVE SMOOTH",
"188 508 OFFCURVE",
"198 512 OFFCURVE",
"206 517 CURVE SMOOTH",
"214 522 OFFCURVE",
"221 531 OFFCURVE",
"226 544 CURVE",
"237 569 OFFCURVE",
"252 589 OFFCURVE",
"273 604 CURVE SMOOTH",
"294 619 OFFCURVE",
"319 627 OFFCURVE",
"349 627 CURVE SMOOTH",
"365 627 OFFCURVE",
"380 624 OFFCURVE",
"392 620 CURVE SMOOTH",
"404 616 OFFCURVE",
"415 609 OFFCURVE",
"423 600 CURVE SMOOTH",
"431 591 OFFCURVE",
"437 580 OFFCURVE",
"440 567 CURVE SMOOTH",
"443 554 OFFCURVE",
"444 538 OFFCURVE",
"442 521 CURVE SMOOTH",
"440 502 OFFCURVE",
"435 484 OFFCURVE",
"428 467 CURVE SMOOTH",
"421 450 OFFCURVE",
"411 433 OFFCURVE",
"399 416 CURVE SMOOTH",
"387 399 OFFCURVE",
"373 382 OFFCURVE",
"356 365 CURVE SMOOTH",
"339 348 OFFCURVE",
"321 331 OFFCURVE",
"300 312 CURVE SMOOTH",
"54 92 LINE SMOOTH",
"45 84 OFFCURVE",
"39 76 OFFCURVE",
"34 67 CURVE SMOOTH",
"29 58 OFFCURVE",
"27 49 OFFCURVE",
"26 41 CURVE SMOOTH",
"20 0 LINE",
"487 0 LINE",
"516 0 LINE",
"528 0 LINE"
);
}
);
width = 592;
}
);
note = two;
unicode = 0032;
},
{
glyphname = three;
layers = (
{
layerId = "A0CD44AA-8F44-4864-B482-F84B7650FD25";
paths = (
{
closed = 1;
nodes = (
"323 731 OFFCURVE",
"292 727 OFFCURVE",
"263 718 CURVE SMOOTH",
"234 709 OFFCURVE",
"208 696 OFFCURVE",
"184 678 CURVE SMOOTH",
"160 660 OFFCURVE",
"141 639 OFFCURVE",
"123 613 CURVE SMOOTH",
"105 587 OFFCURVE",
"92 557 OFFCURVE",
"83 522 CURVE",
"146 510 LINE SMOOTH",
"152 509 OFFCURVE",
"158 508 OFFCURVE",
"163 508 CURVE SMOOTH",
"174 508 OFFCURVE",
"183 511 OFFCURVE",
"191 517 CURVE SMOOTH",
"199 523 OFFCURVE",
"205 531 OFFCURVE",
"211 544 CURVE SMOOTH",
"222 568 OFFCURVE",
"238 588 OFFCURVE",
"259 604 CURVE SMOOTH",
"280 620 OFFCURVE",
"306 627 OFFCURVE",
"335 627 CURVE SMOOTH",
"367 627 OFFCURVE",
"391 619 OFFCURVE",
"408 601 CURVE SMOOTH",
"425 583 OFFCURVE",
"431 557 OFFCURVE",
"427 523 CURVE SMOOTH",
"425 507 OFFCURVE",
"420 492 OFFCURVE",
"414 479 CURVE SMOOTH",
"408 466 OFFCURVE",
"398 455 OFFCURVE",
"385 445 CURVE",
"372 436 OFFCURVE",
"356 427 OFFCURVE",
"335 422 CURVE SMOOTH",
"314 417 OFFCURVE",
"288 414 OFFCURVE",
"258 414 CURVE",
"247 326 LINE",
"284 326 OFFCURVE",
"313 324 OFFCURVE",
"334 318 CURVE SMOOTH",
"355 312 OFFCURVE",
"372 304 OFFCURVE",
"382 294 CURVE SMOOTH",
"392 284 OFFCURVE",
"398 272 OFFCURVE",
"400 258 CURVE SMOOTH",
"402 244 OFFCURVE",
"402 227 OFFCURVE",
"400 210 CURVE SMOOTH",
"398 196 OFFCURVE",
"394 184 OFFCURVE",
"387 170 CURVE SMOOTH",
"380 156 OFFCURVE",
"371 144 OFFCURVE",
"359 133 CURVE SMOOTH",
"347 122 OFFCURVE",
"334 113 OFFCURVE",
"317 106 CURVE SMOOTH",
"300 99 OFFCURVE",
"281 96 OFFCURVE",
"260 96 CURVE SMOOTH",
"241 96 OFFCURVE",
"226 98 OFFCURVE",
"213 104 CURVE SMOOTH",
"200 110 OFFCURVE",
"189 117 OFFCURVE",
"180 126 CURVE SMOOTH",
"171 135 OFFCURVE",
"164 145 OFFCURVE",
"158 156 CURVE SMOOTH",
"152 167 OFFCURVE",
"148 178 OFFCURVE",
"143 190 CURVE SMOOTH",
"140 197 OFFCURVE",
"135 202 OFFCURVE",
"129 206 CURVE SMOOTH",
"123 210 OFFCURVE",
"115 212 OFFCURVE",
"106 212 CURVE SMOOTH",
"96 212 OFFCURVE",
"87 210 OFFCURVE",
"77 206 CURVE SMOOTH",
"20 184 LINE",
"26 153 OFFCURVE",
"35 126 OFFCURVE",
"46 102 CURVE SMOOTH",
"57 78 OFFCURVE",
"72 58 OFFCURVE",
"90 42 CURVE SMOOTH",
"108 26 OFFCURVE",
"130 12 OFFCURVE",
"156 4 CURVE SMOOTH",
"182 -4 OFFCURVE",
"213 -8 OFFCURVE",
"249 -8 CURVE SMOOTH",
"282 -8 OFFCURVE",
"315 -4 OFFCURVE",
"346 6 CURVE SMOOTH",
"377 16 OFFCURVE",
"405 30 OFFCURVE",
"430 49 CURVE SMOOTH",
"455 68 OFFCURVE",
"475 91 OFFCURVE",
"492 119 CURVE SMOOTH",
"509 147 OFFCURVE",
"520 178 OFFCURVE",
"524 214 CURVE SMOOTH",
"529 256 OFFCURVE",
"523 292 OFFCURVE",
"505 320 CURVE SMOOTH",
"487 348 OFFCURVE",
"457 368 OFFCURVE",
"415 382 CURVE",
"434 388 OFFCURVE",
"451 396 OFFCURVE",
"466 405 CURVE SMOOTH",
"481 414 OFFCURVE",
"495 425 OFFCURVE",
"506 438 CURVE SMOOTH",
"517 451 OFFCURVE",
"528 466 OFFCURVE",
"535 484 CURVE SMOOTH",
"542 502 OFFCURVE",
"547 521 OFFCURVE",
"550 544 CURVE SMOOTH",
"553 570 OFFCURVE",
"551 595 OFFCURVE",
"544 618 CURVE SMOOTH",
"537 641 OFFCURVE",
"524 660 OFFCURVE",
"507 677 CURVE SMOOTH",
"490 694 OFFCURVE",
"469 707 OFFCURVE",
"443 717 CURVE SMOOTH",
"417 727 OFFCURVE",
"388 731 OFFCURVE",
"355 731 CURVE SMOOTH"
);
}
);
width = 573;
}
);
note = three;
unicode = 0033;
},
{
glyphname = four;
layers = (
{
layerId = "A0CD44AA-8F44-4864-B482-F84B7650FD25";
paths = (
{
closed = 1;
nodes = (
"481 272 LINE",
"537 724 LINE",
"420 724 LINE",
"21 266 LINE",
"26 204 LINE",
"27 196 OFFCURVE",
"29 189 OFFCURVE",
"35 184 CURVE SMOOTH",
"41 179 OFFCURVE",
"49 176 OFFCURVE",
"57 176 CURVE SMOOTH",
"362 176 LINE",
"340 0 LINE",
"448 0 LINE",
"470 176 LINE",
"535 176 LINE SMOOTH",
"543 176 OFFCURVE",
"550 179 OFFCURVE",
"555 184 CURVE SMOOTH",
"560 189 OFFCURVE",
"563 194 OFFCURVE",
"564 201 CURVE SMOOTH",
"572 272 LINE"
);
},
{
closed = 1;
nodes = (
"373 272 LINE",
"153 272 LINE",
"416 582 LINE",
"413 569 OFFCURVE",
"410 556 OFFCURVE",
"408 544 CURVE SMOOTH",
"406 532 OFFCURVE",
"403 520 OFFCURVE",
"402 509 CURVE SMOOTH"
);
}
);
width = 594;
}
);
note = four;
unicode = 0034;
},
{
glyphname = five;
layers = (
{
layerId = "A0CD44AA-8F44-4864-B482-F84B7650FD25";
paths = (
{
closed = 1;
nodes = (
"556 723 LINE",
"199 723 LINE",
"96 372 LINE",
"171 350 LINE",
"208 363 OFFCURVE",
"243 369 OFFCURVE",
"278 369 CURVE SMOOTH",
"322 369 OFFCURVE",
"355 358 OFFCURVE",
"375 336 CURVE SMOOTH",
"395 314 OFFCURVE",
"403 283 OFFCURVE",
"398 244 CURVE SMOOTH",
"395 223 OFFCURVE",
"390 202 OFFCURVE",
"382 184 CURVE SMOOTH",
"374 166 OFFCURVE",
"363 150 OFFCURVE",
"350 137 CURVE SMOOTH",
"337 124 OFFCURVE",
"321 113 OFFCURVE",
"303 106 CURVE SMOOTH",
"285 99 OFFCURVE",
"265 96 OFFCURVE",
"242 96 CURVE SMOOTH",
"221 96 OFFCURVE",
"202 99 OFFCURVE",
"188 104 CURVE SMOOTH",
"174 109 OFFCURVE",
"162 115 OFFCURVE",
"151 121 CURVE SMOOTH",
"140 127 OFFCURVE",
"131 134 OFFCURVE",
"123 139 CURVE SMOOTH",
"115 144 OFFCURVE",
"107 147 OFFCURVE",
"99 147 CURVE SMOOTH",
"86 147 OFFCURVE",
"74 141 OFFCURVE",
"65 130 CURVE SMOOTH",
"20 77 LINE",
"31 66 OFFCURVE",
"43 55 OFFCURVE",
"57 45 CURVE SMOOTH",
"71 35 OFFCURVE",
"86 26 OFFCURVE",
"103 18 CURVE SMOOTH",
"120 10 OFFCURVE",
"138 4 OFFCURVE",
"158 -1 CURVE SMOOTH",
"178 -6 OFFCURVE",
"199 -8 OFFCURVE",
"222 -8 CURVE SMOOTH",
"261 -8 OFFCURVE",
"298 -1 OFFCURVE",
"332 11 CURVE SMOOTH",
"366 23 OFFCURVE",
"396 41 OFFCURVE",
"423 63 CURVE SMOOTH",
"450 85 OFFCURVE",
"472 112 OFFCURVE",
"489 144 CURVE SMOOTH",
"506 176 OFFCURVE",
"518 211 OFFCURVE",
"523 249 CURVE SMOOTH",
"527 280 OFFCURVE",
"525 309 OFFCURVE",
"518 336 CURVE SMOOTH",
"511 363 OFFCURVE",
"499 386 OFFCURVE",
"482 406 CURVE SMOOTH",
"465 426 OFFCURVE",
"442 442 OFFCURVE",
"415 453 CURVE SMOOTH",
"388 464 OFFCURVE",
"355 470 OFFCURVE",
"317 470 CURVE SMOOTH",
"290 470 OFFCURVE",
"260 467 OFFCURVE",
"227 460 CURVE",
"271 611 LINE",
"470 611 LINE SMOOTH",
"496 611 OFFCURVE",
"515 617 OFFCURVE",
"528 628 CURVE SMOOTH",
"541 639 OFFCURVE",
"548 652 OFFCURVE",
"550 670 CURVE SMOOTH"
);
}
);
width = 577;
}
);
note = five;
unicode = 0035;
},
{
glyphname = six;
layers = (
{
layerId = "A0CD44AA-8F44-4864-B482-F84B7650FD25";
paths = (
{
closed = 1;
nodes = (
"321 452 OFFCURVE",
"304 450 OFFCURVE",
"287 446 CURVE SMOOTH",
"270 442 OFFCURVE",
"255 436 OFFCURVE",
"240 429 CURVE",
"245 434 OFFCURVE",
"249 439 OFFCURVE",
"254 444 CURVE SMOOTH",
"259 449 OFFCURVE",
"264 454 OFFCURVE",
"269 460 CURVE",
"516 723 LINE",
"406 723 LINE SMOOTH",
"391 723 OFFCURVE",
"377 720 OFFCURVE",
"365 714 CURVE SMOOTH",
"353 708 OFFCURVE",
"343 702 OFFCURVE",
"336 694 CURVE SMOOTH",
"135 462 LINE SMOOTH",
"101 423 OFFCURVE",
"75 387 OFFCURVE",
"57 351 CURVE SMOOTH",
"39 315 OFFCURVE",
"28 280 OFFCURVE",
"24 246 CURVE SMOOTH",
"19 208 OFFCURVE",
"20 173 OFFCURVE",
"28 142 CURVE SMOOTH",
"36 111 OFFCURVE",
"49 84 OFFCURVE",
"68 62 CURVE SMOOTH",
"87 40 OFFCURVE",
"111 22 OFFCURVE",
"140 10 CURVE SMOOTH",
"169 -2 OFFCURVE",
"203 -8 OFFCURVE",
"242 -8 CURVE SMOOTH",
"280 -8 OFFCURVE",
"316 -2 OFFCURVE",
"349 11 CURVE SMOOTH",
"382 24 OFFCURVE",
"411 41 OFFCURVE",
"436 63 CURVE SMOOTH",
"461 85 OFFCURVE",
"481 110 OFFCURVE",
"497 140 CURVE SMOOTH",
"513 170 OFFCURVE",
"523 201 OFFCURVE",
"527 235 CURVE SMOOTH",
"531 271 OFFCURVE",
"530 303 OFFCURVE",
"521 330 CURVE SMOOTH",
"512 357 OFFCURVE",
"499 379 OFFCURVE",
"482 397 CURVE SMOOTH",
"465 415 OFFCURVE",
"443 429 OFFCURVE",
"418 438 CURVE SMOOTH",
"393 447 OFFCURVE",
"367 452 OFFCURVE",
"340 452 CURVE SMOOTH"
);
},
{
closed = 1;
nodes = (
"142 246 OFFCURVE",
"147 263 OFFCURVE",
"155 279 CURVE SMOOTH",
"163 295 OFFCURVE",
"174 309 OFFCURVE",
"187 321 CURVE SMOOTH",
"200 333 OFFCURVE",
"215 342 OFFCURVE",
"232 349 CURVE SMOOTH",
"249 356 OFFCURVE",
"267 359 OFFCURVE",
"287 359 CURVE SMOOTH",
"307 359 OFFCURVE",
"323 356 OFFCURVE",
"339 350 CURVE SMOOTH",
"355 344 OFFCURVE",
"368 336 OFFCURVE",
"378 324 CURVE SMOOTH",
"388 312 OFFCURVE",
"396 298 OFFCURVE",
"400 282 CURVE SMOOTH",
"404 266 OFFCURVE",
"406 247 OFFCURVE",
"403 226 CURVE",
"401 207 OFFCURVE",
"395 189 OFFCURVE",
"386 173 CURVE SMOOTH",
"377 157 OFFCURVE",
"366 143 OFFCURVE",
"353 131 CURVE SMOOTH",
"340 119 OFFCURVE",
"324 110 OFFCURVE",
"307 103 CURVE SMOOTH",
"290 96 OFFCURVE",
"272 93 OFFCURVE",
"252 93 CURVE SMOOTH",
"231 93 OFFCURVE",
"213 97 OFFCURVE",
"198 103 CURVE SMOOTH",
"183 109 OFFCURVE",
"170 118 OFFCURVE",
"161 130 CURVE SMOOTH",
"152 142 OFFCURVE",
"144 156 OFFCURVE",
"141 172 CURVE SMOOTH",
"138 188 OFFCURVE",
"138 207 OFFCURVE",
"140 227 CURVE SMOOTH"
);
}
);
width = 552;
}
);
note = six;
unicode = 0036;
},
{
glyphname = seven;
layers = (
{
layerId = "A0CD44AA-8F44-4864-B482-F84B7650FD25";
paths = (
{
closed = 1;
nodes = (
"53 723 LINE",
"43 639 LINE",
"43 638 LINE",
"43 637 LINE",
"30 530 LINE",
"83 530 LINE SMOOTH",
"96 530 OFFCURVE",
"104 536 OFFCURVE",
"108 548 CURVE SMOOTH",
"111 558 OFFCURVE",
"116 579 OFFCURVE",
"123 611 CURVE",
"414 611 LINE",
"398 595 OFFCURVE",
"382 575 OFFCURVE",
"368 552 CURVE SMOOTH",
"20 0 LINE",
"110 0 LINE SMOOTH",
"128 0 OFFCURVE",
"142 4 OFFCURVE",
"153 12 CURVE SMOOTH",
"164 20 OFFCURVE",
"174 30 OFFCURVE",
"181 42 CURVE SMOOTH",
"523 606 LINE SMOOTH",
"527 613 OFFCURVE",
"532 621 OFFCURVE",
"537 631 CURVE SMOOTH",
"542 641 OFFCURVE",
"545 654 OFFCURVE",
"547 670 CURVE SMOOTH",
"553 723 LINE"
);
}
);
width = 574;
}
);
note = seven;
unicode = 0037;
},
{
glyphname = eight;
layers = (
{
layerId = "A0CD44AA-8F44-4864-B482-F84B7650FD25";
paths = (
{
closed = 1;
nodes = (
"284 -8 OFFCURVE",
"319 -3 OFFCURVE",
"351 7 CURVE SMOOTH",
"383 17 OFFCURVE",
"411 32 OFFCURVE",
"435 50 CURVE SMOOTH",
"459 68 OFFCURVE",
"480 90 OFFCURVE",
"495 116 CURVE SMOOTH",
"510 142 OFFCURVE",
"520 171 OFFCURVE",
"524 203 CURVE SMOOTH",
"529 246 OFFCURVE",
"523 281 OFFCURVE",
"506 311 CURVE SMOOTH",
"489 341 OFFCURVE",
"459 363 OFFCURVE",
"416 377 CURVE",
"453 392 OFFCURVE",
"481 413 OFFCURVE",
"502 440 CURVE SMOOTH",
"523 467 OFFCURVE",
"536 499 OFFCURVE",
"541 537 CURVE SMOOTH",
"544 564 OFFCURVE",
"541 590 OFFCURVE",
"533 614 CURVE SMOOTH",
"525 638 OFFCURVE",
"512 657 OFFCURVE",
"494 675 CURVE SMOOTH",
"476 692 OFFCURVE",
"455 706 OFFCURVE",
"428 716 CURVE SMOOTH",
"401 726 OFFCURVE",
"371 731 OFFCURVE",
"338 731 CURVE SMOOTH",
"305 731 OFFCURVE",
"273 726 OFFCURVE",
"244 716 CURVE SMOOTH",
"215 706 OFFCURVE",
"189 693 OFFCURVE",
"167 675 CURVE SMOOTH",
"145 658 OFFCURVE",
"127 638 OFFCURVE",
"113 614 CURVE SMOOTH",
"99 590 OFFCURVE",
"90 564 OFFCURVE",
"87 537 CURVE SMOOTH",
"82 499 OFFCURVE",
"87 467 OFFCURVE",
"101 440 CURVE SMOOTH",
"115 413 OFFCURVE",
"139 392 OFFCURVE",
"173 377 CURVE",
"127 363 OFFCURVE",
"92 341 OFFCURVE",
"67 311 CURVE SMOOTH",
"42 281 OFFCURVE",
"27 246 OFFCURVE",
"22 203 CURVE SMOOTH",
"18 171 OFFCURVE",
"20 142 OFFCURVE",
"29 116 CURVE SMOOTH",
"38 90 OFFCURVE",
"52 68 OFFCURVE",
"72 50 CURVE SMOOTH",
"92 32 OFFCURVE",
"116 17 OFFCURVE",
"146 7 CURVE SMOOTH",
"176 -3 OFFCURVE",
"210 -8 OFFCURVE",
"247 -8 CURVE SMOOTH"
);
},
{
closed = 1;
nodes = (
"239 88 OFFCURVE",
"221 91 OFFCURVE",
"206 97 CURVE SMOOTH",
"191 103 OFFCURVE",
"180 112 OFFCURVE",
"171 122 CURVE SMOOTH",
"162 132 OFFCURVE",
"155 144 OFFCURVE",
"151 158 CURVE SMOOTH",
"147 172 OFFCURVE",
"147 188 OFFCURVE",
"149 205 CURVE SMOOTH",
"154 245 OFFCURVE",
"169 275 OFFCURVE",
"193 295 CURVE SMOOTH",
"217 315 OFFCURVE",
"249 326 OFFCURVE",
"288 326 CURVE SMOOTH",
"327 326 OFFCURVE",
"355 315 OFFCURVE",
"375 295 CURVE SMOOTH",
"395 275 OFFCURVE",
"402 245 OFFCURVE",
"397 205 CURVE SMOOTH",
"395 188 OFFCURVE",
"390 172 OFFCURVE",
"383 158 CURVE SMOOTH",
"376 144 OFFCURVE",
"367 132 OFFCURVE",
"355 122 CURVE SMOOTH",
"343 112 OFFCURVE",
"329 103 OFFCURVE",
"313 97 CURVE SMOOTH",
"297 91 OFFCURVE",
"279 88 OFFCURVE",
"259 88 CURVE SMOOTH"
);
},
{
closed = 1;
nodes = (
"280 422 OFFCURVE",
"263 426 OFFCURVE",
"250 432 CURVE SMOOTH",
"237 438 OFFCURVE",
"228 447 OFFCURVE",
"221 457 CURVE SMOOTH",
"214 467 OFFCURVE",
"209 479 OFFCURVE",
"207 493 CURVE SMOOTH",
"205 506 OFFCURVE",
"205 521 OFFCURVE",
"207 535 CURVE SMOOTH",
"209 549 OFFCURVE",
"212 562 OFFCURVE",
"218 574 CURVE SMOOTH",
"224 586 OFFCURVE",
"232 597 OFFCURVE",
"242 607 CURVE SMOOTH",
"252 617 OFFCURVE",
"264 623 OFFCURVE",
"278 629 CURVE SMOOTH",
"292 635 OFFCURVE",
"308 638 OFFCURVE",
"326 638 CURVE SMOOTH",
"344 638 OFFCURVE",
"360 635 OFFCURVE",
"373 629 CURVE SMOOTH",
"386 623 OFFCURVE",
"395 617 OFFCURVE",
"403 607 CURVE SMOOTH",
"411 597 OFFCURVE",
"415 586 OFFCURVE",
"418 574 CURVE SMOOTH",
"421 562 OFFCURVE",
"422 549 OFFCURVE",
"420 535 CURVE SMOOTH",
"418 521 OFFCURVE",
"415 507 OFFCURVE",
"410 493 CURVE SMOOTH",
"405 479 OFFCURVE",
"398 467 OFFCURVE",
"388 457 CURVE SMOOTH",
"378 447 OFFCURVE",
"365 438 OFFCURVE",
"351 432 CURVE SMOOTH",
"337 426 OFFCURVE",
"320 422 OFFCURVE",
"300 422 CURVE SMOOTH"
);
}
);
width = 564;
}
);
note = eight;
unicode = 0038;
},
{
glyphname = nine;
layers = (
{
layerId = "A0CD44AA-8F44-4864-B482-F84B7650FD25";
paths = (
{
closed = 1;
nodes = (
"221 288 OFFCURVE",
"242 291 OFFCURVE",
"263 297 CURVE",
"284 302 OFFCURVE",
"303 310 OFFCURVE",
"321 321 CURVE",
"316 314 OFFCURVE",
"310 308 OFFCURVE",
"304 301 CURVE SMOOTH",
"298 294 OFFCURVE",
"293 287 OFFCURVE",
"286 280 CURVE",
"27 0 LINE",
"140 0 LINE SMOOTH",
"154 0 OFFCURVE",
"167 2 OFFCURVE",
"179 8 CURVE SMOOTH",
"191 14 OFFCURVE",
"200 20 OFFCURVE",
"207 28 CURVE SMOOTH",
"402 264 LINE SMOOTH",
"417 282 OFFCURVE",
"430 299 OFFCURVE",
"442 317 CURVE SMOOTH",
"454 335 OFFCURVE",
"465 353 OFFCURVE",
"474 371 CURVE SMOOTH",
"483 389 OFFCURVE",
"492 409 OFFCURVE",
"498 429 CURVE SMOOTH",
"504 449 OFFCURVE",
"508 471 OFFCURVE",
"511 493 CURVE SMOOTH",
"515 528 OFFCURVE",
"514 560 OFFCURVE",
"506 589 CURVE SMOOTH",
"498 618 OFFCURVE",
"486 643 OFFCURVE",
"468 664 CURVE SMOOTH",
"450 685 OFFCURVE",
"426 702 OFFCURVE",
"398 714 CURVE SMOOTH",
"370 726 OFFCURVE",
"337 731 OFFCURVE",
"300 731 CURVE SMOOTH",
"263 731 OFFCURVE",
"230 724 OFFCURVE",
"198 712 CURVE SMOOTH",
"166 700 OFFCURVE",
"138 683 OFFCURVE",
"114 662 CURVE SMOOTH",
"90 641 OFFCURVE",
"69 616 OFFCURVE",
"54 588 CURVE SMOOTH",
"39 560 OFFCURVE",
"29 528 OFFCURVE",
"25 496 CURVE SMOOTH",
"21 461 OFFCURVE",
"23 432 OFFCURVE",
"31 406 CURVE SMOOTH",
"39 380 OFFCURVE",
"51 359 OFFCURVE",
"68 341 CURVE SMOOTH",
"85 323 OFFCURVE",
"104 311 OFFCURVE",
"127 302 CURVE SMOOTH",
"150 293 OFFCURVE",
"174 288 OFFCURVE",
"199 288 CURVE SMOOTH"
);
},
{
closed = 1;
nodes = (
"392 488 OFFCURVE",
"387 471 OFFCURVE",
"380 456 CURVE SMOOTH",
"373 441 OFFCURVE",
"363 429 OFFCURVE",
"351 418 CURVE SMOOTH",
"339 407 OFFCURVE",
"325 398 OFFCURVE",
"309 392 CURVE SMOOTH",
"293 386 OFFCURVE",
"274 382 OFFCURVE",
"254 382 CURVE SMOOTH",
"216 382 OFFCURVE",
"187 393 OFFCURVE",
"169 414 CURVE SMOOTH",
"151 435 OFFCURVE",
"144 466 OFFCURVE",
"149 506 CURVE SMOOTH",
"151 524 OFFCURVE",
"156 541 OFFCURVE",
"164 556 CURVE SMOOTH",
"172 571 OFFCURVE",
"181 584 OFFCURVE",
"193 595 CURVE SMOOTH",
"205 606 OFFCURVE",
"218 615 OFFCURVE",
"234 621 CURVE SMOOTH",
"250 627 OFFCURVE",
"267 630 OFFCURVE",
"286 630 CURVE SMOOTH",
"304 630 OFFCURVE",
"321 628 OFFCURVE",
"335 622 CURVE SMOOTH",
"349 616 OFFCURVE",
"361 608 OFFCURVE",
"371 597 CURVE SMOOTH",
"381 586 OFFCURVE",
"388 574 OFFCURVE",
"392 558 CURVE SMOOTH",
"396 543 OFFCURVE",
"396 525 OFFCURVE",
"394 505 CURVE SMOOTH"
);
}
);
width = 535;
}
);
note = nine;
unicode = 0039;
},
{
glyphname = colon;
layers = (
{
layerId = "A0CD44AA-8F44-4864-B482-F84B7650FD25";
paths = (
{
closed = 1;
nodes = (
"23 57 OFFCURVE",
"23 47 OFFCURVE",
"26 38 CURVE SMOOTH",
"29 29 OFFCURVE",
"33 22 OFFCURVE",
"39 15 CURVE SMOOTH",
"45 8 OFFCURVE",
"53 3 OFFCURVE",
"62 -1 CURVE SMOOTH",
"71 -5 OFFCURVE",
"80 -7 OFFCURVE",
"91 -7 CURVE SMOOTH",
"101 -7 OFFCURVE",
"111 -5 OFFCURVE",
"121 -1 CURVE SMOOTH",
"131 3 OFFCURVE",
"140 8 OFFCURVE",
"147 15 CURVE SMOOTH",
"154 22 OFFCURVE",
"161 29 OFFCURVE",
"166 38 CURVE SMOOTH",
"171 47 OFFCURVE",
"175 57 OFFCURVE",
"176 68 CURVE SMOOTH",
"177 78 OFFCURVE",
"176 89 OFFCURVE",
"173 98 CURVE SMOOTH",
"170 107 OFFCURVE",
"166 115 OFFCURVE",
"160 122 CURVE SMOOTH",
"154 129 OFFCURVE",
"147 134 OFFCURVE",
"138 138 CURVE SMOOTH",
"129 142 OFFCURVE",
"119 144 OFFCURVE",
"109 144 CURVE SMOOTH",
"98 144 OFFCURVE",
"89 142 OFFCURVE",
"79 138 CURVE SMOOTH",
"69 134 OFFCURVE",
"60 129 OFFCURVE",
"52 122 CURVE SMOOTH",
"44 115 OFFCURVE",
"39 107 OFFCURVE",
"34 98 CURVE SMOOTH",
"29 89 OFFCURVE",
"25 78 OFFCURVE",
"24 68 CURVE SMOOTH"
);
},
{
closed = 1;
nodes = (
"67 413 OFFCURVE",
"67 404 OFFCURVE",
"70 395 CURVE SMOOTH",
"73 386 OFFCURVE",
"77 378 OFFCURVE",
"83 371 CURVE SMOOTH",
"89 364 OFFCURVE",
"96 359 OFFCURVE",
"105 355 CURVE SMOOTH",
"114 351 OFFCURVE",
"124 350 OFFCURVE",
"135 350 CURVE SMOOTH",
"145 350 OFFCURVE",
"155 351 OFFCURVE",
"165 355 CURVE SMOOTH",
"175 359 OFFCURVE",
"184 364 OFFCURVE",
"191 371 CURVE SMOOTH",
"198 378 OFFCURVE",
"205 386 OFFCURVE",
"210 395 CURVE SMOOTH",
"215 404 OFFCURVE",
"218 414 OFFCURVE",
"219 425 CURVE SMOOTH",
"220 435 OFFCURVE",
"220 445 OFFCURVE",
"217 454 CURVE SMOOTH",
"214 463 OFFCURVE",
"210 471 OFFCURVE",
"204 478 CURVE SMOOTH",
"198 485 OFFCURVE",
"191 490 OFFCURVE",
"182 494 CURVE SMOOTH",
"173 498 OFFCURVE",
"163 500 OFFCURVE",
"153 500 CURVE SMOOTH",
"142 500 OFFCURVE",
"132 498 OFFCURVE",
"122 494 CURVE SMOOTH",
"112 490 OFFCURVE",
"104 485 OFFCURVE",
"96 478 CURVE SMOOTH",
"88 471 OFFCURVE",
"82 463 OFFCURVE",
"77 454 CURVE SMOOTH",
"72 445 OFFCURVE",
"69 434 OFFCURVE",
"68 424 CURVE SMOOTH"
);
}
);
width = 243;
}
);
note = colon;
unicode = 003A;
},
{
glyphname = semicolon;
layers = (
{
layerId = "A0CD44AA-8F44-4864-B482-F84B7650FD25";
paths = (
{
closed = 1;
nodes = (
"36 65 OFFCURVE",
"37 55 OFFCURVE",
"39 46 CURVE SMOOTH",
"41 37 OFFCURVE",
"46 30 OFFCURVE",
"51 23 CURVE SMOOTH",
"56 16 OFFCURVE",
"63 11 OFFCURVE",
"71 7 CURVE SMOOTH",
"79 3 OFFCURVE",
"89 2 OFFCURVE",
"99 2 CURVE",
"96 -8 OFFCURVE",
"91 -18 OFFCURVE",
"85 -27 CURVE SMOOTH",
"79 -36 OFFCURVE",
"74 -43 OFFCURVE",
"68 -51 CURVE SMOOTH",
"62 -59 OFFCURVE",
"55 -65 OFFCURVE",
"49 -71 CURVE SMOOTH",
"34 -86 LINE SMOOTH",
"31 -89 OFFCURVE",
"28 -92 OFFCURVE",
"26 -95 CURVE SMOOTH",
"24 -98 OFFCURVE",
"22 -101 OFFCURVE",
"22 -104 CURVE",
"21 -111 OFFCURVE",
"24 -117 OFFCURVE",
"29 -122 CURVE SMOOTH",
"48 -142 LINE",
"67 -128 OFFCURVE",
"85 -113 OFFCURVE",
"101 -96 CURVE SMOOTH",
"117 -79 OFFCURVE",
"129 -62 OFFCURVE",
"141 -44 CURVE SMOOTH",
"153 -26 OFFCURVE",
"162 -10 OFFCURVE",
"169 8 CURVE SMOOTH",
"176 26 OFFCURVE",
"181 43 OFFCURVE",
"183 59 CURVE SMOOTH",
"184 70 OFFCURVE",
"184 81 OFFCURVE",
"182 91 CURVE SMOOTH",
"180 101 OFFCURVE",
"176 110 OFFCURVE",
"171 118 CURVE SMOOTH",
"166 126 OFFCURVE",
"159 133 OFFCURVE",
"150 137 CURVE SMOOTH",
"141 141 OFFCURVE",
"131 143 OFFCURVE",
"118 143 CURVE SMOOTH",
"107 143 OFFCURVE",
"97 142 OFFCURVE",
"88 138 CURVE SMOOTH",
"79 134 OFFCURVE",
"70 130 OFFCURVE",
"63 124 CURVE SMOOTH",
"56 118 OFFCURVE",
"51 110 OFFCURVE",
"46 102 CURVE SMOOTH",
"41 94 OFFCURVE",
"38 85 OFFCURVE",
"37 76 CURVE SMOOTH"
);
},
{
closed = 1;
nodes = (
"76 413 OFFCURVE",
"76 404 OFFCURVE",
"79 395 CURVE SMOOTH",
"82 386 OFFCURVE",
"86 378 OFFCURVE",
"92 371 CURVE SMOOTH",
"98 364 OFFCURVE",
"105 359 OFFCURVE",
"114 355 CURVE SMOOTH",
"123 351 OFFCURVE",
"132 350 OFFCURVE",
"143 350 CURVE SMOOTH",
"153 350 OFFCURVE",
"164 351 OFFCURVE",
"174 355 CURVE SMOOTH",
"184 359 OFFCURVE",
"193 364 OFFCURVE",
"200 371 CURVE SMOOTH",
"207 378 OFFCURVE",
"213 386 OFFCURVE",
"218 395 CURVE SMOOTH",
"223 404 OFFCURVE",
"227 413 OFFCURVE",
"228 424 CURVE SMOOTH",
"229 434 OFFCURVE",
"229 445 OFFCURVE",
"226 454 CURVE SMOOTH",
"223 463 OFFCURVE",
"219 471 OFFCURVE",
"213 478 CURVE SMOOTH",
"207 485 OFFCURVE",
"200 490 OFFCURVE",
"191 494 CURVE SMOOTH",
"182 498 OFFCURVE",
"172 500 OFFCURVE",
"162 500 CURVE SMOOTH",
"151 500 OFFCURVE",
"141 498 OFFCURVE",
"131 494 CURVE SMOOTH",
"121 490 OFFCURVE",
"113 485 OFFCURVE",
"105 478 CURVE SMOOTH",
"97 471 OFFCURVE",
"91 463 OFFCURVE",
"86 454 CURVE SMOOTH",
"81 445 OFFCURVE",
"78 434 OFFCURVE",
"77 424 CURVE SMOOTH"
);
}
);
width = 251;
}
);
note = semicolon;
unicode = 003B;
},
{
glyphname = less;
layers = (
{
layerId = "A0CD44AA-8F44-4864-B482-F84B7650FD25";
paths = (
{
closed = 1;
nodes = (
"30 362 LINE",
"24 312 LINE",
"395 105 LINE",
"405 193 LINE SMOOTH",
"406 200 OFFCURVE",
"406 205 OFFCURVE",
"403 211 CURVE SMOOTH",
"400 217 OFFCURVE",
"395 222 OFFCURVE",
"388 226 CURVE SMOOTH",
"218 319 LINE SMOOTH",
"211 323 OFFCURVE",
"203 326 OFFCURVE",
"195 329 CURVE SMOOTH",
"187 332 OFFCURVE",
"178 335 OFFCURVE",
"169 337 CURVE",
"179 339 OFFCURVE",
"188 342 OFFCURVE",
"197 345 CURVE SMOOTH",
"206 348 OFFCURVE",
"214 351 OFFCURVE",
"222 355 CURVE SMOOTH",
"415 448 LINE SMOOTH",
"423 452 OFFCURVE",
"429 456 OFFCURVE",
"433 462 CURVE",
"437 467 OFFCURVE",
"440 474 OFFCURVE",
"441 481 CURVE SMOOTH",
"451 569 LINE"
);
}
);
width = 475;
}
);
note = less;
unicode = 003C;
},
{
glyphname = equal;
layers = (
{
layerId = "A0CD44AA-8F44-4864-B482-F84B7650FD25";
paths = (
{
closed = 1;
nodes = (
"37 294 LINE",
"26 202 LINE",
"469 202 LINE",
"480 294 LINE"
);
},
{
closed = 1;
nodes = (
"59 470 LINE",
"48 378 LINE",
"491 378 LINE",
"502 470 LINE"
);
}
);
width = 528;
}
);
note = equal;
unicode = 003D;
},
{
glyphname = greater;
layers = (
{
layerId = "A0CD44AA-8F44-4864-B482-F84B7650FD25";
paths = (
{
closed = 1;
nodes = (
"23 105 LINE",
"444 312 LINE",
"451 362 LINE",
"80 568 LINE",
"69 480 LINE SMOOTH",
"68 473 OFFCURVE",
"69 468 OFFCURVE",
"72 462 CURVE SMOOTH",
"75 456 OFFCURVE",
"80 452 OFFCURVE",
"87 448 CURVE SMOOTH",
"257 355 LINE SMOOTH",
"264 351 OFFCURVE",
"272 348 OFFCURVE",
"280 345 CURVE SMOOTH",
"288 342 OFFCURVE",
"297 339 OFFCURVE",
"306 337 CURVE",
"286 332 OFFCURVE",
"268 326 OFFCURVE",
"252 319 CURVE",
"59 226 LINE SMOOTH",
"51 222 OFFCURVE",
"45 217 OFFCURVE",
"41 211 CURVE SMOOTH",
"37 205 OFFCURVE",
"35 200 OFFCURVE",
"34 193 CURVE SMOOTH"
);
}
);
width = 474;
}
);
note = greater;
unicode = 003E;
},
{
glyphname = question;
layers = (
{
layerId = "A0CD44AA-8F44-4864-B482-F84B7650FD25";
paths = (
{
closed = 1;
nodes = (
"47 606 LINE",
"51 596 OFFCURVE",
"59 591 OFFCURVE",
"71 591 CURVE SMOOTH",
"76 591 OFFCURVE",
"82 593 OFFCURVE",
"89 597 CURVE SMOOTH",
"96 601 OFFCURVE",
"104 606 OFFCURVE",
"114 611 CURVE SMOOTH",
"124 616 OFFCURVE",
"135 621 OFFCURVE",
"149 625 CURVE SMOOTH",
"163 629 OFFCURVE",
"179 631 OFFCURVE",
"198 631 CURVE SMOOTH",
"211 631 OFFCURVE",
"223 630 OFFCURVE",
"234 626 CURVE SMOOTH",
"245 622 OFFCURVE",
"254 617 OFFCURVE",
"261 610 CURVE SMOOTH",
"268 603 OFFCURVE",
"273 596 OFFCURVE",
"276 586 CURVE SMOOTH",
"279 576 OFFCURVE",
"280 565 OFFCURVE",
"279 553 CURVE SMOOTH",
"277 535 OFFCURVE",
"271 519 OFFCURVE",
"262 506 CURVE SMOOTH",
"253 493 OFFCURVE",
"243 482 OFFCURVE",
"231 471 CURVE",
"219 461 OFFCURVE",
"205 450 OFFCURVE",
"191 441 CURVE SMOOTH",
"177 432 OFFCURVE",
"165 424 OFFCURVE",
"153 414 CURVE",
"141 405 OFFCURVE",
"130 394 OFFCURVE",
"121 383 CURVE SMOOTH",
"112 372 OFFCURVE",
"108 360 OFFCURVE",
"106 345 CURVE",
"105 341 LINE",
"105 336 LINE",
"104 255 LINE",
"188 255 LINE",
"209 328 LINE SMOOTH",
"212 339 OFFCURVE",
"217 348 OFFCURVE",
"227 357 CURVE",
"237 365 OFFCURVE",
"248 374 OFFCURVE",
"261 383 CURVE SMOOTH",
"274 392 OFFCURVE",
"287 401 OFFCURVE",
"301 411 CURVE SMOOTH",
"315 421 OFFCURVE",
"329 432 OFFCURVE",
"342 446 CURVE SMOOTH",
"355 460 OFFCURVE",
"366 476 OFFCURVE",
"376 495 CURVE SMOOTH",
"386 513 OFFCURVE",
"392 535 OFFCURVE",
"395 560 CURVE SMOOTH",
"398 586 OFFCURVE",
"396 610 OFFCURVE",
"389 631 CURVE SMOOTH",
"382 652 OFFCURVE",
"371 670 OFFCURVE",
"356 685 CURVE SMOOTH",
"341 700 OFFCURVE",
"322 711 OFFCURVE",
"299 719 CURVE SMOOTH",
"276 727 OFFCURVE",
"251 731 OFFCURVE",
"222 731 CURVE SMOOTH",
"201 731 OFFCURVE",
"180 729 OFFCURVE",
"161 725 CURVE SMOOTH",
"142 721 OFFCURVE",
"124 716 OFFCURVE",
"108 709 CURVE SMOOTH",
"92 702 OFFCURVE",
"77 695 OFFCURVE",
"62 686 CURVE SMOOTH",
"47 677 OFFCURVE",
"34 668 OFFCURVE",
"21 658 CURVE"
);
},
{
closed = 1;
nodes = (
"42 57 OFFCURVE",
"42 47 OFFCURVE",
"45 38 CURVE SMOOTH",
"48 29 OFFCURVE",
"52 21 OFFCURVE",
"58 14 CURVE SMOOTH",
"64 7 OFFCURVE",
"72 3 OFFCURVE",
"81 -1 CURVE SMOOTH",
"90 -5 OFFCURVE",
"99 -7 OFFCURVE",
"110 -7 CURVE SMOOTH",
"120 -7 OFFCURVE",
"130 -5 OFFCURVE",
"140 -1 CURVE SMOOTH",
"150 3 OFFCURVE",
"159 7 OFFCURVE",
"166 14 CURVE SMOOTH",
"173 21 OFFCURVE",
"180 29 OFFCURVE",
"185 38 CURVE SMOOTH",
"190 47 OFFCURVE",
"194 57 OFFCURVE",
"195 68 CURVE SMOOTH",
"196 78 OFFCURVE",
"195 89 OFFCURVE",
"192 98 CURVE SMOOTH",
"189 107 OFFCURVE",
"185 115 OFFCURVE",
"179 122 CURVE SMOOTH",
"173 129 OFFCURVE",
"166 134 OFFCURVE",
"157 138 CURVE SMOOTH",
"148 142 OFFCURVE",
"138 144 OFFCURVE",
"128 144 CURVE SMOOTH",
"117 144 OFFCURVE",
"108 142 OFFCURVE",
"98 138 CURVE SMOOTH",
"88 134 OFFCURVE",
"79 128 OFFCURVE",
"71 121 CURVE SMOOTH",
"63 114 OFFCURVE",
"57 106 OFFCURVE",
"52 97 CURVE SMOOTH",
"47 88 OFFCURVE",
"44 78 OFFCURVE",
"43 68 CURVE SMOOTH"
);
}
);
width = 417;
}
);
note = question;
unicode = 003F;
},
{
glyphname = at;
lastChange = "2017-01-26 15:47:16 +0000";
layers = (
{
layerId = "A0CD44AA-8F44-4864-B482-F84B7650FD25";
paths = (
{
closed = 1;
nodes = (
"580 92 OFFCURVE",
"609 99 OFFCURVE",
"636 112 CURVE SMOOTH",
"663 125 OFFCURVE",
"687 143 OFFCURVE",
"709 166 CURVE SMOOTH",
"731 189 OFFCURVE",
"749 216 OFFCURVE",
"763 247 CURVE SMOOTH",
"777 278 OFFCURVE",
"787 312 OFFCURVE",
"791 348 CURVE SMOOTH",
"798 401 OFFCURVE",
"794 449 OFFCURVE",
"779 491 CURVE SMOOTH",
"764 533 OFFCURVE",
"742 569 OFFCURVE",
"712 599 CURVE SMOOTH",
"682 629 OFFCURVE",
"646 651 OFFCURVE",
"604 667 CURVE SMOOTH",
"562 683 OFFCURVE",
"518 691 OFFCURVE",
"471 691 CURVE SMOOTH",
"434 691 OFFCURVE",
"397 686 OFFCURVE",
"362 676 CURVE SMOOTH",
"327 666 OFFCURVE",
"294 653 OFFCURVE",
"262 635 CURVE SMOOTH",
"230 617 OFFCURVE",
"201 597 OFFCURVE",
"174 572 CURVE SMOOTH",
"147 547 OFFCURVE",
"123 520 OFFCURVE",
"102 490 CURVE SMOOTH",
"81 460 OFFCURVE",
"65 430 OFFCURVE",
"52 396 CURVE SMOOTH",
"39 362 OFFCURVE",
"29 328 OFFCURVE",
"25 292 CURVE SMOOTH",
"17 228 OFFCURVE",
"21 171 OFFCURVE",
"36 120 CURVE SMOOTH",
"51 69 OFFCURVE",
"75 26 OFFCURVE",
"108 -10 CURVE SMOOTH",
"141 -46 OFFCURVE",
"182 -73 OFFCURVE",
"231 -92 CURVE SMOOTH",
"280 -111 OFFCURVE",
"335 -120 OFFCURVE",
"395 -120 CURVE SMOOTH",
"454 -120 OFFCURVE",
"508 -113 OFFCURVE",
"556 -99 CURVE SMOOTH",
"604 -85 OFFCURVE",
"647 -67 OFFCURVE",
"684 -44 CURVE",
"673 1 LINE SMOOTH",
"670 12 OFFCURVE",
"664 17 OFFCURVE",
"654 17 CURVE SMOOTH",
"649 17 OFFCURVE",
"644 16 OFFCURVE",
"637 12 CURVE SMOOTH",
"624 5 OFFCURVE",
"609 -2 OFFCURVE",
"593 -8 CURVE SMOOTH",
"577 -14 OFFCURVE",
"559 -20 OFFCURVE",
"540 -25 CURVE SMOOTH",
"521 -30 OFFCURVE",
"500 -33 OFFCURVE",
"477 -36 CURVE SMOOTH",
"454 -39 OFFCURVE",
"431 -40 OFFCURVE",
"405 -40 CURVE SMOOTH",
"358 -40 OFFCURVE",
"315 -34 OFFCURVE",
"277 -20 CURVE SMOOTH",
"239 -6 OFFCURVE",
"206 15 OFFCURVE",
"180 43 CURVE SMOOTH",
"154 71 OFFCURVE",
"135 105 OFFCURVE",
"123 147 CURVE SMOOTH",
"111 189 OFFCURVE",
"108 237 OFFCURVE",
"115 292 CURVE SMOOTH",
"121 337 OFFCURVE",
"134 379 OFFCURVE",
"154 418 CURVE SMOOTH",
"174 457 OFFCURVE",
"200 490 OFFCURVE",
"231 519 CURVE SMOOTH",
"262 548 OFFCURVE",
"297 571 OFFCURVE",
"337 587 CURVE SMOOTH",
"377 603 OFFCURVE",
"417 612 OFFCURVE",
"461 612 CURVE SMOOTH",
"501 612 OFFCURVE",
"538 606 OFFCURVE",
"570 595 CURVE SMOOTH",
"602 584 OFFCURVE",
"629 567 OFFCURVE",
"650 545 CURVE SMOOTH",
"671 523 OFFCURVE",
"688 495 OFFCURVE",
"697 462 CURVE SMOOTH",
"706 429 OFFCURVE",
"708 391 OFFCURVE",
"703 348 CURVE SMOOTH",
"700 322 OFFCURVE",
"694 298 OFFCURVE",
"686 276 CURVE SMOOTH",
"678 254 OFFCURVE",
"668 234 OFFCURVE",
"657 218 CURVE SMOOTH",
"646 202 OFFCURVE",
"633 190 OFFCURVE",
"619 181 CURVE SMOOTH",
"605 172 OFFCURVE",
"592 168 OFFCURVE",
"578 168 CURVE SMOOTH",
"571 168 OFFCURVE",
"565 168 OFFCURVE",
"559 170 CURVE SMOOTH",
"553 172 OFFCURVE",
"548 174 OFFCURVE",
"544 178 CURVE SMOOTH",
"540 182 OFFCURVE",
"538 187 OFFCURVE",
"536 194 CURVE SMOOTH",
"534 201 OFFCURVE",
"535 210 OFFCURVE",
"536 220 CURVE",
"538 234 OFFCURVE",
"542 252 OFFCURVE",
"550 273 CURVE SMOOTH",
"621 458 LINE",
"605 465 OFFCURVE",
"588 472 OFFCURVE",
"570 476 CURVE SMOOTH",
"552 480 OFFCURVE",
"531 482 OFFCURVE",
"505 482 CURVE SMOOTH",
"475 482 OFFCURVE",
"448 478 OFFCURVE",
"423 471 CURVE SMOOTH",
"398 464 OFFCURVE",
"374 455 OFFCURVE",
"353 443 CURVE SMOOTH",
"332 431 OFFCURVE",
"313 418 OFFCURVE",
"297 402 CURVE SMOOTH",
"281 386 OFFCURVE",
"266 369 OFFCURVE",
"254 351 CURVE SMOOTH",
"242 333 OFFCURVE",
"233 314 OFFCURVE",
"226 294 CURVE SMOOTH",
"219 274 OFFCURVE",
"213 256 OFFCURVE",
"211 237 CURVE",
"208 216 OFFCURVE",
"209 197 OFFCURVE",
"212 179 CURVE SMOOTH",
"215 161 OFFCURVE",
"221 147 OFFCURVE",
"230 134 CURVE SMOOTH",
"239 121 OFFCURVE",
"250 111 OFFCURVE",
"265 104 CURVE SMOOTH",
"280 97 OFFCURVE",
"298 93 OFFCURVE",
"319 93 CURVE SMOOTH",
"344 93 OFFCURVE",
"369 98 OFFCURVE",
"392 108 CURVE SMOOTH",
"415 118 OFFCURVE",
"437 136 OFFCURVE",
"460 160 CURVE",
"464 136 OFFCURVE",
"474 119 OFFCURVE",
"491 108 CURVE SMOOTH",
"508 97 OFFCURVE",
"527 92 OFFCURVE",
"550 92 CURVE SMOOTH"
);
},
{
closed = 1;
nodes = (
"335 172 OFFCURVE",
"323 178 OFFCURVE",
"315 190 CURVE SMOOTH",
"307 202 OFFCURVE",
"304 219 OFFCURVE",
"307 240 CURVE SMOOTH",
"310 261 OFFCURVE",
"316 281 OFFCURVE",
"326 301 CURVE SMOOTH",
"336 321 OFFCURVE",
"349 339 OFFCURVE",
"364 354 CURVE SMOOTH",
"379 369 OFFCURVE",
"396 382 OFFCURVE",
"415 391 CURVE SMOOTH",
"434 400 OFFCURVE",
"454 404 OFFCURVE",
"475 404 CURVE SMOOTH",
"486 404 OFFCURVE",
"497 403 OFFCURVE",
"507 401 CURVE",
"454 260 LINE SMOOTH",
"448 243 OFFCURVE",
"440 229 OFFCURVE",
"432 218 CURVE SMOOTH",
"424 207 OFFCURVE",
"416 197 OFFCURVE",
"407 190 CURVE SMOOTH",
"398 183 OFFCURVE",
"389 179 OFFCURVE",
"380 176 CURVE SMOOTH",
"371 173 OFFCURVE",
"362 172 OFFCURVE",
"353 172 CURVE SMOOTH"
);
}
);
width = 815;
}
);
leftKerningGroup = O;
note = at;
rightKerningGroup = O;
unicode = 0040;
},
{
glyphname = A;
lastChange = "2017-01-26 14:38:56 +0000";
layers = (
{
anchors = (
{
name = bottom;
position = "{412, 0}";
},
{
name = ogonek;
position = "{741, 10}";
},
{
name = top;
position = "{412, 723}";
}
);
layerId = "A0CD44AA-8F44-4864-B482-F84B7650FD25";
paths = (
{
closed = 1;
nodes = (
"780 79 OFFCURVE",
"763 87 OFFCURVE",
"733 100 CURVE",
"565 723 LINE",
"427 723 LINE",
"106 100 LINE",
"73 87 OFFCURVE",
"54 79 OFFCURVE",
"48 77 CURVE",
"34 71 OFFCURVE",
"26 63 OFFCURVE",
"25 51 CURVE SMOOTH",
"19 0 LINE",
"54 0 LINE",
"133 0 LINE",
"149 0 LINE",
"159 0 LINE",
"263 0 LINE",
"270 51 LINE",
"271 63 OFFCURVE",
"266 71 OFFCURVE",
"253 77 CURVE SMOOTH",
"251 78 OFFCURVE",
"244 80 OFFCURVE",
"234 85 CURVE",
"237 91 LINE",
"287 194 LINE",
"575 194 LINE",
"599 96 LINE",
"601 85 LINE",
"590 80 OFFCURVE",
"583 78 OFFCURVE",
"580 77 CURVE",
"566 71 OFFCURVE",
"558 63 OFFCURVE",
"557 51 CURVE SMOOTH",
"551 0 LINE",
"656 0 LINE",
"665 0 LINE",
"682 0 LINE",
"760 0 LINE",
"795 0 LINE",
"802 51 LINE",
"803 63 OFFCURVE",
"798 72 OFFCURVE",
"785 77 CURVE SMOOTH"
);
},
{
closed = 1;
nodes = (
"443 513 LINE",
"449 524 OFFCURVE",
"455 536 OFFCURVE",
"461 551 CURVE SMOOTH",
"467 566 OFFCURVE",
"473 581 OFFCURVE",
"480 598 CURVE",
"483 581 OFFCURVE",
"486 565 OFFCURVE",
"489 551 CURVE SMOOTH",
"492 537 OFFCURVE",
"495 524 OFFCURVE",
"498 513 CURVE SMOOTH",
"552 289 LINE",
"333 289 LINE"
);
}
);
width = 823;
}
);
leftKerningGroup = A;
note = A;
rightKerningGroup = A;
unicode = 0041;
},
{
glyphname = B;
lastChange = "2017-01-26 14:38:56 +0000";
layers = (
{
anchors = (
{
name = bottom;
position = "{348, 0}";
},
{
name = top;
position = "{348, 723}";
}
);
layerId = "A0CD44AA-8F44-4864-B482-F84B7650FD25";
paths = (
{
closed = 1;
nodes = (
"551 382 OFFCURVE",
"571 391 OFFCURVE",
"589 402 CURVE SMOOTH",
"607 413 OFFCURVE",
"621 424 OFFCURVE",
"633 438 CURVE",
"645 451 OFFCURVE",
"655 466 OFFCURVE",
"662 482 CURVE SMOOTH",
"669 498 OFFCURVE",
"673 514 OFFCURVE",
"675 531 CURVE SMOOTH",
"679 561 OFFCURVE",
"677 586 OFFCURVE",
"670 610 CURVE SMOOTH",
"663 634 OFFCURVE",
"649 654 OFFCURVE",
"630 671 CURVE SMOOTH",
"611 688 OFFCURVE",
"585 700 OFFCURVE",
"553 709 CURVE SMOOTH",
"521 718 OFFCURVE",
"480 723 OFFCURVE",
"433 723 CURVE SMOOTH",
"184 723 LINE",
"108 723 LINE",
"101 664 LINE SMOOTH",
"99 647 OFFCURVE",
"106 637 OFFCURVE",
"122 633 CURVE",
"123 633 OFFCURVE",
"125 633 OFFCURVE",
"128 632 CURVE",
"131 632 OFFCURVE",
"135 630 OFFCURVE",
"142 629 CURVE SMOOTH",
"149 628 OFFCURVE",
"159 626 OFFCURVE",
"171 624 CURVE",
"107 99 LINE",
"94 97 OFFCURVE",
"84 95 OFFCURVE",
"77 94 CURVE SMOOTH",
"70 93 OFFCURVE",
"64 91 OFFCURVE",
"61 91 CURVE SMOOTH",
"58 91 OFFCURVE",
"57 90 OFFCURVE",
"55 90 CURVE",
"38 86 OFFCURVE",
"28 76 OFFCURVE",
"26 59 CURVE SMOOTH",
"19 0 LINE",
"95 0 LINE",
"368 0 LINE SMOOTH",
"410 0 OFFCURVE",
"448 5 OFFCURVE",
"482 16 CURVE SMOOTH",
"516 27 OFFCURVE",
"545 41 OFFCURVE",
"570 60 CURVE SMOOTH",
"595 79 OFFCURVE",
"614 102 OFFCURVE",
"629 128 CURVE SMOOTH",
"644 154 OFFCURVE",
"653 182 OFFCURVE",
"657 213 CURVE SMOOTH",
"667 298 OFFCURVE",
"625 352 OFFCURVE",
"528 374 CURVE"
);
},
{
closed = 1;
nodes = (
"305 619 LINE",
"420 619 LINE SMOOTH",
"465 619 OFFCURVE",
"498 611 OFFCURVE",
"517 595 CURVE SMOOTH",
"536 579 OFFCURVE",
"544 552 OFFCURVE",
"539 514 CURVE SMOOTH",
"535 478 OFFCURVE",
"520 452 OFFCURVE",
"494 435 CURVE SMOOTH",
"468 418 OFFCURVE",
"433 410 OFFCURVE",
"387 410 CURVE SMOOTH",
"280 410 LINE"
);
},
{
closed = 1;
nodes = (
"506 160 OFFCURVE",
"497 148 OFFCURVE",
"486 138 CURVE SMOOTH",
"475 128 OFFCURVE",
"460 120 OFFCURVE",
"442 114 CURVE SMOOTH",
"424 108 OFFCURVE",
"404 105 OFFCURVE",
"379 105 CURVE SMOOTH",
"242 105 LINE",
"268 317 LINE",
"404 317 LINE SMOOTH",
"428 317 OFFCURVE",
"448 315 OFFCURVE",
"464 310 CURVE SMOOTH",
"480 305 OFFCURVE",
"492 299 OFFCURVE",
"502 290 CURVE SMOOTH",
"512 281 OFFCURVE",
"519 270 OFFCURVE",
"522 258 CURVE SMOOTH",
"525 245 OFFCURVE",
"526 232 OFFCURVE",
"524 216 CURVE SMOOTH",
"522 201 OFFCURVE",
"518 186 OFFCURVE",
"512 173 CURVE SMOOTH"
);
}
);
width = 695;
}
);
note = B;
unicode = 0042;
},
{
glyphname = C;
lastChange = "2017-01-26 15:47:16 +0000";
layers = (
{
anchors = (
{
name = bottom;
position = "{340, 0}";
},
{
name = top;
position = "{340, 723}";
}
);
layerId = "A0CD44AA-8F44-4864-B482-F84B7650FD25";
paths = (
{
closed = 1;
nodes = (
"638 495 LINE",
"660 679 LINE",
"573 714 OFFCURVE",
"500 731 OFFCURVE",
"440 731 CURVE SMOOTH",
"385 731 OFFCURVE",
"334 722 OFFCURVE",
"286 704 CURVE SMOOTH",
"238 686 OFFCURVE",
"196 660 OFFCURVE",
"159 627 CURVE SMOOTH",
"122 594 OFFCURVE",
"93 556 OFFCURVE",
"69 511 CURVE SMOOTH",
"45 466 OFFCURVE",
"31 415 OFFCURVE",
"24 361 CURVE SMOOTH",
"17 307 OFFCURVE",
"19 258 OFFCURVE",
"30 213 CURVE SMOOTH",
"41 168 OFFCURVE",
"59 129 OFFCURVE",
"85 96 CURVE SMOOTH",
"111 63 OFFCURVE",
"145 38 OFFCURVE",
"186 20 CURVE SMOOTH",
"227 2 OFFCURVE",
"273 -8 OFFCURVE",
"327 -8 CURVE SMOOTH",
"387 -8 OFFCURVE",
"440 2 OFFCURVE",
"485 21 CURVE SMOOTH",
"530 40 OFFCURVE",
"569 68 OFFCURVE",
"603 104 CURVE",
"557 162 LINE SMOOTH",
"552 168 OFFCURVE",
"546 170 OFFCURVE",
"539 170 CURVE SMOOTH",
"535 170 OFFCURVE",
"531 170 OFFCURVE",
"527 168 CURVE SMOOTH",
"523 166 OFFCURVE",
"520 164 OFFCURVE",
"516 161 CURVE",
"504 151 OFFCURVE",
"491 142 OFFCURVE",
"479 135 CURVE SMOOTH",
"467 128 OFFCURVE",
"455 122 OFFCURVE",
"442 118 CURVE SMOOTH",
"429 114 OFFCURVE",
"415 111 OFFCURVE",
"400 109 CURVE SMOOTH",
"385 107 OFFCURVE",
"367 106 OFFCURVE",
"349 106 CURVE SMOOTH",
"318 106 OFFCURVE",
"291 111 OFFCURVE",
"266 123 CURVE SMOOTH",
"241 135 OFFCURVE",
"219 151 OFFCURVE",
"202 173 CURVE SMOOTH",
"185 195 OFFCURVE",
"173 221 OFFCURVE",
"165 253 CURVE SMOOTH",
"157 285 OFFCURVE",
"156 320 OFFCURVE",
"161 361 CURVE SMOOTH",
"166 400 OFFCURVE",
"177 436 OFFCURVE",
"192 468 CURVE SMOOTH",
"207 500 OFFCURVE",
"226 526 OFFCURVE",
"249 548 CURVE SMOOTH",
"272 570 OFFCURVE",
"299 587 OFFCURVE",
"329 599 CURVE SMOOTH",
"359 611 OFFCURVE",
"391 616 OFFCURVE",
"425 616 CURVE SMOOTH",
"463 616 OFFCURVE",
"507 609 OFFCURVE",
"560 593 CURVE",
"559 549 OFFCURVE",
"559 522 OFFCURVE",
"559 513 CURVE",
"560 501 OFFCURVE",
"567 495 OFFCURVE",
"580 495 CURVE SMOOTH"
);
}
);
width = 679;
}
);
leftKerningGroup = C;
note = C;
unicode = 0043;
},
{
glyphname = D;
lastChange = "2017-01-26 14:38:56 +0000";
layers = (
{
anchors = (
{
name = bottom;
position = "{397, 0}";
},
{
name = center;
position = "{397, 362}";
},
{
name = top;
position = "{397, 723}";
}
);
layerId = "A0CD44AA-8F44-4864-B482-F84B7650FD25";
paths = (
{
closed = 1;
nodes = (
"750 552 OFFCURVE",
"729 590 OFFCURVE",
"701 622 CURVE SMOOTH",
"673 654 OFFCURVE",
"638 678 OFFCURVE",
"595 696 CURVE SMOOTH",
"552 714 OFFCURVE",
"504 723 OFFCURVE",
"449 723 CURVE SMOOTH",
"184 723 LINE",
"108 723 LINE",
"101 664 LINE SMOOTH",
"99 647 OFFCURVE",
"106 637 OFFCURVE",
"122 633 CURVE",
"123 633 OFFCURVE",
"125 632 OFFCURVE",
"128 632 CURVE SMOOTH",
"131 632 OFFCURVE",
"135 630 OFFCURVE",
"142 629 CURVE SMOOTH",
"149 628 OFFCURVE",
"159 626 OFFCURVE",
"171 624 CURVE",
"107 99 LINE",
"94 97 OFFCURVE",
"84 95 OFFCURVE",
"77 94 CURVE SMOOTH",
"70 93 OFFCURVE",
"64 91 OFFCURVE",
"61 91 CURVE SMOOTH",
"58 91 OFFCURVE",
"57 90 OFFCURVE",
"55 90 CURVE",
"38 86 OFFCURVE",
"28 76 OFFCURVE",
"26 59 CURVE SMOOTH",
"19 0 LINE",
"95 0 LINE",
"360 0 LINE SMOOTH",
"415 0 OFFCURVE",
"466 9 OFFCURVE",
"513 27 CURVE SMOOTH",
"560 45 OFFCURVE",
"601 69 OFFCURVE",
"637 101 CURVE SMOOTH",
"673 133 OFFCURVE",
"703 172 OFFCURVE",
"726 216 CURVE SMOOTH",
"749 260 OFFCURVE",
"763 309 OFFCURVE",
"770 362 CURVE SMOOTH",
"777 415 OFFCURVE",
"774 464 OFFCURVE",
"762 508 CURVE SMOOTH"
);
},
{
closed = 1;
nodes = (
"589 223 OFFCURVE",
"570 197 OFFCURVE",
"548 175 CURVE SMOOTH",
"526 153 OFFCURVE",
"500 137 OFFCURVE",
"470 125 CURVE SMOOTH",
"440 113 OFFCURVE",
"408 107 OFFCURVE",
"373 107 CURVE SMOOTH",
"243 107 LINE",
"306 616 LINE",
"436 616 LINE SMOOTH",
"471 616 OFFCURVE",
"502 610 OFFCURVE",
"529 598 CURVE SMOOTH",
"556 586 OFFCURVE",
"577 570 OFFCURVE",
"594 548 CURVE SMOOTH",
"611 526 OFFCURVE",
"623 499 OFFCURVE",
"630 468 CURVE SMOOTH",
"637 436 OFFCURVE",
"638 402 OFFCURVE",
"633 362 CURVE SMOOTH",
"628 322 OFFCURVE",
"619 287 OFFCURVE",
"604 255 CURVE SMOOTH"
);
}
);
width = 794;
}
);
note = D;
unicode = 0044;
},
{
glyphname = E;
lastChange = "2017-01-26 14:38:56 +0000";
layers = (
{
anchors = (
{
name = bottom;
position = "{329, 0}";
},
{
name = ogonek;
position = "{592, 10}";
},
{
name = top;
position = "{329, 723}";
},
{
name = topleft;
position = "{20, 723}";
}
);
layerId = "A0CD44AA-8F44-4864-B482-F84B7650FD25";
paths = (
{
closed = 1;
nodes = (
"184 723 LINE",
"108 723 LINE",
"101 664 LINE SMOOTH",
"99 647 OFFCURVE",
"106 637 OFFCURVE",
"122 633 CURVE",
"123 633 OFFCURVE",
"125 632 OFFCURVE",
"128 632 CURVE SMOOTH",
"131 632 OFFCURVE",
"135 630 OFFCURVE",
"142 629 CURVE SMOOTH",
"149 628 OFFCURVE",
"159 626 OFFCURVE",
"171 624 CURVE",
"107 99 LINE",
"94 97 OFFCURVE",
"84 95 OFFCURVE",
"77 94 CURVE SMOOTH",
"70 93 OFFCURVE",
"64 91 OFFCURVE",
"61 91 CURVE SMOOTH",
"58 91 OFFCURVE",
"57 90 OFFCURVE",
"55 90 CURVE",
"38 86 OFFCURVE",
"28 76 OFFCURVE",
"26 59 CURVE SMOOTH",
"19 0 LINE",
"95 0 LINE",
"551 0 LINE",
"559 70 LINE",
"564 108 LINE",
"574 191 LINE",
"570 191 LINE",
"558 191 LINE",
"517 191 LINE SMOOTH",
"504 191 OFFCURVE",
"495 184 OFFCURVE",
"491 172 CURVE",
"489 164 OFFCURVE",
"484 143 OFFCURVE",
"476 108 CURVE",
"243 108 LINE",
"269 312 LINE",
"513 312 LINE",
"526 416 LINE",
"281 416 LINE",
"306 616 LINE",
"538 616 LINE",
"537 581 OFFCURVE",
"538 560 OFFCURVE",
"538 552 CURVE",
"539 540 OFFCURVE",
"546 533 OFFCURVE",
"559 533 CURVE SMOOTH",
"600 533 LINE",
"612 533 LINE",
"616 533 LINE",
"626 616 LINE",
"631 653 LINE",
"640 723 LINE"
);
}
);
width = 658;
}
);
note = E;
unicode = 0045;
},
{
glyphname = F;
lastChange = "2017-01-26 14:38:56 +0000";
layers = (
{
anchors = (
{
name = bottom;
position = "{342, 0}";
},
{
name = top;
position = "{342, 723}";
}
);
layerId = "A0CD44AA-8F44-4864-B482-F84B7650FD25";
paths = (
{
closed = 1;
nodes = (
"640 723 LINE",
"617 723 LINE",
"184 723 LINE",
"108 723 LINE",
"101 664 LINE SMOOTH",
"99 647 OFFCURVE",
"106 637 OFFCURVE",
"122 633 CURVE",
"123 633 OFFCURVE",
"125 633 OFFCURVE",
"128 632 CURVE",
"131 632 OFFCURVE",
"135 630 OFFCURVE",
"142 629 CURVE SMOOTH",
"149 628 OFFCURVE",
"159 626 OFFCURVE",
"171 624 CURVE",
"107 99 LINE",
"94 97 OFFCURVE",
"84 95 OFFCURVE",
"77 94 CURVE SMOOTH",
"70 93 OFFCURVE",
"64 91 OFFCURVE",
"61 91 CURVE SMOOTH",
"58 91 OFFCURVE",
"57 90 OFFCURVE",
"55 90 CURVE",
"38 86 OFFCURVE",
"28 76 OFFCURVE",
"26 59 CURVE SMOOTH",
"19 0 LINE",
"95 0 LINE",
"230 0 LINE",
"306 0 LINE",
"313 59 LINE SMOOTH",
"315 76 OFFCURVE",
"308 86 OFFCURVE",
"292 90 CURVE",
"291 90 OFFCURVE",
"289 91 OFFCURVE",
"286 91 CURVE SMOOTH",
"283 91 OFFCURVE",
"278 93 OFFCURVE",
"271 94 CURVE SMOOTH",
"264 95 OFFCURVE",
"254 97 OFFCURVE",
"242 99 CURVE",
"266 295 LINE",
"519 295 LINE",
"532 402 LINE",
"280 402 LINE",
"306 616 LINE",
"563 616 LINE",
"562 581 OFFCURVE",
"563 560 OFFCURVE",
"563 552 CURVE",
"564 540 OFFCURVE",
"571 533 OFFCURVE",
"584 533 CURVE SMOOTH",
"625 533 LINE",
"637 533 LINE",
"641 533 LINE",
"653 630 LINE",
"656 653 LINE",
"665 723 LINE"
);
}
);
width = 683;
}
);
note = F;
unicode = 0046;
},
{
glyphname = G;
lastChange = "2017-01-26 15:47:16 +0000";
layers = (
{
anchors = (
{
name = bottom;
position = "{357, 0}";
},
{
name = top;
position = "{357, 723}";
}
);
layerId = "A0CD44AA-8F44-4864-B482-F84B7650FD25";
paths = (
{
closed = 1;
nodes = (
"423 362 LINE",
"413 286 LINE SMOOTH",
"412 279 OFFCURVE",
"414 274 OFFCURVE",
"418 269 CURVE SMOOTH",
"422 264 OFFCURVE",
"429 261 OFFCURVE",
"438 261 CURVE SMOOTH",
"529 261 LINE",
"512 130 LINE",
"490 120 OFFCURVE",
"468 112 OFFCURVE",
"445 107 CURVE SMOOTH",
"422 102 OFFCURVE",
"395 99 OFFCURVE",
"365 99 CURVE SMOOTH",
"331 99 OFFCURVE",
"300 105 OFFCURVE",
"272 117 CURVE SMOOTH",
"244 129 OFFCURVE",
"222 146 OFFCURVE",
"204 168 CURVE SMOOTH",
"186 190 OFFCURVE",
"173 217 OFFCURVE",
"165 250 CURVE SMOOTH",
"157 282 OFFCURVE",
"156 320 OFFCURVE",
"161 362 CURVE SMOOTH",
"166 401 OFFCURVE",
"175 436 OFFCURVE",
"190 467 CURVE SMOOTH",
"205 498 OFFCURVE",
"224 525 OFFCURVE",
"247 547 CURVE SMOOTH",
"270 569 OFFCURVE",
"297 587 OFFCURVE",
"327 599 CURVE SMOOTH",
"357 611 OFFCURVE",
"390 616 OFFCURVE",
"426 616 CURVE SMOOTH",
"490 616 OFFCURVE",
"546 608 OFFCURVE",
"594 591 CURVE",
"593 548 OFFCURVE",
"593 522 OFFCURVE",
"593 513 CURVE",
"594 501 OFFCURVE",
"601 495 OFFCURVE",
"614 495 CURVE SMOOTH",
"655 495 LINE",
"667 495 LINE",
"672 495 LINE",
"694 679 LINE",
"605 713 OFFCURVE",
"523 731 OFFCURVE",
"445 731 CURVE SMOOTH",
"444 731 LINE",
"438 731 LINE SMOOTH",
"383 730 OFFCURVE",
"331 721 OFFCURVE",
"285 704 CURVE SMOOTH",
"236 686 OFFCURVE",
"195 661 OFFCURVE",
"158 628 CURVE SMOOTH",
"121 595 OFFCURVE",
"91 556 OFFCURVE",
"68 511 CURVE SMOOTH",
"45 466 OFFCURVE",
"30 416 OFFCURVE",
"23 362 CURVE SMOOTH",
"16 308 OFFCURVE",
"19 258 OFFCURVE",
"32 213 CURVE SMOOTH",
"45 168 OFFCURVE",
"66 129 OFFCURVE",
"94 96 CURVE SMOOTH",
"122 63 OFFCURVE",
"157 38 OFFCURVE",
"199 20 CURVE SMOOTH",
"241 2 OFFCURVE",
"289 -8 OFFCURVE",
"342 -8 CURVE SMOOTH",
"372 -8 OFFCURVE",
"399 -6 OFFCURVE",
"425 -3 CURVE SMOOTH",
"451 0 OFFCURVE",
"476 5 OFFCURVE",
"499 11 CURVE SMOOTH",
"522 17 OFFCURVE",
"545 25 OFFCURVE",
"566 35 CURVE SMOOTH",
"587 45 OFFCURVE",
"607 57 OFFCURVE",
"627 70 CURVE",
"663 362 LINE"
);
}
);
width = 713;
}
);
leftKerningGroup = C;
note = G;
unicode = 0047;
},
{
glyphname = H;
lastChange = "2017-01-26 14:38:56 +0000";
layers = (
{
anchors = (
{
name = bottom;
position = "{444, 0}";
},
{
name = center;
position = "{444, 362}";
},
{
name = top;
position = "{444, 723}";
},
{
name = topleft;
position = "{20, 723}";
}
);
layerId = "A0CD44AA-8F44-4864-B482-F84B7650FD25";
paths = (
{
closed = 1;
nodes = (
"850 637 OFFCURVE",
"860 647 OFFCURVE",
"862 664 CURVE SMOOTH",
"869 723 LINE",
"794 723 LINE",
"658 723 LINE",
"582 723 LINE",
"575 664 LINE SMOOTH",
"573 647 OFFCURVE",
"580 637 OFFCURVE",
"596 633 CURVE",
"597 633 OFFCURVE",
"599 633 OFFCURVE",
"602 632 CURVE SMOOTH",
"605 631 OFFCURVE",
"610 630 OFFCURVE",
"617 629 CURVE SMOOTH",
"624 628 OFFCURVE",
"634 626 OFFCURVE",
"646 624 CURVE",
"620 412 LINE",
"281 412 LINE",
"307 624 LINE",
"320 626 OFFCURVE",
"330 628 OFFCURVE",
"337 629 CURVE SMOOTH",
"344 630 OFFCURVE",
"349 631 OFFCURVE",
"352 632 CURVE SMOOTH",
"355 633 OFFCURVE",
"358 633 OFFCURVE",
"359 633 CURVE",
"376 637 OFFCURVE",
"385 647 OFFCURVE",
"387 664 CURVE SMOOTH",
"395 723 LINE",
"319 723 LINE",
"184 723 LINE",
"108 723 LINE",
"101 664 LINE SMOOTH",
"99 647 OFFCURVE",
"106 637 OFFCURVE",
"122 633 CURVE",
"123 633 OFFCURVE",
"125 633 OFFCURVE",
"128 632 CURVE",
"131 632 OFFCURVE",
"135 630 OFFCURVE",
"142 629 CURVE SMOOTH",
"149 628 OFFCURVE",
"159 626 OFFCURVE",
"171 624 CURVE",
"107 99 LINE",
"94 97 OFFCURVE",
"84 95 OFFCURVE",
"77 94 CURVE SMOOTH",
"70 93 OFFCURVE",
"64 91 OFFCURVE",
"61 91 CURVE SMOOTH",
"58 91 OFFCURVE",
"56 90 OFFCURVE",
"55 90 CURVE",
"38 86 OFFCURVE",
"28 76 OFFCURVE",
"26 59 CURVE SMOOTH",
"19 0 LINE",
"95 0 LINE",
"230 0 LINE",
"306 0 LINE",
"313 59 LINE SMOOTH",
"315 76 OFFCURVE",
"308 86 OFFCURVE",
"292 90 CURVE",
"291 90 OFFCURVE",
"289 90 OFFCURVE",
"286 91 CURVE",
"283 91 OFFCURVE",
"278 93 OFFCURVE",
"271 94 CURVE SMOOTH",
"264 95 OFFCURVE",
"254 97 OFFCURVE",
"242 99 CURVE",
"269 316 LINE",
"608 316 LINE",
"581 99 LINE",
"568 97 OFFCURVE",
"558 95 OFFCURVE",
"551 94 CURVE SMOOTH",
"544 93 OFFCURVE",
"539 92 OFFCURVE",
"536 91 CURVE SMOOTH",
"533 90 OFFCURVE",
"531 90 OFFCURVE",
"530 90 CURVE",
"513 86 OFFCURVE",
"503 76 OFFCURVE",
"501 59 CURVE SMOOTH",
"494 0 LINE",
"569 0 LINE",
"705 0 LINE",
"780 0 LINE",
"788 59 LINE SMOOTH",
"790 76 OFFCURVE",
"783 86 OFFCURVE",
"767 90 CURVE",
"766 90 OFFCURVE",
"763 91 OFFCURVE",
"760 91 CURVE SMOOTH",
"757 91 OFFCURVE",
"753 93 OFFCURVE",
"746 94 CURVE SMOOTH",
"739 95 OFFCURVE",
"729 97 OFFCURVE",
"717 99 CURVE",
"781 624 LINE",
"794 626 OFFCURVE",
"805 628 OFFCURVE",
"812 629 CURVE SMOOTH",
"819 630 OFFCURVE",
"824 632 OFFCURVE",
"827 632 CURVE SMOOTH",
"830 632 OFFCURVE",
"831 633 OFFCURVE",
"833 633 CURVE"
);
}
);
width = 888;
}
);
note = H;
unicode = 0048;
},
{
glyphname = I;
lastChange = "2017-01-26 14:38:56 +0000";
layers = (
{
anchors = (
{
name = bottom;
position = "{207, 0}";
},
{
name = ogonek;
position = "{372, 10}";
},
{
name = top;
position = "{207, 723}";
},
{
name = topleft;
position = "{20, 723}";
}
);
layerId = "A0CD44AA-8F44-4864-B482-F84B7650FD25";
paths = (
{
closed = 1;
nodes = (
"375 637 OFFCURVE",
"385 647 OFFCURVE",
"387 664 CURVE SMOOTH",
"394 723 LINE",
"319 723 LINE",
"184 723 LINE",
"108 723 LINE",
"101 664 LINE SMOOTH",
"99 647 OFFCURVE",
"106 637 OFFCURVE",
"122 633 CURVE",
"123 633 OFFCURVE",
"125 633 OFFCURVE",
"128 632 CURVE",
"131 632 OFFCURVE",
"135 630 OFFCURVE",
"142 629 CURVE SMOOTH",
"149 628 OFFCURVE",
"159 626 OFFCURVE",
"171 624 CURVE",
"107 99 LINE",
"94 97 OFFCURVE",
"84 95 OFFCURVE",
"77 94 CURVE SMOOTH",
"70 93 OFFCURVE",
"64 91 OFFCURVE",
"61 91 CURVE SMOOTH",
"58 91 OFFCURVE",
"56 90 OFFCURVE",
"55 90 CURVE",
"38 86 OFFCURVE",
"28 76 OFFCURVE",
"26 59 CURVE SMOOTH",
"19 0 LINE",
"95 0 LINE",
"230 0 LINE",
"305 0 LINE",
"313 59 LINE SMOOTH",
"315 76 OFFCURVE",
"308 86 OFFCURVE",
"292 90 CURVE",
"291 90 OFFCURVE",
"288 91 OFFCURVE",
"285 91 CURVE SMOOTH",
"282 91 OFFCURVE",
"278 93 OFFCURVE",
"271 94 CURVE SMOOTH",
"264 95 OFFCURVE",
"254 97 OFFCURVE",
"242 99 CURVE",
"306 624 LINE",
"319 626 OFFCURVE",
"330 628 OFFCURVE",
"337 629 CURVE SMOOTH",
"344 630 OFFCURVE",
"349 632 OFFCURVE",
"352 632 CURVE SMOOTH",
"355 632 OFFCURVE",
"356 633 OFFCURVE",
"358 633 CURVE"
);
}
);
width = 413;
}
);
note = I;
unicode = 0049;
},
{
glyphname = J;
lastChange = "2017-01-26 15:47:16 +0000";
layers = (
{
anchors = (
{
name = bottom;
position = "{273, 0}";
},
{
name = top;
position = "{273, 723}";
}
);
layerId = "A0CD44AA-8F44-4864-B482-F84B7650FD25";
paths = (
{
closed = 1;
nodes = (
"452 723 LINE",
"318 723 LINE",
"232 723 LINE",
"225 664 LINE SMOOTH",
"223 647 OFFCURVE",
"230 637 OFFCURVE",
"246 633 CURVE",
"247 633 OFFCURVE",
"251 632 OFFCURVE",
"255 632 CURVE SMOOTH",
"259 632 OFFCURVE",
"265 630 OFFCURVE",
"274 629 CURVE SMOOTH",
"283 628 OFFCURVE",
"293 626 OFFCURVE",
"305 624 CURVE",
"260 254 LINE SMOOTH",
"257 227 OFFCURVE",
"251 203 OFFCURVE",
"244 184 CURVE SMOOTH",
"237 165 OFFCURVE",
"227 150 OFFCURVE",
"216 138 CURVE SMOOTH",
"205 126 OFFCURVE",
"191 116 OFFCURVE",
"176 111 CURVE",
"161 105 OFFCURVE",
"143 103 OFFCURVE",
"124 103 CURVE SMOOTH",
"110 103 OFFCURVE",
"99 105 OFFCURVE",
"90 107 CURVE SMOOTH",
"81 109 OFFCURVE",
"74 110 OFFCURVE",
"68 110 CURVE SMOOTH",
"59 110 OFFCURVE",
"51 107 OFFCURVE",
"46 103 CURVE",
"41 98 OFFCURVE",
"38 93 OFFCURVE",
"36 86 CURVE",
"19 6 LINE",
"37 1 OFFCURVE",
"55 -3 OFFCURVE",
"72 -5 CURVE SMOOTH",
"89 -7 OFFCURVE",
"107 -8 OFFCURVE",
"125 -8 CURVE SMOOTH",
"164 -8 OFFCURVE",
"200 -1 OFFCURVE",
"231 11 CURVE SMOOTH",
"262 23 OFFCURVE",
"288 41 OFFCURVE",
"311 64 CURVE SMOOTH",
"334 87 OFFCURVE",
"352 114 OFFCURVE",
"366 147 CURVE SMOOTH",
"380 180 OFFCURVE",
"390 216 OFFCURVE",
"395 257 CURVE SMOOTH",
"440 624 LINE",
"453 626 OFFCURVE",
"463 628 OFFCURVE",
"470 629 CURVE SMOOTH",
"477 630 OFFCURVE",
"482 632 OFFCURVE",
"485 632 CURVE SMOOTH",
"488 632 OFFCURVE",
"491 633 OFFCURVE",
"492 633 CURVE",
"509 637 OFFCURVE",
"519 647 OFFCURVE",
"521 664 CURVE SMOOTH",
"528 723 LINE"
);
}
);
width = 546;
}
);
leftKerningGroup = J;
note = J;
rightKerningGroup = J;
unicode = 004A;
},
{
glyphname = K;
lastChange = "2017-01-26 14:38:56 +0000";
layers = (
{
anchors = (
{
name = bottom;
position = "{399, 0}";
},
{
name = top;
position = "{399, 723}";
}
);
layerId = "A0CD44AA-8F44-4864-B482-F84B7650FD25";
paths = (
{
closed = 1;
nodes = (
"702 90 OFFCURVE",
"699 91 OFFCURVE",
"695 91 CURVE SMOOTH",
"691 91 OFFCURVE",
"685 93 OFFCURVE",
"677 94 CURVE SMOOTH",
"669 95 OFFCURVE",
"659 97 OFFCURVE",
"648 99 CURVE",
"499 338 LINE SMOOTH",
"492 349 OFFCURVE",
"485 359 OFFCURVE",
"477 366 CURVE SMOOTH",
"469 373 OFFCURVE",
"459 379 OFFCURVE",
"449 383 CURVE",
"457 387 OFFCURVE",
"466 393 OFFCURVE",
"474 399 CURVE SMOOTH",
"482 405 OFFCURVE",
"490 413 OFFCURVE",
"499 422 CURVE",
"687 624 LINE",
"699 626 OFFCURVE",
"709 628 OFFCURVE",
"717 629 CURVE SMOOTH",
"725 630 OFFCURVE",
"732 632 OFFCURVE",
"736 632 CURVE SMOOTH",
"740 632 OFFCURVE",
"742 633 OFFCURVE",
"744 633 CURVE",
"761 637 OFFCURVE",
"771 647 OFFCURVE",
"773 664 CURVE SMOOTH",
"780 723 LINE",
"704 723 LINE",
"679 723 LINE",
"513 723 LINE",
"506 664 LINE SMOOTH",
"504 647 OFFCURVE",
"511 637 OFFCURVE",
"527 633 CURVE",
"528 633 OFFCURVE",
"530 632 OFFCURVE",
"533 632 CURVE SMOOTH",
"536 632 OFFCURVE",
"538 631 OFFCURVE",
"540 631 CURVE",
"368 442 LINE SMOOTH",
"361 434 OFFCURVE",
"353 429 OFFCURVE",
"344 425 CURVE SMOOTH",
"335 421 OFFCURVE",
"325 420 OFFCURVE",
"312 420 CURVE SMOOTH",
"281 420 LINE",
"306 624 LINE",
"319 626 OFFCURVE",
"329 629 OFFCURVE",
"336 630 CURVE SMOOTH",
"343 631 OFFCURVE",
"348 631 OFFCURVE",
"351 632 CURVE",
"354 632 OFFCURVE",
"357 633 OFFCURVE",
"358 633 CURVE",
"375 637 OFFCURVE",
"384 648 OFFCURVE",
"386 665 CURVE SMOOTH",
"394 723 LINE",
"318 723 LINE",
"184 723 LINE",
"108 723 LINE",
"101 665 LINE SMOOTH",
"99 648 OFFCURVE",
"106 637 OFFCURVE",
"122 633 CURVE",
"123 633 OFFCURVE",
"125 632 OFFCURVE",
"128 632 CURVE SMOOTH",
"131 632 OFFCURVE",
"136 631 OFFCURVE",
"143 630 CURVE SMOOTH",
"150 629 OFFCURVE",
"159 626 OFFCURVE",
"171 624 CURVE",
"107 99 LINE",
"94 97 OFFCURVE",
"84 95 OFFCURVE",
"77 94 CURVE SMOOTH",
"70 93 OFFCURVE",
"64 92 OFFCURVE",
"61 91 CURVE",
"58 91 OFFCURVE",
"56 90 OFFCURVE",
"55 90 CURVE",
"38 86 OFFCURVE",
"28 76 OFFCURVE",
"26 59 CURVE SMOOTH",
"19 0 LINE",
"95 0 LINE",
"229 0 LINE",
"305 0 LINE",
"312 59 LINE SMOOTH",
"314 76 OFFCURVE",
"307 86 OFFCURVE",
"291 90 CURVE",
"290 90 OFFCURVE",
"288 91 OFFCURVE",
"285 91 CURVE SMOOTH",
"282 91 OFFCURVE",
"277 93 OFFCURVE",
"270 94 CURVE SMOOTH",
"263 95 OFFCURVE",
"253 97 OFFCURVE",
"241 99 CURVE",
"268 318 LINE",
"311 318 LINE SMOOTH",
"326 318 OFFCURVE",
"338 316 OFFCURVE",
"346 312 CURVE SMOOTH",
"354 308 OFFCURVE",
"360 302 OFFCURVE",
"366 293 CURVE SMOOTH",
"494 94 LINE",
"489 93 OFFCURVE",
"484 92 OFFCURVE",
"480 91 CURVE SMOOTH",
"476 90 OFFCURVE",
"473 90 OFFCURVE",
"472 90 CURVE",
"455 86 OFFCURVE",
"445 76 OFFCURVE",
"443 59 CURVE SMOOTH",
"436 0 LINE",
"590 0 LINE",
"602 0 LINE",
"641 0 LINE",
"709 0 LINE",
"716 0 LINE",
"724 59 LINE SMOOTH",
"726 76 OFFCURVE",
"719 86 OFFCURVE",
"703 90 CURVE"
);
}
);
width = 798;
}
);
note = K;
unicode = 004B;
},
{
glyphname = L;
lastChange = "2017-01-26 14:38:56 +0000";
layers = (
{
anchors = (
{
name = bottom;
position = "{292, 0}";
},
{
name = center;
position = "{292, 362}";
},
{
name = top;
position = "{292, 723}";
},
{
name = topright;
position = "{564, 723}";
}
);
layerId = "A0CD44AA-8F44-4864-B482-F84B7650FD25";
paths = (
{
closed = 1;
nodes = (
"511 173 LINE SMOOTH",
"498 173 OFFCURVE",
"489 166 OFFCURVE",
"485 154 CURVE",
"484 150 OFFCURVE",
"481 136 OFFCURVE",
"476 111 CURVE",
"243 111 LINE",
"306 624 LINE",
"319 626 OFFCURVE",
"329 628 OFFCURVE",
"336 629 CURVE SMOOTH",
"343 630 OFFCURVE",
"348 631 OFFCURVE",
"351 632 CURVE SMOOTH",
"354 633 OFFCURVE",
"357 633 OFFCURVE",
"358 633 CURVE",
"375 637 OFFCURVE",
"384 647 OFFCURVE",
"386 664 CURVE SMOOTH",
"394 723 LINE",
"318 723 LINE",
"184 723 LINE",
"108 723 LINE",
"101 664 LINE SMOOTH",
"99 647 OFFCURVE",
"106 637 OFFCURVE",
"122 633 CURVE",
"123 633 OFFCURVE",
"125 633 OFFCURVE",
"128 632 CURVE",
"131 632 OFFCURVE",
"135 630 OFFCURVE",
"142 629 CURVE SMOOTH",
"149 628 OFFCURVE",
"159 626 OFFCURVE",
"171 624 CURVE",
"107 99 LINE",
"94 97 OFFCURVE",
"84 95 OFFCURVE",
"77 94 CURVE SMOOTH",
"70 93 OFFCURVE",
"64 91 OFFCURVE",
"61 91 CURVE",
"58 90 OFFCURVE",
"56 90 OFFCURVE",
"55 90 CURVE",
"38 86 OFFCURVE",
"28 76 OFFCURVE",
"26 59 CURVE SMOOTH",
"19 0 LINE",
"95 0 LINE",
"516 0 LINE",
"519 0 LINE",
"543 0 LINE",
"549 53 LINE",
"552 72 LINE",
"564 173 LINE"
);
}
);
width = 584;
}
);
note = L;
unicode = 004C;
},
{
glyphname = M;
lastChange = "2017-01-26 14:38:56 +0000";
layers = (
{
anchors = (
{
name = bottom;
position = "{531, 0}";
},
{
name = top;
position = "{531, 723}";
}
);
layerId = "A0CD44AA-8F44-4864-B482-F84B7650FD25";
paths = (
{
closed = 1;
nodes = (
"1024 637 OFFCURVE",
"1034 647 OFFCURVE",
"1036 664 CURVE SMOOTH",
"1043 723 LINE",
"968 723 LINE",
"866 723 LINE SMOOTH",
"860 723 OFFCURVE",
"854 722 OFFCURVE",
"850 722 CURVE SMOOTH",
"846 722 OFFCURVE",
"842 721 OFFCURVE",
"838 720 CURVE SMOOTH",
"834 719 OFFCURVE",
"831 716 OFFCURVE",
"828 713 CURVE SMOOTH",
"825 710 OFFCURVE",
"821 706 OFFCURVE",
"818 701 CURVE",
"555 301 LINE SMOOTH",
"548 290 OFFCURVE",
"541 280 OFFCURVE",
"535 268 CURVE",
"528 256 OFFCURVE",
"522 244 OFFCURVE",
"516 232 CURVE",
"513 244 OFFCURVE",
"509 256 OFFCURVE",
"506 267 CURVE SMOOTH",
"503 278 OFFCURVE",
"499 289 OFFCURVE",
"495 300 CURVE",
"328 701 LINE SMOOTH",
"326 706 OFFCURVE",
"324 710 OFFCURVE",
"321 713 CURVE SMOOTH",
"318 716 OFFCURVE",
"315 719 OFFCURVE",
"312 720 CURVE SMOOTH",
"309 721 OFFCURVE",
"304 722 OFFCURVE",
"300 722 CURVE SMOOTH",
"296 722 OFFCURVE",
"291 723 OFFCURVE",
"285 723 CURVE SMOOTH",
"184 723 LINE",
"108 723 LINE",
"101 664 LINE SMOOTH",
"99 647 OFFCURVE",
"106 637 OFFCURVE",
"122 633 CURVE",
"123 633 OFFCURVE",
"125 633 OFFCURVE",
"128 632 CURVE",
"131 632 OFFCURVE",
"135 630 OFFCURVE",
"142 629 CURVE SMOOTH",
"149 628 OFFCURVE",
"159 626 OFFCURVE",
"171 624 CURVE",
"107 99 LINE",
"94 97 OFFCURVE",
"84 95 OFFCURVE",
"77 94 CURVE SMOOTH",
"70 93 OFFCURVE",
"64 92 OFFCURVE",
"61 91 CURVE",
"58 91 OFFCURVE",
"56 90 OFFCURVE",
"55 90 CURVE",
"38 86 OFFCURVE",
"28 76 OFFCURVE",
"26 59 CURVE SMOOTH",
"19 0 LINE",
"95 0 LINE",
"213 0 LINE",
"303 0 LINE",
"311 59 LINE SMOOTH",
"313 76 OFFCURVE",
"305 86 OFFCURVE",
"289 90 CURVE",
"287 90 OFFCURVE",
"266 93 OFFCURVE",
"225 99 CURVE",
"271 467 LINE SMOOTH",
"272 476 OFFCURVE",
"272 486 OFFCURVE",
"273 496 CURVE SMOOTH",
"274 507 OFFCURVE",
"275 517 OFFCURVE",
"275 528 CURVE",
"446 117 LINE SMOOTH",
"450 108 OFFCURVE",
"455 100 OFFCURVE",
"462 95 CURVE SMOOTH",
"469 90 OFFCURVE",
"478 87 OFFCURVE",
"489 87 CURVE SMOOTH",
"508 87 LINE SMOOTH",
"519 87 OFFCURVE",
"528 90 OFFCURVE",
"537 95 CURVE SMOOTH",
"546 100 OFFCURVE",
"553 108 OFFCURVE",
"559 117 CURVE SMOOTH",
"828 527 LINE",
"826 516 OFFCURVE",
"824 505 OFFCURVE",
"822 495 CURVE SMOOTH",
"820 485 OFFCURVE",
"819 476 OFFCURVE",
"818 467 CURVE SMOOTH",
"772 99 LINE",
"730 93 OFFCURVE",
"708 90 OFFCURVE",
"706 90 CURVE",
"689 86 OFFCURVE",
"679 76 OFFCURVE",
"677 59 CURVE SMOOTH",
"670 0 LINE",
"760 0 LINE",
"879 0 LINE",
"954 0 LINE",
"962 59 LINE SMOOTH",
"964 76 OFFCURVE",
"957 86 OFFCURVE",
"941 90 CURVE",
"940 90 OFFCURVE",
"937 91 OFFCURVE",
"934 91 CURVE SMOOTH",
"931 91 OFFCURVE",
"927 93 OFFCURVE",
"920 94 CURVE SMOOTH",
"913 95 OFFCURVE",
"903 97 OFFCURVE",
"891 99 CURVE",
"955 624 LINE",
"968 626 OFFCURVE",
"979 628 OFFCURVE",
"986 629 CURVE SMOOTH",
"993 630 OFFCURVE",
"998 632 OFFCURVE",
"1001 632 CURVE SMOOTH",
"1004 632 OFFCURVE",
"1006 633 OFFCURVE",
"1007 633 CURVE"
);
}
);
width = 1062;
}
);
note = M;
unicode = 004D;
},
{
glyphname = N;
lastChange = "2017-01-26 14:38:56 +0000";
layers = (
{
anchors = (
{
name = bottom;
position = "{444, 0}";
},
{
name = top;
position = "{444, 723}";
}
);
layerId = "A0CD44AA-8F44-4864-B482-F84B7650FD25";
paths = (
{
closed = 1;
nodes = (
"794 723 LINE",
"675 723 LINE",
"585 723 LINE",
"578 664 LINE SMOOTH",
"576 647 OFFCURVE",
"583 637 OFFCURVE",
"599 633 CURVE",
"601 633 OFFCURVE",
"622 630 OFFCURVE",
"663 624 CURVE",
"621 284 LINE SMOOTH",
"620 274 OFFCURVE",
"619 263 OFFCURVE",
"618 252 CURVE SMOOTH",
"617 241 OFFCURVE",
"617 230 OFFCURVE",
"617 218 CURVE",
"296 701 LINE",
"293 706 OFFCURVE",
"291 710 OFFCURVE",
"288 713 CURVE SMOOTH",
"285 716 OFFCURVE",
"282 718 OFFCURVE",
"279 719 CURVE",
"276 721 OFFCURVE",
"273 722 OFFCURVE",
"269 722 CURVE SMOOTH",
"265 722 OFFCURVE",
"260 723 OFFCURVE",
"254 723 CURVE SMOOTH",
"184 723 LINE",
"108 723 LINE",
"101 664 LINE SMOOTH",
"99 647 OFFCURVE",
"106 637 OFFCURVE",
"122 633 CURVE",
"123 633 OFFCURVE",
"125 632 OFFCURVE",
"128 632 CURVE SMOOTH",
"131 632 OFFCURVE",
"135 630 OFFCURVE",
"142 629 CURVE SMOOTH",
"149 628 OFFCURVE",
"159 626 OFFCURVE",
"171 624 CURVE",
"107 99 LINE",
"94 97 OFFCURVE",
"84 95 OFFCURVE",
"77 94 CURVE SMOOTH",
"70 93 OFFCURVE",
"64 92 OFFCURVE",
"61 91 CURVE SMOOTH",
"58 90 OFFCURVE",
"56 90 OFFCURVE",
"55 90 CURVE",
"38 86 OFFCURVE",
"28 76 OFFCURVE",
"26 59 CURVE SMOOTH",
"19 0 LINE",
"95 0 LINE",
"213 0 LINE",
"303 0 LINE",
"311 59 LINE SMOOTH",
"313 76 OFFCURVE",
"305 86 OFFCURVE",
"289 90 CURVE",
"287 90 OFFCURVE",
"266 93 OFFCURVE",
"225 99 CURVE",
"268 444 LINE SMOOTH",
"269 453 OFFCURVE",
"270 463 OFFCURVE",
"271 473 CURVE SMOOTH",
"272 483 OFFCURVE",
"272 493 OFFCURVE",
"272 504 CURVE",
"591 23 LINE SMOOTH",
"597 14 OFFCURVE",
"602 8 OFFCURVE",
"609 5 CURVE SMOOTH",
"616 2 OFFCURVE",
"624 0 OFFCURVE",
"635 0 CURVE SMOOTH",
"705 0 LINE",
"781 624 LINE",
"794 626 OFFCURVE",
"805 628 OFFCURVE",
"812 629 CURVE SMOOTH",
"819 630 OFFCURVE",
"824 632 OFFCURVE",
"827 632 CURVE SMOOTH",
"830 632 OFFCURVE",
"831 633 OFFCURVE",
"833 633 CURVE",
"850 637 OFFCURVE",
"860 647 OFFCURVE",
"862 664 CURVE SMOOTH",
"869 723 LINE"
);
}
);
width = 888;
}
);
note = N;
unicode = 004E;
},
{
glyphname = O;
lastChange = "2017-01-26 15:47:16 +0000";
layers = (
{
anchors = (
{
name = bottom;
position = "{390, 0}";
},
{
name = center;
position = "{390, 362}";
},
{
name = ogonek;
position = "{702, 10}";
},
{
name = top;
position = "{390, 723}";
},
{
name = topleft;
position = "{20, 723}";
},
{
name = topright;
position = "{760, 723}";
}
);
layerId = "A0CD44AA-8F44-4864-B482-F84B7650FD25";
paths = (
{
closed = 1;
nodes = (
"763 415 OFFCURVE",
"760 464 OFFCURVE",
"748 509 CURVE SMOOTH",
"736 554 OFFCURVE",
"716 593 OFFCURVE",
"688 626 CURVE SMOOTH",
"660 659 OFFCURVE",
"625 684 OFFCURVE",
"582 703 CURVE SMOOTH",
"539 722 OFFCURVE",
"491 731 OFFCURVE",
"436 731 CURVE SMOOTH",
"381 731 OFFCURVE",
"330 721 OFFCURVE",
"283 703 CURVE SMOOTH",
"236 685 OFFCURVE",
"193 659 OFFCURVE",
"157 626 CURVE SMOOTH",
"121 593 OFFCURVE",
"91 554 OFFCURVE",
"68 509 CURVE SMOOTH",
"45 464 OFFCURVE",
"30 415 OFFCURVE",
"23 362 CURVE SMOOTH",
"16 309 OFFCURVE",
"20 259 OFFCURVE",
"32 214 CURVE SMOOTH",
"44 169 OFFCURVE",
"64 130 OFFCURVE",
"92 97 CURVE SMOOTH",
"120 64 OFFCURVE",
"156 38 OFFCURVE",
"199 20 CURVE SMOOTH",
"242 2 OFFCURVE",
"290 -8 OFFCURVE",
"345 -8 CURVE SMOOTH",
"400 -8 OFFCURVE",
"451 2 OFFCURVE",
"498 20 CURVE SMOOTH",
"545 38 OFFCURVE",
"587 64 OFFCURVE",
"623 97 CURVE SMOOTH",
"659 130 OFFCURVE",
"689 169 OFFCURVE",
"712 214 CURVE SMOOTH",
"735 259 OFFCURVE",
"749 309 OFFCURVE",
"756 362 CURVE SMOOTH"
);
},
{
closed = 1;
nodes = (
"613 322 OFFCURVE",
"604 287 OFFCURVE",
"590 255 CURVE SMOOTH",
"576 223 OFFCURVE",
"556 197 OFFCURVE",
"534 175 CURVE SMOOTH",
"512 153 OFFCURVE",
"487 136 OFFCURVE",
"457 124 CURVE SMOOTH",
"427 112 OFFCURVE",
"394 107 OFFCURVE",
"359 107 CURVE SMOOTH",
"324 107 OFFCURVE",
"293 112 OFFCURVE",
"266 124 CURVE SMOOTH",
"239 136 OFFCURVE",
"217 153 OFFCURVE",
"200 175 CURVE SMOOTH",
"183 197 OFFCURVE",
"171 223 OFFCURVE",
"164 255 CURVE SMOOTH",
"157 287 OFFCURVE",
"156 322 OFFCURVE",
"161 362 CURVE SMOOTH",
"166 402 OFFCURVE",
"175 436 OFFCURVE",
"190 468 CURVE SMOOTH",
"205 500 OFFCURVE",
"223 527 OFFCURVE",
"246 549 CURVE SMOOTH",
"269 571 OFFCURVE",
"294 587 OFFCURVE",
"324 599 CURVE SMOOTH",
"354 611 OFFCURVE",
"387 617 OFFCURVE",
"422 617 CURVE SMOOTH",
"457 617 OFFCURVE",
"488 611 OFFCURVE",
"515 599 CURVE SMOOTH",
"542 587 OFFCURVE",
"563 571 OFFCURVE",
"580 549 CURVE SMOOTH",
"597 527 OFFCURVE",
"609 500 OFFCURVE",
"616 468 CURVE SMOOTH",
"623 436 OFFCURVE",
"623 402 OFFCURVE",
"618 362 CURVE SMOOTH"
);
}
);
width = 780;
}
);
leftKerningGroup = C;
note = O;
rightKerningGroup = D;
unicode = 004F;
},
{
glyphname = P;
lastChange = "2017-01-26 14:38:56 +0000";
layers = (
{
anchors = (
{
name = bottom;
position = "{341, 0}";
},
{
name = top;
position = "{341, 723}";
}
);
layerId = "A0CD44AA-8F44-4864-B482-F84B7650FD25";
paths = (
{
closed = 1;
nodes = (
"646 613 OFFCURVE",
"633 638 OFFCURVE",
"612 658 CURVE SMOOTH",
"591 678 OFFCURVE",
"565 695 OFFCURVE",
"531 706 CURVE SMOOTH",
"497 717 OFFCURVE",
"455 723 OFFCURVE",
"407 723 CURVE SMOOTH",
"184 723 LINE",
"108 723 LINE",
"101 664 LINE SMOOTH",
"99 647 OFFCURVE",
"106 637 OFFCURVE",
"122 633 CURVE",
"123 633 OFFCURVE",
"125 633 OFFCURVE",
"128 632 CURVE",
"131 632 OFFCURVE",
"135 630 OFFCURVE",
"142 629 CURVE SMOOTH",
"149 628 OFFCURVE",
"159 626 OFFCURVE",
"171 624 CURVE",
"107 99 LINE",
"94 97 OFFCURVE",
"84 95 OFFCURVE",
"77 94 CURVE SMOOTH",
"70 93 OFFCURVE",
"64 92 OFFCURVE",
"61 91 CURVE",
"58 91 OFFCURVE",
"56 90 OFFCURVE",
"55 90 CURVE",
"38 86 OFFCURVE",
"28 76 OFFCURVE",
"26 59 CURVE SMOOTH",
"19 0 LINE",
"95 0 LINE",
"229 0 LINE",
"305 0 LINE",
"312 59 LINE SMOOTH",
"314 76 OFFCURVE",
"307 86 OFFCURVE",
"291 90 CURVE",
"290 90 OFFCURVE",
"288 91 OFFCURVE",
"285 91 CURVE SMOOTH",
"282 91 OFFCURVE",
"277 93 OFFCURVE",
"270 94 CURVE SMOOTH",
"263 95 OFFCURVE",
"253 97 OFFCURVE",
"241 99 CURVE",
"260 255 LINE",
"350 255 LINE SMOOTH",
"397 255 OFFCURVE",
"439 260 OFFCURVE",
"475 272 CURVE SMOOTH",
"511 284 OFFCURVE",
"542 300 OFFCURVE",
"568 321 CURVE SMOOTH",
"594 342 OFFCURVE",
"615 367 OFFCURVE",
"630 396 CURVE SMOOTH",
"645 425 OFFCURVE",
"655 457 OFFCURVE",
"659 492 CURVE SMOOTH",
"663 526 OFFCURVE",
"662 557 OFFCURVE",
"654 585 CURVE SMOOTH"
);
},
{
closed = 1;
nodes = (
"501 420 OFFCURVE",
"490 406 OFFCURVE",
"477 395 CURVE",
"464 383 OFFCURVE",
"447 375 OFFCURVE",
"428 369 CURVE SMOOTH",
"409 363 OFFCURVE",
"388 360 OFFCURVE",
"363 360 CURVE SMOOTH",
"273 360 LINE",
"305 619 LINE",
"394 619 LINE SMOOTH",
"419 619 OFFCURVE",
"440 616 OFFCURVE",
"458 610 CURVE SMOOTH",
"476 604 OFFCURVE",
"489 596 OFFCURVE",
"500 585 CURVE SMOOTH",
"511 574 OFFCURVE",
"518 561 OFFCURVE",
"522 545 CURVE SMOOTH",
"526 529 OFFCURVE",
"527 512 OFFCURVE",
"525 493 CURVE SMOOTH",
"523 473 OFFCURVE",
"517 453 OFFCURVE",
"509 437 CURVE SMOOTH"
);
}
);
width = 681;
}
);
note = P;
unicode = 0050;
},
{
glyphname = Q;
lastChange = "2017-01-26 15:47:16 +0000";
layers = (
{
anchors = (
{
name = bottom;
position = "{390, 0}";
},
{
name = top;
position = "{390, 723}";
}
);
layerId = "A0CD44AA-8F44-4864-B482-F84B7650FD25";
paths = (
{
closed = 1;
nodes = (
"763 415 OFFCURVE",
"760 464 OFFCURVE",
"748 509 CURVE SMOOTH",
"736 554 OFFCURVE",
"716 593 OFFCURVE",
"688 626 CURVE SMOOTH",
"660 659 OFFCURVE",
"625 684 OFFCURVE",
"582 703 CURVE SMOOTH",
"539 722 OFFCURVE",
"491 731 OFFCURVE",
"436 731 CURVE SMOOTH",
"381 731 OFFCURVE",
"330 721 OFFCURVE",
"283 703 CURVE SMOOTH",
"236 685 OFFCURVE",
"193 659 OFFCURVE",
"157 626 CURVE SMOOTH",
"121 593 OFFCURVE",
"91 554 OFFCURVE",
"68 509 CURVE SMOOTH",
"45 464 OFFCURVE",
"30 415 OFFCURVE",
"23 362 CURVE SMOOTH",
"16 309 OFFCURVE",
"20 259 OFFCURVE",
"32 214 CURVE SMOOTH",
"44 169 OFFCURVE",
"64 130 OFFCURVE",
"92 97 CURVE SMOOTH",
"120 64 OFFCURVE",
"156 38 OFFCURVE",
"199 20 CURVE SMOOTH",
"242 2 OFFCURVE",
"290 -8 OFFCURVE",
"345 -8 CURVE SMOOTH",
"364 -8 OFFCURVE",
"383 -6 OFFCURVE",
"401 -4 CURVE SMOOTH",
"419 -2 OFFCURVE",
"437 1 OFFCURVE",
"455 6 CURVE",
"546 -111 LINE SMOOTH",
"555 -123 OFFCURVE",
"567 -131 OFFCURVE",
"579 -135 CURVE SMOOTH",
"591 -139 OFFCURVE",
"605 -142 OFFCURVE",
"621 -142 CURVE SMOOTH",
"732 -142 LINE",
"573 58 LINE",
"598 74 OFFCURVE",
"621 93 OFFCURVE",
"642 115 CURVE SMOOTH",
"663 137 OFFCURVE",
"680 160 OFFCURVE",
"696 186 CURVE SMOOTH",
"712 212 OFFCURVE",
"725 239 OFFCURVE",
"735 269 CURVE SMOOTH",
"745 299 OFFCURVE",
"752 330 OFFCURVE",
"756 362 CURVE SMOOTH"
);
},
{
closed = 1;
nodes = (
"613 322 OFFCURVE",
"604 287 OFFCURVE",
"590 255 CURVE SMOOTH",
"576 223 OFFCURVE",
"556 197 OFFCURVE",
"534 175 CURVE SMOOTH",
"512 153 OFFCURVE",
"487 136 OFFCURVE",
"457 124 CURVE SMOOTH",
"427 112 OFFCURVE",
"394 107 OFFCURVE",
"359 107 CURVE SMOOTH",
"324 107 OFFCURVE",
"293 112 OFFCURVE",
"266 124 CURVE SMOOTH",
"239 136 OFFCURVE",
"217 153 OFFCURVE",
"200 175 CURVE SMOOTH",
"183 197 OFFCURVE",
"171 223 OFFCURVE",
"164 255 CURVE SMOOTH",
"157 287 OFFCURVE",
"156 322 OFFCURVE",
"161 362 CURVE SMOOTH",
"166 402 OFFCURVE",
"175 436 OFFCURVE",
"190 468 CURVE SMOOTH",
"205 500 OFFCURVE",
"223 527 OFFCURVE",
"246 549 CURVE SMOOTH",
"269 571 OFFCURVE",
"294 587 OFFCURVE",
"324 599 CURVE SMOOTH",
"354 611 OFFCURVE",
"387 617 OFFCURVE",
"422 617 CURVE SMOOTH",
"457 617 OFFCURVE",
"488 611 OFFCURVE",
"515 599 CURVE SMOOTH",
"542 587 OFFCURVE",
"563 571 OFFCURVE",
"580 549 CURVE SMOOTH",
"597 527 OFFCURVE",
"609 500 OFFCURVE",
"616 468 CURVE SMOOTH",
"623 436 OFFCURVE",
"623 402 OFFCURVE",
"618 362 CURVE SMOOTH"
);
}
);
width = 780;
}
);
leftKerningGroup = C;
note = Q;
rightKerningGroup = Q;
unicode = 0051;
},
{
glyphname = R;
lastChange = "2017-01-26 14:38:56 +0000";
layers = (
{
anchors = (
{
name = bottom;
position = "{347, 0}";
},
{
name = top;
position = "{347, 723}";
}
);
layerId = "A0CD44AA-8F44-4864-B482-F84B7650FD25";
paths = (
{
closed = 1;
nodes = (
"651 90 OFFCURVE",
"649 91 OFFCURVE",
"645 91 CURVE SMOOTH",
"641 91 OFFCURVE",
"635 93 OFFCURVE",
"627 94 CURVE SMOOTH",
"619 95 OFFCURVE",
"609 97 OFFCURVE",
"597 99 CURVE",
"504 267 LINE SMOOTH",
"494 285 OFFCURVE",
"481 299 OFFCURVE",
"465 309 CURVE",
"491 317 OFFCURVE",
"516 328 OFFCURVE",
"537 341 CURVE SMOOTH",
"558 354 OFFCURVE",
"576 369 OFFCURVE",
"592 387 CURVE SMOOTH",
"608 405 OFFCURVE",
"621 424 OFFCURVE",
"631 446 CURVE SMOOTH",
"641 468 OFFCURVE",
"647 491 OFFCURVE",
"650 515 CURVE SMOOTH",
"654 546 OFFCURVE",
"651 574 OFFCURVE",
"644 599 CURVE SMOOTH",
"637 624 OFFCURVE",
"623 647 OFFCURVE",
"603 665 CURVE SMOOTH",
"583 683 OFFCURVE",
"556 698 OFFCURVE",
"522 708 CURVE SMOOTH",
"488 718 OFFCURVE",
"446 723 OFFCURVE",
"397 723 CURVE SMOOTH",
"184 723 LINE",
"108 723 LINE",
"101 664 LINE SMOOTH",
"99 647 OFFCURVE",
"106 637 OFFCURVE",
"122 633 CURVE",
"123 633 OFFCURVE",
"125 632 OFFCURVE",
"128 632 CURVE SMOOTH",
"131 632 OFFCURVE",
"135 630 OFFCURVE",
"142 629 CURVE SMOOTH",
"149 628 OFFCURVE",
"159 626 OFFCURVE",
"171 624 CURVE",
"107 99 LINE",
"94 97 OFFCURVE",
"84 95 OFFCURVE",
"77 94 CURVE SMOOTH",
"70 93 OFFCURVE",
"64 92 OFFCURVE",
"61 91 CURVE SMOOTH",
"58 90 OFFCURVE",
"56 90 OFFCURVE",
"55 90 CURVE",
"38 86 OFFCURVE",
"28 76 OFFCURVE",
"26 59 CURVE SMOOTH",
"19 0 LINE",
"95 0 LINE",
"229 0 LINE",
"305 0 LINE",
"312 59 LINE SMOOTH",
"314 76 OFFCURVE",
"307 86 OFFCURVE",
"291 90 CURVE",
"290 90 OFFCURVE",
"288 91 OFFCURVE",
"285 91 CURVE SMOOTH",
"282 91 OFFCURVE",
"277 93 OFFCURVE",
"270 94 CURVE SMOOTH",
"263 95 OFFCURVE",
"253 97 OFFCURVE",
"241 99 CURVE",
"264 283 LINE",
"314 283 LINE SMOOTH",
"327 283 OFFCURVE",
"338 281 OFFCURVE",
"344 277 CURVE SMOOTH",
"350 273 OFFCURVE",
"355 268 OFFCURVE",
"360 259 CURVE SMOOTH",
"484 27 LINE SMOOTH",
"489 18 OFFCURVE",
"494 12 OFFCURVE",
"502 7 CURVE SMOOTH",
"510 2 OFFCURVE",
"519 0 OFFCURVE",
"531 0 CURVE SMOOTH",
"590 0 LINE",
"652 0 LINE",
"666 0 LINE",
"673 59 LINE SMOOTH",
"675 76 OFFCURVE",
"668 86 OFFCURVE",
"652 90 CURVE"
);
},
{
closed = 1;
nodes = (
"400 383 OFFCURVE",
"378 379 OFFCURVE",
"353 379 CURVE SMOOTH",
"276 379 LINE",
"305 619 LINE",
"384 619 LINE SMOOTH",
"434 619 OFFCURVE",
"469 610 OFFCURVE",
"491 590 CURVE SMOOTH",
"513 570 OFFCURVE",
"521 542 OFFCURVE",
"517 505 CURVE SMOOTH",
"515 487 OFFCURVE",
"510 470 OFFCURVE",
"502 455 CURVE SMOOTH",
"494 440 OFFCURVE",
"484 426 OFFCURVE",
"470 415 CURVE SMOOTH",
"456 404 OFFCURVE",
"440 395 OFFCURVE",
"420 389 CURVE SMOOTH"
);
}
);
width = 694;
}
);
note = R;
unicode = 0052;
},
{
glyphname = S;
lastChange = "2017-01-26 15:47:16 +0000";
layers = (
{
anchors = (
{
name = bottom;
position = "{288, 0}";
},
{
name = top;
position = "{288, 723}";
}
);
layerId = "A0CD44AA-8F44-4864-B482-F84B7650FD25";
paths = (
{
closed = 1;
nodes = (
"505 324 OFFCURVE",
"494 341 OFFCURVE",
"480 356 CURVE SMOOTH",
"466 371 OFFCURVE",
"450 383 OFFCURVE",
"431 392 CURVE SMOOTH",
"412 401 OFFCURVE",
"393 410 OFFCURVE",
"373 417 CURVE SMOOTH",
"353 424 OFFCURVE",
"333 431 OFFCURVE",
"314 437 CURVE SMOOTH",
"295 443 OFFCURVE",
"279 451 OFFCURVE",
"264 459 CURVE SMOOTH",
"249 467 OFFCURVE",
"237 477 OFFCURVE",
"229 488 CURVE SMOOTH",
"221 499 OFFCURVE",
"218 513 OFFCURVE",
"220 530 CURVE",
"222 543 OFFCURVE",
"226 556 OFFCURVE",
"232 567 CURVE SMOOTH",
"238 578 OFFCURVE",
"247 588 OFFCURVE",
"257 596 CURVE SMOOTH",
"267 604 OFFCURVE",
"280 610 OFFCURVE",
"294 615 CURVE",
"308 619 OFFCURVE",
"325 621 OFFCURVE",
"344 621 CURVE SMOOTH",
"396 621 OFFCURVE",
"434 616 OFFCURVE",
"458 605 CURVE",
"457 560 OFFCURVE",
"457 533 OFFCURVE",
"457 524 CURVE",
"458 512 OFFCURVE",
"465 505 OFFCURVE",
"478 505 CURVE SMOOTH",
"519 505 LINE",
"531 505 LINE",
"535 505 LINE",
"558 690 LINE",
"494 717 OFFCURVE",
"426 731 OFFCURVE",
"355 731 CURVE SMOOTH",
"317 731 OFFCURVE",
"284 725 OFFCURVE",
"253 713 CURVE SMOOTH",
"222 701 OFFCURVE",
"196 686 OFFCURVE",
"173 667 CURVE SMOOTH",
"150 648 OFFCURVE",
"133 625 OFFCURVE",
"119 600 CURVE SMOOTH",
"105 575 OFFCURVE",
"96 549 OFFCURVE",
"93 523 CURVE SMOOTH",
"89 490 OFFCURVE",
"91 462 OFFCURVE",
"98 440 CURVE SMOOTH",
"105 417 OFFCURVE",
"114 399 OFFCURVE",
"128 384 CURVE SMOOTH",
"142 369 OFFCURVE",
"158 356 OFFCURVE",
"177 347 CURVE SMOOTH",
"196 338 OFFCURVE",
"215 330 OFFCURVE",
"235 323 CURVE SMOOTH",
"255 316 OFFCURVE",
"274 311 OFFCURVE",
"294 305 CURVE SMOOTH",
"313 299 OFFCURVE",
"330 292 OFFCURVE",
"345 284 CURVE SMOOTH",
"360 276 OFFCURVE",
"371 266 OFFCURVE",
"379 254 CURVE SMOOTH",
"387 242 OFFCURVE",
"390 226 OFFCURVE",
"388 207 CURVE SMOOTH",
"384 173 OFFCURVE",
"370 147 OFFCURVE",
"347 129 CURVE SMOOTH",
"324 111 OFFCURVE",
"292 102 OFFCURVE",
"254 102 CURVE SMOOTH",
"192 102 OFFCURVE",
"147 106 OFFCURVE",
"119 115 CURVE",
"120 161 OFFCURVE",
"120 189 OFFCURVE",
"120 198 CURVE",
"119 210 OFFCURVE",
"112 216 OFFCURVE",
"99 216 CURVE SMOOTH",
"58 216 LINE",
"46 216 LINE",
"42 216 LINE",
"21 48 LINE",
"19 30 LINE",
"90 5 OFFCURVE",
"158 -8 OFFCURVE",
"222 -8 CURVE SMOOTH",
"237 -8 LINE SMOOTH",
"277 -8 OFFCURVE",
"313 -2 OFFCURVE",
"345 10 CURVE SMOOTH",
"378 22 OFFCURVE",
"406 39 OFFCURVE",
"430 60 CURVE SMOOTH",
"454 81 OFFCURVE",
"473 106 OFFCURVE",
"488 135 CURVE SMOOTH",
"503 164 OFFCURVE",
"513 193 OFFCURVE",
"517 226 CURVE SMOOTH",
"521 256 OFFCURVE",
"519 282 OFFCURVE",
"512 303 CURVE SMOOTH"
);
}
);
width = 576;
}
);
leftKerningGroup = S;
note = S;
rightKerningGroup = S;
unicode = 0053;
},
{
glyphname = T;
lastChange = "2017-01-26 15:47:16 +0000";
layers = (
{
anchors = (
{
name = bottom;
position = "{330, 0}";
},
{
name = center;
position = "{330, 362}";
},
{
name = top;
position = "{330, 723}";
}
);
layerId = "A0CD44AA-8F44-4864-B482-F84B7650FD25";
paths = (
{
closed = 1;
nodes = (
"624 723 LINE",
"624 723 LINE",
"55 723 LINE",
"54 723 LINE",
"39 723 LINE",
"18 552 LINE",
"22 552 LINE",
"34 552 LINE",
"76 552 LINE SMOOTH",
"89 552 OFFCURVE",
"97 559 OFFCURVE",
"101 571 CURVE SMOOTH",
"103 577 OFFCURVE",
"106 591 OFFCURVE",
"111 613 CURVE",
"259 613 LINE",
"196 99 LINE",
"183 97 OFFCURVE",
"173 95 OFFCURVE",
"166 94 CURVE SMOOTH",
"159 93 OFFCURVE",
"153 91 OFFCURVE",
"150 91 CURVE SMOOTH",
"147 91 OFFCURVE",
"145 90 OFFCURVE",
"144 90 CURVE",
"127 86 OFFCURVE",
"117 76 OFFCURVE",
"115 59 CURVE SMOOTH",
"108 0 LINE",
"184 0 LINE",
"318 0 LINE",
"394 0 LINE",
"401 59 LINE SMOOTH",
"403 76 OFFCURVE",
"396 86 OFFCURVE",
"380 90 CURVE",
"379 90 OFFCURVE",
"377 91 OFFCURVE",
"374 91 CURVE SMOOTH",
"371 91 OFFCURVE",
"366 93 OFFCURVE",
"359 94 CURVE SMOOTH",
"352 95 OFFCURVE",
"342 97 OFFCURVE",
"330 99 CURVE",
"393 613 LINE",
"541 613 LINE",
"541 571 LINE",
"542 559 OFFCURVE",
"549 552 OFFCURVE",
"562 552 CURVE SMOOTH",
"603 552 LINE",
"615 552 LINE",
"619 552 LINE",
"640 723 LINE"
);
}
);
width = 659;
}
);
leftKerningGroup = T;
note = T;
rightKerningGroup = T;
unicode = 0054;
},
{
glyphname = U;
lastChange = "2017-01-26 15:47:16 +0000";
layers = (
{
anchors = (
{
name = bottom;
position = "{399, 0}";
},
{
name = ogonek;
position = "{717, 10}";
},
{
name = top;
position = "{399, 723}";
},
{
name = topright;
position = "{777, 723}";
}
);
layerId = "A0CD44AA-8F44-4864-B482-F84B7650FD25";
paths = (
{
closed = 1;
nodes = (
"703 723 LINE",
"568 723 LINE",
"488 723 LINE",
"481 664 LINE SMOOTH",
"479 647 OFFCURVE",
"486 637 OFFCURVE",
"502 633 CURVE",
"503 633 OFFCURVE",
"506 632 OFFCURVE",
"509 632 CURVE SMOOTH",
"512 632 OFFCURVE",
"518 630 OFFCURVE",
"526 629 CURVE SMOOTH",
"534 628 OFFCURVE",
"544 626 OFFCURVE",
"556 624 CURVE",
"515 290 LINE SMOOTH",
"512 262 OFFCURVE",
"505 237 OFFCURVE",
"495 215 CURVE SMOOTH",
"485 193 OFFCURVE",
"471 174 OFFCURVE",
"455 158 CURVE SMOOTH",
"439 142 OFFCURVE",
"421 131 OFFCURVE",
"399 122 CURVE SMOOTH",
"377 113 OFFCURVE",
"353 109 OFFCURVE",
"327 109 CURVE SMOOTH",
"301 109 OFFCURVE",
"278 113 OFFCURVE",
"259 122 CURVE SMOOTH",
"240 131 OFFCURVE",
"224 142 OFFCURVE",
"212 158 CURVE SMOOTH",
"200 174 OFFCURVE",
"192 194 OFFCURVE",
"187 216 CURVE SMOOTH",
"182 238 OFFCURVE",
"182 263 OFFCURVE",
"185 291 CURVE SMOOTH",
"226 624 LINE",
"239 626 OFFCURVE",
"249 628 OFFCURVE",
"257 629 CURVE SMOOTH",
"265 630 OFFCURVE",
"271 632 OFFCURVE",
"274 632 CURVE SMOOTH",
"277 632 OFFCURVE",
"280 633 OFFCURVE",
"282 633 CURVE",
"299 637 OFFCURVE",
"309 647 OFFCURVE",
"311 664 CURVE SMOOTH",
"318 723 LINE",
"238 723 LINE",
"103 723 LINE",
"28 723 LINE",
"20 664 LINE SMOOTH",
"18 647 OFFCURVE",
"26 637 OFFCURVE",
"42 633 CURVE",
"43 633 OFFCURVE",
"45 632 OFFCURVE",
"48 632 CURVE SMOOTH",
"51 632 OFFCURVE",
"55 630 OFFCURVE",
"62 629 CURVE SMOOTH",
"69 628 OFFCURVE",
"79 626 OFFCURVE",
"91 624 CURVE",
"50 290 LINE SMOOTH",
"45 247 OFFCURVE",
"47 207 OFFCURVE",
"56 171 CURVE SMOOTH",
"65 135 OFFCURVE",
"81 103 OFFCURVE",
"104 76 CURVE SMOOTH",
"127 50 OFFCURVE",
"156 29 OFFCURVE",
"191 14 CURVE SMOOTH",
"226 -1 OFFCURVE",
"267 -8 OFFCURVE",
"313 -8 CURVE SMOOTH",
"359 -8 OFFCURVE",
"402 -1 OFFCURVE",
"441 14 CURVE SMOOTH",
"480 29 OFFCURVE",
"514 50 OFFCURVE",
"543 76 CURVE SMOOTH",
"572 103 OFFCURVE",
"596 135 OFFCURVE",
"614 171 CURVE SMOOTH",
"632 207 OFFCURVE",
"645 247 OFFCURVE",
"650 290 CURVE SMOOTH",
"691 624 LINE",
"704 626 OFFCURVE",
"714 628 OFFCURVE",
"721 629 CURVE SMOOTH",
"728 630 OFFCURVE",
"733 632 OFFCURVE",
"736 632 CURVE SMOOTH",
"739 632 OFFCURVE",
"740 633 OFFCURVE",
"742 633 CURVE",
"759 637 OFFCURVE",
"769 647 OFFCURVE",
"771 664 CURVE SMOOTH",
"779 723 LINE"
);
}
);
width = 797;
}
);
leftKerningGroup = U;
note = U;
rightKerningGroup = J;
unicode = 0055;
},
{
glyphname = V;
lastChange = "2017-01-26 14:38:56 +0000";
layers = (
{
anchors = (
{
name = bottom;
position = "{411, 0}";
},
{
name = top;
position = "{411, 723}";
}
);
layerId = "A0CD44AA-8F44-4864-B482-F84B7650FD25";
paths = (
{
closed = 1;
nodes = (
"768 723 LINE",
"727 723 LINE",
"660 723 LINE",
"532 723 LINE",
"525 664 LINE SMOOTH",
"523 647 OFFCURVE",
"530 637 OFFCURVE",
"546 633 CURVE",
"547 633 OFFCURVE",
"549 633 OFFCURVE",
"551 632 CURVE SMOOTH",
"553 631 OFFCURVE",
"556 630 OFFCURVE",
"561 629 CURVE SMOOTH",
"566 628 OFFCURVE",
"571 626 OFFCURVE",
"577 625 CURVE",
"388 252 LINE SMOOTH",
"373 223 OFFCURVE",
"359 188 OFFCURVE",
"347 150 CURVE",
"345 169 OFFCURVE",
"342 187 OFFCURVE",
"339 204 CURVE SMOOTH",
"336 221 OFFCURVE",
"332 238 OFFCURVE",
"328 252 CURVE SMOOTH",
"230 625 LINE",
"236 626 OFFCURVE",
"241 628 OFFCURVE",
"246 629 CURVE SMOOTH",
"251 630 OFFCURVE",
"255 631 OFFCURVE",
"257 632 CURVE SMOOTH",
"259 633 OFFCURVE",
"261 633 OFFCURVE",
"262 633 CURVE",
"279 637 OFFCURVE",
"289 647 OFFCURVE",
"291 664 CURVE SMOOTH",
"298 723 LINE",
"171 723 LINE",
"104 723 LINE",
"63 723 LINE",
"28 723 LINE",
"21 664 LINE SMOOTH",
"19 647 OFFCURVE",
"26 637 OFFCURVE",
"42 633 CURVE",
"43 633 OFFCURVE",
"45 633 OFFCURVE",
"48 632 CURVE",
"51 632 OFFCURVE",
"55 630 OFFCURVE",
"62 629 CURVE SMOOTH",
"69 628 OFFCURVE",
"78 626 OFFCURVE",
"90 624 CURVE",
"266 0 LINE",
"387 0 LINE",
"716 624 LINE",
"728 626 OFFCURVE",
"738 628 OFFCURVE",
"745 629 CURVE SMOOTH",
"752 630 OFFCURVE",
"757 632 OFFCURVE",
"760 632 CURVE SMOOTH",
"763 632 OFFCURVE",
"764 633 OFFCURVE",
"766 633 CURVE",
"783 637 OFFCURVE",
"793 647 OFFCURVE",
"795 664 CURVE SMOOTH",
"802 723 LINE"
);
}
);
width = 821;
}
);
leftKerningGroup = V;
note = V;
rightKerningGroup = V;
unicode = 0056;
},
{
glyphname = W;
lastChange = "2017-01-26 15:47:16 +0000";
layers = (
{
anchors = (
{
name = bottom;
position = "{575, 0}";
},
{
name = top;
position = "{575, 723}";
}
);
layerId = "A0CD44AA-8F44-4864-B482-F84B7650FD25";
paths = (
{
closed = 1;
nodes = (
"1097 723 LINE",
"1055 723 LINE",
"991 723 LINE",
"861 723 LINE",
"853 664 LINE SMOOTH",
"851 647 OFFCURVE",
"859 637 OFFCURVE",
"875 633 CURVE SMOOTH",
"892 629 OFFCURVE",
"905 626 OFFCURVE",
"915 624 CURVE",
"767 260 LINE SMOOTH",
"763 250 OFFCURVE",
"759 238 OFFCURVE",
"755 226 CURVE SMOOTH",
"751 214 OFFCURVE",
"747 202 OFFCURVE",
"743 189 CURVE",
"741 215 OFFCURVE",
"738 239 OFFCURVE",
"733 260 CURVE SMOOTH",
"645 692 LINE SMOOTH",
"643 701 OFFCURVE",
"639 709 OFFCURVE",
"632 715 CURVE",
"625 720 OFFCURVE",
"616 723 OFFCURVE",
"604 723 CURVE SMOOTH",
"564 723 LINE SMOOTH",
"553 723 OFFCURVE",
"543 719 OFFCURVE",
"534 713 CURVE SMOOTH",
"525 707 OFFCURVE",
"520 700 OFFCURVE",
"516 692 CURVE",
"321 260 LINE SMOOTH",
"316 249 OFFCURVE",
"311 238 OFFCURVE",
"306 225 CURVE SMOOTH",
"301 213 OFFCURVE",
"297 199 OFFCURVE",
"293 185 CURVE",
"292 199 OFFCURVE",
"291 213 OFFCURVE",
"290 225 CURVE SMOOTH",
"289 237 OFFCURVE",
"288 249 OFFCURVE",
"286 260 CURVE SMOOTH",
"227 625 LINE",
"234 627 OFFCURVE",
"240 628 OFFCURVE",
"245 629 CURVE SMOOTH",
"250 630 OFFCURVE",
"254 631 OFFCURVE",
"256 632 CURVE SMOOTH",
"258 633 OFFCURVE",
"261 633 OFFCURVE",
"262 633 CURVE",
"279 637 OFFCURVE",
"288 647 OFFCURVE",
"290 664 CURVE SMOOTH",
"298 723 LINE",
"175 723 LINE",
"103 723 LINE",
"62 723 LINE",
"28 723 LINE",
"20 664 LINE SMOOTH",
"18 647 OFFCURVE",
"26 637 OFFCURVE",
"42 633 CURVE",
"43 633 OFFCURVE",
"45 632 OFFCURVE",
"52 631 CURVE SMOOTH",
"59 630 OFFCURVE",
"68 628 OFFCURVE",
"80 626 CURVE",
"198 0 LINE",
"319 0 LINE",
"539 494 LINE",
"542 500 OFFCURVE",
"545 506 OFFCURVE",
"548 514 CURVE",
"551 521 OFFCURVE",
"554 530 OFFCURVE",
"557 538 CURVE",
"558 530 OFFCURVE",
"560 521 OFFCURVE",
"561 514 CURVE SMOOTH",
"562 507 OFFCURVE",
"563 500 OFFCURVE",
"564 494 CURVE SMOOTH",
"662 0 LINE",
"783 0 LINE",
"1054 626 LINE",
"1067 628 OFFCURVE",
"1076 630 OFFCURVE",
"1083 631 CURVE SMOOTH",
"1090 632 OFFCURVE",
"1094 633 OFFCURVE",
"1095 633 CURVE",
"1112 637 OFFCURVE",
"1122 647 OFFCURVE",
"1124 664 CURVE SMOOTH",
"1131 723 LINE"
);
}
);
width = 1149;
}
);
leftKerningGroup = V;
note = W;
rightKerningGroup = V;
unicode = 0057;
},
{
glyphname = X;
lastChange = "2017-01-26 15:47:16 +0000";
layers = (
{
anchors = (
{
name = bottom;
position = "{429, 0}";
},
{
name = top;
position = "{429, 723}";
}
);
layerId = "A0CD44AA-8F44-4864-B482-F84B7650FD25";
paths = (
{
closed = 1;
nodes = (
"742 91 OFFCURVE",
"716 94 OFFCURVE",
"672 99 CURVE",
"530 378 LINE",
"726 624 LINE",
"772 629 OFFCURVE",
"798 632 OFFCURVE",
"804 633 CURVE",
"821 637 OFFCURVE",
"831 647 OFFCURVE",
"833 664 CURVE SMOOTH",
"840 723 LINE",
"805 723 LINE",
"770 723 LINE",
"760 723 LINE",
"676 723 LINE",
"535 723 LINE",
"527 664 LINE SMOOTH",
"525 647 OFFCURVE",
"533 637 OFFCURVE",
"549 633 CURVE SMOOTH",
"565 629 OFFCURVE",
"577 627 OFFCURVE",
"585 625 CURVE",
"466 467 LINE SMOOTH",
"463 463 OFFCURVE",
"460 458 OFFCURVE",
"457 454 CURVE SMOOTH",
"454 450 OFFCURVE",
"452 445 OFFCURVE",
"450 441 CURVE",
"359 626 LINE",
"365 627 OFFCURVE",
"376 630 OFFCURVE",
"393 633 CURVE",
"410 637 OFFCURVE",
"420 647 OFFCURVE",
"422 664 CURVE SMOOTH",
"429 723 LINE",
"289 723 LINE",
"198 723 LINE",
"193 723 LINE",
"155 723 LINE",
"118 723 LINE",
"111 664 LINE SMOOTH",
"109 647 OFFCURVE",
"116 637 OFFCURVE",
"132 633 CURVE",
"137 632 OFFCURVE",
"163 629 OFFCURVE",
"208 624 CURVE",
"342 372 LINE",
"132 99 LINE",
"86 94 OFFCURVE",
"62 91 OFFCURVE",
"56 90 CURVE",
"39 86 OFFCURVE",
"29 76 OFFCURVE",
"27 59 CURVE SMOOTH",
"20 0 LINE",
"56 0 LINE",
"94 0 LINE",
"100 0 LINE",
"182 0 LINE",
"330 0 LINE",
"337 59 LINE SMOOTH",
"339 76 OFFCURVE",
"332 86 OFFCURVE",
"316 90 CURVE SMOOTH",
"299 94 OFFCURVE",
"285 97 OFFCURVE",
"275 99 CURVE",
"410 279 LINE",
"412 282 OFFCURVE",
"415 285 OFFCURVE",
"417 289 CURVE",
"419 292 OFFCURVE",
"420 296 OFFCURVE",
"422 300 CURVE",
"521 96 LINE",
"517 95 OFFCURVE",
"506 93 OFFCURVE",
"490 90 CURVE",
"473 86 OFFCURVE",
"464 76 OFFCURVE",
"462 59 CURVE SMOOTH",
"454 0 LINE",
"589 0 LINE",
"681 0 LINE",
"690 0 LINE",
"723 0 LINE",
"761 0 LINE",
"768 59 LINE SMOOTH",
"770 76 OFFCURVE",
"763 86 OFFCURVE",
"747 90 CURVE"
);
}
);
width = 858;
}
);
leftKerningGroup = X;
note = X;
rightKerningGroup = K;
unicode = 0058;
},
{
glyphname = Y;
lastChange = "2017-01-26 14:38:56 +0000";
layers = (
{
anchors = (
{
name = bottom;
position = "{371, 0}";
},
{
name = top;
position = "{371, 723}";
},
{
name = topleft;
position = "{20, 723}";
}
);
layerId = "A0CD44AA-8F44-4864-B482-F84B7650FD25";
paths = (
{
closed = 1;
nodes = (
"706 723 LINE",
"688 723 LINE",
"646 723 LINE",
"587 723 LINE",
"452 723 LINE",
"445 664 LINE SMOOTH",
"443 647 OFFCURVE",
"450 637 OFFCURVE",
"466 633 CURVE",
"467 633 OFFCURVE",
"468 633 OFFCURVE",
"470 632 CURVE",
"472 632 OFFCURVE",
"476 630 OFFCURVE",
"480 629 CURVE SMOOTH",
"484 628 OFFCURVE",
"489 627 OFFCURVE",
"494 626 CURVE",
"377 451 LINE SMOOTH",
"368 437 OFFCURVE",
"360 424 OFFCURVE",
"353 411 CURVE SMOOTH",
"346 398 OFFCURVE",
"339 386 OFFCURVE",
"333 373 CURVE",
"330 385 OFFCURVE",
"326 398 OFFCURVE",
"322 411 CURVE SMOOTH",
"318 424 OFFCURVE",
"313 437 OFFCURVE",
"307 451 CURVE SMOOTH",
"233 626 LINE",
"238 627 OFFCURVE",
"244 628 OFFCURVE",
"248 629 CURVE SMOOTH",
"252 630 OFFCURVE",
"255 631 OFFCURVE",
"257 632 CURVE",
"259 632 OFFCURVE",
"261 633 OFFCURVE",
"262 633 CURVE",
"279 637 OFFCURVE",
"289 647 OFFCURVE",
"291 664 CURVE SMOOTH",
"298 723 LINE",
"163 723 LINE",
"104 723 LINE",
"63 723 LINE",
"45 723 LINE",
"28 723 LINE",
"21 664 LINE SMOOTH",
"19 647 OFFCURVE",
"26 637 OFFCURVE",
"42 633 CURVE",
"43 633 OFFCURVE",
"45 633 OFFCURVE",
"48 632 CURVE",
"51 632 OFFCURVE",
"56 630 OFFCURVE",
"63 629 CURVE SMOOTH",
"70 628 OFFCURVE",
"80 626 OFFCURVE",
"92 624 CURVE",
"254 281 LINE",
"232 99 LINE",
"219 97 OFFCURVE",
"208 95 OFFCURVE",
"201 94 CURVE SMOOTH",
"194 93 OFFCURVE",
"189 92 OFFCURVE",
"186 91 CURVE SMOOTH",
"183 90 OFFCURVE",
"181 90 OFFCURVE",
"180 90 CURVE",
"163 86 OFFCURVE",
"153 76 OFFCURVE",
"151 59 CURVE SMOOTH",
"144 0 LINE",
"219 0 LINE",
"354 0 LINE",
"429 0 LINE",
"437 59 LINE SMOOTH",
"439 76 OFFCURVE",
"432 86 OFFCURVE",
"416 90 CURVE",
"415 90 OFFCURVE",
"412 91 OFFCURVE",
"409 91 CURVE SMOOTH",
"406 91 OFFCURVE",
"402 93 OFFCURVE",
"395 94 CURVE SMOOTH",
"388 95 OFFCURVE",
"378 97 OFFCURVE",
"366 99 CURVE",
"388 281 LINE",
"634 624 LINE",
"647 626 OFFCURVE",
"658 628 OFFCURVE",
"665 629 CURVE SMOOTH",
"672 630 OFFCURVE",
"677 632 OFFCURVE",
"680 632 CURVE SMOOTH",
"683 632 OFFCURVE",
"684 633 OFFCURVE",
"686 633 CURVE",
"703 637 OFFCURVE",
"713 647 OFFCURVE",
"715 664 CURVE SMOOTH",
"722 723 LINE"
);
}
);
width = 741;
}
);
leftKerningGroup = Y;
note = Y;
rightKerningGroup = Y;
unicode = 0059;
},
{
glyphname = Z;
lastChange = "2017-01-26 15:47:16 +0000";
layers = (
{
anchors = (
{
name = bottom;
position = "{343, 0}";
},
{
name = top;
position = "{343, 723}";
}
);
layerId = "A0CD44AA-8F44-4864-B482-F84B7650FD25";
paths = (
{
closed = 1;
nodes = (
"642 631 LINE",
"652 644 OFFCURVE",
"658 658 OFFCURVE",
"660 673 CURVE SMOOTH",
"666 723 LINE",
"131 723 LINE",
"107 526 LINE",
"160 526 LINE SMOOTH",
"173 526 OFFCURVE",
"182 533 OFFCURVE",
"186 545 CURVE SMOOTH",
"187 548 OFFCURVE",
"193 571 OFFCURVE",
"204 616 CURVE",
"479 616 LINE",
"42 90 LINE SMOOTH",
"38 85 OFFCURVE",
"34 78 OFFCURVE",
"31 72 CURVE SMOOTH",
"28 66 OFFCURVE",
"27 60 OFFCURVE",
"26 53 CURVE SMOOTH",
"19 0 LINE",
"568 0 LINE",
"582 107 LINE",
"592 195 LINE",
"539 195 LINE SMOOTH",
"526 195 OFFCURVE",
"518 188 OFFCURVE",
"514 176 CURVE SMOOTH",
"513 173 OFFCURVE",
"508 150 OFFCURVE",
"497 107 CURVE",
"207 107 LINE"
);
}
);
width = 685;
}
);
leftKerningGroup = Z;
note = Z;
rightKerningGroup = uni01F1;
unicode = 005A;
},
{
glyphname = bracketleft;
layers = (
{
layerId = "A0CD44AA-8F44-4864-B482-F84B7650FD25";
paths = (
{
closed = 1;
nodes = (
"18 -154 LINE",
"223 -154 LINE",
"229 -106 LINE SMOOTH",
"230 -97 OFFCURVE",
"227 -89 OFFCURVE",
"222 -83 CURVE SMOOTH",
"217 -77 OFFCURVE",
"210 -74 OFFCURVE",
"200 -74 CURVE SMOOTH",
"131 -74 LINE",
"225 694 LINE",
"294 694 LINE SMOOTH",
"304 694 OFFCURVE",
"312 697 OFFCURVE",
"319 703 CURVE SMOOTH",
"326 709 OFFCURVE",
"330 716 OFFCURVE",
"331 725 CURVE SMOOTH",
"337 773 LINE",
"132 773 LINE"
);
}
);
width = 355;
}
);
note = bracketleft;
unicode = 005B;
},
{
glyphname = backslash;
layers = (
{
layerId = "A0CD44AA-8F44-4864-B482-F84B7650FD25";
paths = (
{
closed = 1;
nodes = (
"21 743 LINE",
"220 -2 LINE SMOOTH",
"224 -17 OFFCURVE",
"231 -28 OFFCURVE",
"243 -36 CURVE SMOOTH",
"255 -44 OFFCURVE",
"266 -48 OFFCURVE",
"279 -48 CURVE SMOOTH",
"331 -48 LINE",
"132 700 LINE SMOOTH",
"128 714 OFFCURVE",
"121 724 OFFCURVE",
"111 732 CURVE SMOOTH",
"101 740 OFFCURVE",
"89 743 OFFCURVE",
"74 743 CURVE SMOOTH"
);
}
);
width = 351;
}
);
note = backslash;
unicode = 005C;
},
{
glyphname = bracketright;
layers = (
{
layerId = "A0CD44AA-8F44-4864-B482-F84B7650FD25";
paths = (
{
closed = 1;
nodes = (
"18 -154 LINE",
"223 -154 LINE",
"337 774 LINE",
"132 774 LINE",
"126 725 LINE SMOOTH",
"125 716 OFFCURVE",
"127 709 OFFCURVE",
"132 703 CURVE SMOOTH",
"137 697 OFFCURVE",
"145 694 OFFCURVE",
"155 694 CURVE SMOOTH",
"224 694 LINE",
"130 -74 LINE",
"61 -74 LINE SMOOTH",
"51 -74 OFFCURVE",
"43 -77 OFFCURVE",
"36 -83 CURVE SMOOTH",
"29 -89 OFFCURVE",
"25 -97 OFFCURVE",
"24 -106 CURVE SMOOTH"
);
}
);
width = 356;
}
);
note = bracketright;
unicode = 005D;
},
{
glyphname = asciicircum;
layers = (
{
layerId = "A0CD44AA-8F44-4864-B482-F84B7650FD25";
paths = (
{
closed = 1;
nodes = (
"476 388 LINE",
"331 723 LINE",
"251 723 LINE",
"24 388 LINE",
"118 388 LINE SMOOTH",
"127 388 OFFCURVE",
"135 390 OFFCURVE",
"140 394 CURVE SMOOTH",
"145 398 OFFCURVE",
"150 403 OFFCURVE",
"154 409 CURVE SMOOTH",
"249 554 LINE SMOOTH",
"255 563 OFFCURVE",
"260 572 OFFCURVE",
"265 580 CURVE SMOOTH",
"270 588 OFFCURVE",
"274 597 OFFCURVE",
"278 606 CURVE",
"280 597 OFFCURVE",
"282 588 OFFCURVE",
"285 580 CURVE SMOOTH",
"288 572 OFFCURVE",
"292 563 OFFCURVE",
"296 554 CURVE SMOOTH",
"358 409 LINE",
"361 403 OFFCURVE",
"364 398 OFFCURVE",
"368 394 CURVE SMOOTH",
"372 390 OFFCURVE",
"378 388 OFFCURVE",
"386 388 CURVE SMOOTH"
);
}
);
width = 498;
}
);
note = asciicircum;
unicode = 005E;
},
{
glyphname = underscore;
layers = (
{
layerId = "A0CD44AA-8F44-4864-B482-F84B7650FD25";
paths = (
{
closed = 1;
nodes = (
"442 -67 LINE",
"48 -67 LINE",
"38 -147 LINE",
"432 -147 LINE"
);
}
);
width = 482;
}
);
note = underscore;
unicode = 005F;
},
{
glyphname = grave;
layers = (
{
layerId = "A0CD44AA-8F44-4864-B482-F84B7650FD25";
paths = (
{
closed = 1;
nodes = (
"28 731 LINE",
"136 600 LINE",
"141 593 OFFCURVE",
"146 590 OFFCURVE",
"152 587 CURVE",
"158 585 OFFCURVE",
"165 583 OFFCURVE",
"174 583 CURVE SMOOTH",
"245 583 LINE",
"188 704 LINE SMOOTH",
"184 713 OFFCURVE",
"179 720 OFFCURVE",
"173 724 CURVE SMOOTH",
"167 728 OFFCURVE",
"158 731 OFFCURVE",
"144 731 CURVE SMOOTH"
);
}
);
width = 272;
}
);
note = grave;
unicode = 0060;
},
{
glyphname = a;
lastChange = "2017-01-26 15:47:16 +0000";
layers = (
{
anchors = (
{
name = bottom;
position = "{260, 0}";
},
{
name = ogonek;
position = "{467, 10}";
},
{
name = top;
position = "{260, 513}";
}
);
layerId = "A0CD44AA-8F44-4864-B482-F84B7650FD25";
paths = (
{
closed = 1;
nodes = (
"475 91 OFFCURVE",
"472 92 OFFCURVE",
"466 93 CURVE SMOOTH",
"460 94 OFFCURVE",
"452 96 OFFCURVE",
"441 98 CURVE",
"440 97 LINE",
"490 498 LINE",
"468 507 OFFCURVE",
"445 513 OFFCURVE",
"422 516 CURVE SMOOTH",
"399 519 OFFCURVE",
"375 521 OFFCURVE",
"352 521 CURVE SMOOTH",
"320 521 OFFCURVE",
"290 517 OFFCURVE",
"261 509 CURVE SMOOTH",
"232 501 OFFCURVE",
"206 488 OFFCURVE",
"181 473 CURVE SMOOTH",
"156 458 OFFCURVE",
"133 439 OFFCURVE",
"113 418 CURVE SMOOTH",
"93 397 OFFCURVE",
"76 373 OFFCURVE",
"62 348 CURVE SMOOTH",
"48 323 OFFCURVE",
"38 295 OFFCURVE",
"30 266 CURVE SMOOTH",
"22 237 OFFCURVE",
"18 207 OFFCURVE",
"18 176 CURVE SMOOTH",
"18 145 OFFCURVE",
"22 119 OFFCURVE",
"29 96 CURVE SMOOTH",
"36 73 OFFCURVE",
"45 54 OFFCURVE",
"58 39 CURVE",
"70 24 OFFCURVE",
"85 13 OFFCURVE",
"102 5 CURVE SMOOTH",
"119 -3 OFFCURVE",
"137 -7 OFFCURVE",
"156 -7 CURVE SMOOTH",
"190 -7 OFFCURVE",
"222 3 OFFCURVE",
"250 24 CURVE SMOOTH",
"278 44 OFFCURVE",
"303 73 OFFCURVE",
"326 108 CURVE",
"322 38 LINE",
"322 27 OFFCURVE",
"325 18 OFFCURVE",
"331 11 CURVE SMOOTH",
"337 4 OFFCURVE",
"348 1 OFFCURVE",
"363 1 CURVE SMOOTH",
"428 1 LINE",
"428 1 LINE",
"428 1 LINE",
"490 1 LINE",
"498 60 LINE SMOOTH",
"500 77 OFFCURVE",
"492 87 OFFCURVE",
"476 91 CURVE"
);
},
{
closed = 1;
nodes = (
"341 277 LINE",
"334 251 OFFCURVE",
"325 227 OFFCURVE",
"315 205 CURVE SMOOTH",
"305 183 OFFCURVE",
"294 164 OFFCURVE",
"282 147 CURVE SMOOTH",
"270 130 OFFCURVE",
"258 117 OFFCURVE",
"245 108 CURVE SMOOTH",
"232 99 OFFCURVE",
"219 94 OFFCURVE",
"205 94 CURVE SMOOTH",
"185 94 OFFCURVE",
"169 102 OFFCURVE",
"158 119 CURVE SMOOTH",
"147 136 OFFCURVE",
"142 162 OFFCURVE",
"142 198 CURVE SMOOTH",
"142 230 OFFCURVE",
"146 261 OFFCURVE",
"156 289 CURVE SMOOTH",
"166 318 OFFCURVE",
"180 342 OFFCURVE",
"197 364 CURVE SMOOTH",
"214 385 OFFCURVE",
"234 402 OFFCURVE",
"258 415 CURVE SMOOTH",
"282 428 OFFCURVE",
"307 434 OFFCURVE",
"335 434 CURVE SMOOTH",
"343 434 OFFCURVE",
"351 433 OFFCURVE",
"360 432 CURVE"
);
}
);
width = 519;
}
);
leftKerningGroup = a;
note = a;
unicode = 0061;
},
{
glyphname = b;
lastChange = "2017-01-26 14:38:56 +0000";
layers = (
{
anchors = (
{
name = bottom;
position = "{274, 0}";
},
{
name = top;
position = "{274, 513}";
}
);
layerId = "A0CD44AA-8F44-4864-B482-F84B7650FD25";
paths = (
{
closed = 1;
nodes = (
"516 404 OFFCURVE",
"506 432 OFFCURVE",
"492 454 CURVE SMOOTH",
"478 476 OFFCURVE",
"461 493 OFFCURVE",
"439 504 CURVE",
"417 516 OFFCURVE",
"392 521 OFFCURVE",
"364 521 CURVE SMOOTH",
"330 521 OFFCURVE",
"299 515 OFFCURVE",
"272 502 CURVE SMOOTH",
"245 489 OFFCURVE",
"219 472 OFFCURVE",
"196 450 CURVE",
"232 743 LINE",
"109 743 LINE",
"29 743 LINE",
"22 684 LINE SMOOTH",
"20 667 OFFCURVE",
"27 657 OFFCURVE",
"43 653 CURVE",
"44 653 OFFCURVE",
"47 652 OFFCURVE",
"50 652 CURVE SMOOTH",
"53 652 OFFCURVE",
"59 650 OFFCURVE",
"67 649 CURVE SMOOTH",
"75 648 OFFCURVE",
"85 646 OFFCURVE",
"97 644 CURVE",
"40 181 LINE",
"20 21 LINE",
"111 2 OFFCURVE",
"194 -7 OFFCURVE",
"268 -7 CURVE SMOOTH",
"302 -7 OFFCURVE",
"333 -1 OFFCURVE",
"362 13 CURVE SMOOTH",
"391 26 OFFCURVE",
"416 45 OFFCURVE",
"438 69 CURVE SMOOTH",
"460 93 OFFCURVE",
"479 121 OFFCURVE",
"493 154 CURVE SMOOTH",
"507 187 OFFCURVE",
"516 223 OFFCURVE",
"521 261 CURVE SMOOTH",
"526 303 OFFCURVE",
"526 340 OFFCURVE",
"521 372 CURVE SMOOTH"
);
},
{
closed = 1;
nodes = (
"368 161 OFFCURVE",
"357 143 OFFCURVE",
"345 129 CURVE SMOOTH",
"333 115 OFFCURVE",
"319 104 OFFCURVE",
"303 97 CURVE SMOOTH",
"287 90 OFFCURVE",
"270 87 OFFCURVE",
"251 87 CURVE SMOOTH",
"218 87 OFFCURVE",
"186 90 OFFCURVE",
"153 96 CURVE",
"186 363 LINE",
"204 383 OFFCURVE",
"223 398 OFFCURVE",
"242 409 CURVE SMOOTH",
"262 420 OFFCURVE",
"284 425 OFFCURVE",
"310 425 CURVE SMOOTH",
"326 425 OFFCURVE",
"340 422 OFFCURVE",
"352 416 CURVE SMOOTH",
"364 410 OFFCURVE",
"375 401 OFFCURVE",
"382 388 CURVE SMOOTH",
"389 375 OFFCURVE",
"394 358 OFFCURVE",
"396 337 CURVE SMOOTH",
"398 316 OFFCURVE",
"398 291 OFFCURVE",
"394 261 CURVE SMOOTH",
"390 231 OFFCURVE",
"384 205 OFFCURVE",
"376 183 CURVE SMOOTH"
);
}
);
width = 547;
}
);
note = b;
unicode = 0062;
},
{
glyphname = c;
lastChange = "2017-01-26 15:47:16 +0000";
layers = (
{
anchors = (
{
name = bottom;
position = "{240, 0}";
},
{
name = top;
position = "{240, 513}";
}
);
layerId = "A0CD44AA-8F44-4864-B482-F84B7650FD25";
paths = (
{
closed = 1;
nodes = (
"402 122 LINE",
"398 130 OFFCURVE",
"391 133 OFFCURVE",
"381 133 CURVE SMOOTH",
"373 133 OFFCURVE",
"366 131 OFFCURVE",
"359 126 CURVE SMOOTH",
"352 121 OFFCURVE",
"344 116 OFFCURVE",
"335 110 CURVE SMOOTH",
"326 104 OFFCURVE",
"316 99 OFFCURVE",
"303 94 CURVE SMOOTH",
"290 89 OFFCURVE",
"274 87 OFFCURVE",
"254 87 CURVE SMOOTH",
"234 87 OFFCURVE",
"217 91 OFFCURVE",
"202 98 CURVE",
"187 106 OFFCURVE",
"175 117 OFFCURVE",
"166 131 CURVE SMOOTH",
"157 146 OFFCURVE",
"151 164 OFFCURVE",
"148 185 CURVE SMOOTH",
"145 206 OFFCURVE",
"145 231 OFFCURVE",
"148 258 CURVE SMOOTH",
"151 284 OFFCURVE",
"157 307 OFFCURVE",
"165 328 CURVE SMOOTH",
"173 349 OFFCURVE",
"182 367 OFFCURVE",
"195 382 CURVE SMOOTH",
"208 397 OFFCURVE",
"223 407 OFFCURVE",
"240 415 CURVE SMOOTH",
"257 423 OFFCURVE",
"277 427 OFFCURVE",
"299 427 CURVE SMOOTH",
"316 427 OFFCURVE",
"338 424 OFFCURVE",
"363 417 CURVE",
"362 377 OFFCURVE",
"362 353 OFFCURVE",
"362 345 CURVE",
"363 333 OFFCURVE",
"370 326 OFFCURVE",
"383 326 CURVE SMOOTH",
"424 326 LINE",
"436 326 LINE",
"440 326 LINE",
"460 484 LINE",
"397 509 OFFCURVE",
"345 521 OFFCURVE",
"303 521 CURVE SMOOTH",
"263 521 OFFCURVE",
"226 514 OFFCURVE",
"193 501 CURVE SMOOTH",
"160 488 OFFCURVE",
"133 470 OFFCURVE",
"109 446 CURVE SMOOTH",
"85 422 OFFCURVE",
"66 394 OFFCURVE",
"51 362 CURVE SMOOTH",
"36 330 OFFCURVE",
"27 296 OFFCURVE",
"22 258 CURVE SMOOTH",
"17 216 OFFCURVE",
"18 178 OFFCURVE",
"26 145 CURVE SMOOTH",
"34 112 OFFCURVE",
"47 85 OFFCURVE",
"65 62 CURVE SMOOTH",
"83 39 OFFCURVE",
"105 22 OFFCURVE",
"132 10 CURVE SMOOTH",
"159 -2 OFFCURVE",
"187 -7 OFFCURVE",
"219 -7 CURVE SMOOTH",
"237 -7 OFFCURVE",
"255 -6 OFFCURVE",
"274 -3 CURVE SMOOTH",
"293 0 OFFCURVE",
"311 4 OFFCURVE",
"329 10 CURVE",
"347 17 OFFCURVE",
"365 25 OFFCURVE",
"382 36 CURVE SMOOTH",
"399 47 OFFCURVE",
"416 61 OFFCURVE",
"432 77 CURVE"
);
}
);
width = 479;
}
);
leftKerningGroup = c;
note = c;
unicode = 0063;
},
{
glyphname = d;
lastChange = "2017-01-26 15:47:16 +0000";
layers = (
{
anchors = (
{
name = bottom;
position = "{286, 0}";
},
{
name = center;
position = "{286, 257}";
},
{
name = top;
position = "{286, 513}";
},
{
name = topright;
position = "{552, 513}";
}
);
layerId = "A0CD44AA-8F44-4864-B482-F84B7650FD25";
paths = (
{
closed = 1;
nodes = (
"540 61 LINE SMOOTH",
"542 78 OFFCURVE",
"535 88 OFFCURVE",
"519 92 CURVE",
"517 92 OFFCURVE",
"515 93 OFFCURVE",
"513 93 CURVE SMOOTH",
"511 93 OFFCURVE",
"506 95 OFFCURVE",
"500 96 CURVE SMOOTH",
"494 97 OFFCURVE",
"485 98 OFFCURVE",
"475 100 CURVE",
"554 743 LINE",
"431 743 LINE",
"355 743 LINE",
"348 684 LINE SMOOTH",
"346 667 OFFCURVE",
"353 657 OFFCURVE",
"369 653 CURVE",
"370 653 OFFCURVE",
"372 653 OFFCURVE",
"375 652 CURVE SMOOTH",
"378 651 OFFCURVE",
"383 650 OFFCURVE",
"390 649 CURVE SMOOTH",
"397 648 OFFCURVE",
"407 646 OFFCURVE",
"419 644 CURVE",
"398 473 LINE",
"384 489 OFFCURVE",
"367 500 OFFCURVE",
"348 509 CURVE SMOOTH",
"329 518 OFFCURVE",
"305 523 OFFCURVE",
"276 523 CURVE SMOOTH",
"242 523 OFFCURVE",
"211 516 OFFCURVE",
"182 502 CURVE SMOOTH",
"153 488 OFFCURVE",
"128 470 OFFCURVE",
"106 446 CURVE SMOOTH",
"84 422 OFFCURVE",
"65 394 OFFCURVE",
"51 361 CURVE SMOOTH",
"37 328 OFFCURVE",
"27 293 OFFCURVE",
"22 255 CURVE SMOOTH",
"17 213 OFFCURVE",
"17 176 OFFCURVE",
"22 143 CURVE SMOOTH",
"27 111 OFFCURVE",
"37 83 OFFCURVE",
"51 61 CURVE SMOOTH",
"65 39 OFFCURVE",
"83 22 OFFCURVE",
"105 10 CURVE SMOOTH",
"127 -2 OFFCURVE",
"152 -7 OFFCURVE",
"180 -7 CURVE SMOOTH",
"216 -7 OFFCURVE",
"248 0 OFFCURVE",
"277 15 CURVE SMOOTH",
"306 30 OFFCURVE",
"331 48 OFFCURVE",
"355 72 CURVE",
"359 25 LINE",
"360 17 OFFCURVE",
"363 12 OFFCURVE",
"368 8 CURVE SMOOTH",
"373 4 OFFCURVE",
"380 2 OFFCURVE",
"388 2 CURVE SMOOTH",
"463 2 LINE",
"533 2 LINE"
);
},
{
closed = 1;
nodes = (
"358 152 LINE",
"340 132 OFFCURVE",
"321 117 OFFCURVE",
"302 106 CURVE SMOOTH",
"282 95 OFFCURVE",
"260 90 OFFCURVE",
"234 90 CURVE SMOOTH",
"218 90 OFFCURVE",
"204 93 OFFCURVE",
"192 99 CURVE SMOOTH",
"180 105 OFFCURVE",
"169 115 OFFCURVE",
"162 128 CURVE SMOOTH",
"155 141 OFFCURVE",
"150 157 OFFCURVE",
"148 178 CURVE SMOOTH",
"146 199 OFFCURVE",
"146 225 OFFCURVE",
"150 255 CURVE SMOOTH",
"154 285 OFFCURVE",
"160 310 OFFCURVE",
"168 332 CURVE SMOOTH",
"176 354 OFFCURVE",
"187 372 OFFCURVE",
"199 386 CURVE SMOOTH",
"211 400 OFFCURVE",
"225 411 OFFCURVE",
"241 418 CURVE SMOOTH",
"257 425 OFFCURVE",
"274 429 OFFCURVE",
"293 429 CURVE SMOOTH",
"312 429 OFFCURVE",
"329 425 OFFCURVE",
"345 418 CURVE SMOOTH",
"361 411 OFFCURVE",
"375 399 OFFCURVE",
"387 382 CURVE"
);
}
);
width = 572;
}
);
leftKerningGroup = c;
note = d;
unicode = 0064;
},
{
glyphname = e;
lastChange = "2017-01-26 15:47:16 +0000";
layers = (
{
anchors = (
{
name = bottom;
position = "{236, 0}";
},
{
name = ogonek;
position = "{425, 10}";
},
{
name = top;
position = "{236, 513}";
}
);
layerId = "A0CD44AA-8F44-4864-B482-F84B7650FD25";
paths = (
{
closed = 1;
nodes = (
"453 408 OFFCURVE",
"450 423 OFFCURVE",
"443 438 CURVE SMOOTH",
"436 453 OFFCURVE",
"427 467 OFFCURVE",
"413 479 CURVE",
"400 491 OFFCURVE",
"382 500 OFFCURVE",
"362 508 CURVE SMOOTH",
"342 516 OFFCURVE",
"318 520 OFFCURVE",
"291 520 CURVE SMOOTH",
"263 520 OFFCURVE",
"238 516 OFFCURVE",
"214 508 CURVE SMOOTH",
"190 500 OFFCURVE",
"167 488 OFFCURVE",
"147 474 CURVE SMOOTH",
"127 460 OFFCURVE",
"109 443 OFFCURVE",
"93 423 CURVE SMOOTH",
"77 403 OFFCURVE",
"63 382 OFFCURVE",
"52 359 CURVE SMOOTH",
"41 336 OFFCURVE",
"33 311 OFFCURVE",
"27 285 CURVE SMOOTH",
"21 259 OFFCURVE",
"18 233 OFFCURVE",
"18 206 CURVE SMOOTH",
"18 174 OFFCURVE",
"24 144 OFFCURVE",
"33 118 CURVE SMOOTH",
"42 92 OFFCURVE",
"56 69 OFFCURVE",
"73 51 CURVE SMOOTH",
"90 32 OFFCURVE",
"111 18 OFFCURVE",
"135 8 CURVE SMOOTH",
"159 -2 OFFCURVE",
"187 -7 OFFCURVE",
"217 -7 CURVE SMOOTH",
"240 -7 OFFCURVE",
"261 -5 OFFCURVE",
"281 -1 CURVE SMOOTH",
"301 3 OFFCURVE",
"319 9 OFFCURVE",
"337 17 CURVE SMOOTH",
"355 25 OFFCURVE",
"372 36 OFFCURVE",
"389 49 CURVE SMOOTH",
"406 62 OFFCURVE",
"423 77 OFFCURVE",
"441 95 CURVE",
"410 133 LINE",
"407 137 OFFCURVE",
"404 139 OFFCURVE",
"400 141 CURVE SMOOTH",
"396 143 OFFCURVE",
"392 144 OFFCURVE",
"388 144 CURVE SMOOTH",
"381 144 OFFCURVE",
"375 143 OFFCURVE",
"369 140 CURVE SMOOTH",
"363 137 OFFCURVE",
"358 133 OFFCURVE",
"352 129 CURVE SMOOTH",
"346 125 OFFCURVE",
"340 121 OFFCURVE",
"333 116 CURVE SMOOTH",
"326 111 OFFCURVE",
"318 106 OFFCURVE",
"310 102 CURVE SMOOTH",
"302 98 OFFCURVE",
"291 95 OFFCURVE",
"280 92 CURVE SMOOTH",
"269 89 OFFCURVE",
"256 88 OFFCURVE",
"241 88 CURVE SMOOTH",
"173 88 OFFCURVE",
"139 128 OFFCURVE",
"139 209 CURVE SMOOTH",
"139 215 LINE",
"202 221 OFFCURVE",
"254 230 OFFCURVE",
"294 241 CURVE SMOOTH",
"334 252 OFFCURVE",
"366 265 OFFCURVE",
"390 280 CURVE SMOOTH",
"414 295 OFFCURVE",
"430 312 OFFCURVE",
"439 331 CURVE SMOOTH",
"448 350 OFFCURVE",
"453 371 OFFCURVE",
"453 394 CURVE SMOOTH"
);
},
{
closed = 1;
nodes = (
"294 434 OFFCURVE",
"304 433 OFFCURVE",
"311 430 CURVE SMOOTH",
"318 427 OFFCURVE",
"323 423 OFFCURVE",
"328 419 CURVE",
"332 415 OFFCURVE",
"336 410 OFFCURVE",
"338 405 CURVE SMOOTH",
"340 400 OFFCURVE",
"341 394 OFFCURVE",
"341 389 CURVE SMOOTH",
"341 379 OFFCURVE",
"340 369 OFFCURVE",
"335 360 CURVE",
"331 351 OFFCURVE",
"321 343 OFFCURVE",
"307 335 CURVE SMOOTH",
"293 327 OFFCURVE",
"274 320 OFFCURVE",
"249 313 CURVE SMOOTH",
"224 306 OFFCURVE",
"190 300 OFFCURVE",
"149 294 CURVE",
"154 314 OFFCURVE",
"161 334 OFFCURVE",
"169 351 CURVE SMOOTH",
"177 368 OFFCURVE",
"187 383 OFFCURVE",
"199 395 CURVE",
"210 407 OFFCURVE",
"224 417 OFFCURVE",
"238 424 CURVE SMOOTH",
"252 431 OFFCURVE",
"267 434 OFFCURVE",
"284 434 CURVE SMOOTH"
);
}
);
width = 472;
}
);
leftKerningGroup = c;
note = e;
rightKerningGroup = e;
unicode = 0065;
},
{
glyphname = f;
lastChange = "2017-01-26 14:38:56 +0000";
layers = (
{
anchors = (
{
name = bottom;
position = "{227, 0}";
},
{
name = top;
position = "{227, 513}";
}
);
layerId = "A0CD44AA-8F44-4864-B482-F84B7650FD25";
paths = (
{
closed = 1;
nodes = (
"344 735 OFFCURVE",
"317 731 OFFCURVE",
"292 722 CURVE SMOOTH",
"267 713 OFFCURVE",
"246 701 OFFCURVE",
"227 685 CURVE SMOOTH",
"208 669 OFFCURVE",
"194 649 OFFCURVE",
"182 626 CURVE SMOOTH",
"170 603 OFFCURVE",
"163 576 OFFCURVE",
"159 547 CURVE SMOOTH",
"154 509 LINE",
"78 509 LINE",
"72 458 LINE SMOOTH",
"71 449 OFFCURVE",
"73 442 OFFCURVE",
"78 437 CURVE SMOOTH",
"83 432 OFFCURVE",
"91 429 OFFCURVE",
"100 427 CURVE",
"144 420 LINE",
"136 362 LINE",
"136 362 LINE",
"133 332 LINE",
"133 330 LINE",
"95 24 LINE SMOOTH",
"93 5 OFFCURVE",
"89 -10 OFFCURVE",
"83 -23 CURVE SMOOTH",
"77 -36 OFFCURVE",
"70 -47 OFFCURVE",
"61 -55 CURVE SMOOTH",
"52 -63 OFFCURVE",
"42 -68 OFFCURVE",
"31 -72 CURVE SMOOTH",
"20 -76 OFFCURVE",
"7 -78 OFFCURVE",
"-6 -78 CURVE SMOOTH",
"-32 -78 OFFCURVE",
"-45 -91 OFFCURVE",
"-45 -116 CURVE SMOOTH",
"-45 -180 LINE",
"-4 -180 OFFCURVE",
"32 -177 OFFCURVE",
"63 -169 CURVE SMOOTH",
"94 -161 OFFCURVE",
"119 -149 OFFCURVE",
"141 -133 CURVE SMOOTH",
"163 -117 OFFCURVE",
"179 -95 OFFCURVE",
"192 -70 CURVE SMOOTH",
"204 -45 OFFCURVE",
"213 -14 OFFCURVE",
"217 21 CURVE SMOOTH",
"255 330 LINE",
"255 330 LINE",
"266 420 LINE",
"266 420 LINE",
"267 421 LINE",
"397 421 LINE",
"407 509 LINE",
"274 509 LINE",
"278 543 LINE SMOOTH",
"280 562 OFFCURVE",
"284 577 OFFCURVE",
"290 590 CURVE SMOOTH",
"296 603 OFFCURVE",
"303 613 OFFCURVE",
"312 621 CURVE SMOOTH",
"321 629 OFFCURVE",
"331 635 OFFCURVE",
"343 638 CURVE SMOOTH",
"355 641 OFFCURVE",
"368 642 OFFCURVE",
"383 642 CURVE SMOOTH",
"394 642 OFFCURVE",
"404 644 OFFCURVE",
"413 646 CURVE SMOOTH",
"422 648 OFFCURVE",
"426 654 OFFCURVE",
"428 664 CURVE SMOOTH",
"439 726 LINE",
"419 732 OFFCURVE",
"398 735 OFFCURVE",
"374 735 CURVE SMOOTH"
);
}
);
width = 453;
}
);
note = f;
unicode = 0066;
},
{
glyphname = g;
lastChange = "2017-01-26 15:47:16 +0000";
layers = (
{
anchors = (
{
name = bottom;
position = "{290, 0}";
},
{
name = top;
position = "{290, 513}";
}
);
layerId = "A0CD44AA-8F44-4864-B482-F84B7650FD25";
paths = (
{
closed = 1;
nodes = (
"482 373 OFFCURVE",
"482 382 OFFCURVE",
"481 389 CURVE SMOOTH",
"480 396 OFFCURVE",
"479 403 OFFCURVE",
"477 410 CURVE",
"530 424 LINE SMOOTH",
"537 426 OFFCURVE",
"543 429 OFFCURVE",
"547 435 CURVE SMOOTH",
"551 441 OFFCURVE",
"553 448 OFFCURVE",
"554 456 CURVE SMOOTH",
"560 496 LINE",
"416 496 LINE",
"402 505 OFFCURVE",
"386 511 OFFCURVE",
"369 515 CURVE",
"352 520 OFFCURVE",
"334 522 OFFCURVE",
"315 522 CURVE SMOOTH",
"279 522 OFFCURVE",
"248 516 OFFCURVE",
"221 505 CURVE SMOOTH",
"194 494 OFFCURVE",
"171 479 OFFCURVE",
"153 460 CURVE SMOOTH",
"135 441 OFFCURVE",
"120 420 OFFCURVE",
"111 396 CURVE SMOOTH",
"102 372 OFFCURVE",
"98 348 OFFCURVE",
"98 323 CURVE SMOOTH",
"98 297 OFFCURVE",
"101 274 OFFCURVE",
"109 254 CURVE SMOOTH",
"117 235 OFFCURVE",
"128 219 OFFCURVE",
"141 206 CURVE SMOOTH",
"154 193 OFFCURVE",
"169 183 OFFCURVE",
"187 177 CURVE SMOOTH",
"204 171 OFFCURVE",
"223 167 OFFCURVE",
"242 167 CURVE SMOOTH",
"265 167 OFFCURVE",
"284 169 OFFCURVE",
"300 174 CURVE SMOOTH",
"316 179 OFFCURVE",
"330 185 OFFCURVE",
"343 194 CURVE",
"332 171 OFFCURVE",
"327 149 OFFCURVE",
"327 130 CURVE SMOOTH",
"327 124 OFFCURVE",
"328 118 OFFCURVE",
"329 113 CURVE SMOOTH",
"330 108 OFFCURVE",
"331 102 OFFCURVE",
"332 97 CURVE",
"320 99 OFFCURVE",
"308 101 OFFCURVE",
"295 102 CURVE SMOOTH",
"282 103 OFFCURVE",
"269 104 OFFCURVE",
"255 104 CURVE SMOOTH",
"227 104 OFFCURVE",
"199 101 OFFCURVE",
"171 96 CURVE SMOOTH",
"143 91 OFFCURVE",
"117 82 OFFCURVE",
"94 70 CURVE SMOOTH",
"71 58 OFFCURVE",
"53 43 OFFCURVE",
"39 24 CURVE SMOOTH",
"25 5 OFFCURVE",
"18 -20 OFFCURVE",
"18 -48 CURVE SMOOTH",
"18 -67 OFFCURVE",
"23 -84 OFFCURVE",
"32 -100 CURVE SMOOTH",
"41 -116 OFFCURVE",
"55 -129 OFFCURVE",
"73 -141 CURVE SMOOTH",
"91 -153 OFFCURVE",
"112 -162 OFFCURVE",
"137 -169 CURVE",
"162 -175 OFFCURVE",
"190 -178 OFFCURVE",
"222 -178 CURVE SMOOTH",
"261 -178 OFFCURVE",
"295 -173 OFFCURVE",
"326 -163 CURVE SMOOTH",
"357 -153 OFFCURVE",
"383 -140 OFFCURVE",
"404 -123 CURVE SMOOTH",
"425 -106 OFFCURVE",
"442 -86 OFFCURVE",
"453 -63 CURVE SMOOTH",
"464 -40 OFFCURVE",
"470 -15 OFFCURVE",
"470 10 CURVE SMOOTH",
"470 28 OFFCURVE",
"468 43 OFFCURVE",
"462 57 CURVE SMOOTH",
"456 71 OFFCURVE",
"450 84 OFFCURVE",
"443 96 CURVE SMOOTH",
"436 108 OFFCURVE",
"431 119 OFFCURVE",
"425 131 CURVE",
"419 142 OFFCURVE",
"416 155 OFFCURVE",
"416 169 CURVE SMOOTH",
"416 182 OFFCURVE",
"418 193 OFFCURVE",
"421 203 CURVE SMOOTH",
"424 213 OFFCURVE",
"428 224 OFFCURVE",
"433 233 CURVE SMOOTH",
"438 242 OFFCURVE",
"443 252 OFFCURVE",
"449 261 CURVE SMOOTH",
"455 270 OFFCURVE",
"460 281 OFFCURVE",
"465 291 CURVE SMOOTH",
"470 301 OFFCURVE",
"474 312 OFFCURVE",
"477 324 CURVE SMOOTH",
"480 336 OFFCURVE",
"482 350 OFFCURVE",
"482 365 CURVE SMOOTH"
);
},
{
closed = 1;
nodes = (
"358 -14 OFFCURVE",
"355 -26 OFFCURVE",
"349 -37 CURVE SMOOTH",
"343 -48 OFFCURVE",
"334 -59 OFFCURVE",
"323 -67 CURVE SMOOTH",
"312 -75 OFFCURVE",
"298 -81 OFFCURVE",
"283 -86 CURVE SMOOTH",
"268 -91 OFFCURVE",
"251 -93 OFFCURVE",
"232 -93 CURVE SMOOTH",
"199 -93 OFFCURVE",
"174 -88 OFFCURVE",
"158 -78 CURVE SMOOTH",
"142 -68 OFFCURVE",
"134 -52 OFFCURVE",
"134 -32 CURVE SMOOTH",
"134 -23 OFFCURVE",
"137 -15 OFFCURVE",
"142 -7 CURVE SMOOTH",
"147 1 OFFCURVE",
"154 8 OFFCURVE",
"165 14 CURVE",
"175 20 OFFCURVE",
"189 25 OFFCURVE",
"205 29 CURVE SMOOTH",
"221 33 OFFCURVE",
"240 34 OFFCURVE",
"263 34 CURVE SMOOTH",
"276 34 OFFCURVE",
"291 33 OFFCURVE",
"306 32 CURVE SMOOTH",
"321 31 OFFCURVE",
"337 29 OFFCURVE",
"355 26 CURVE",
"356 22 OFFCURVE",
"356 18 OFFCURVE",
"357 13 CURVE",
"357 8 OFFCURVE",
"358 4 OFFCURVE",
"358 -1 CURVE SMOOTH"
);
},
{
closed = 1;
nodes = (
"256 242 OFFCURVE",
"239 248 OFFCURVE",
"227 262 CURVE",
"216 276 OFFCURVE",
"210 296 OFFCURVE",
"210 322 CURVE SMOOTH",
"210 337 OFFCURVE",
"212 351 OFFCURVE",
"216 365 CURVE SMOOTH",
"220 379 OFFCURVE",
"225 392 OFFCURVE",
"233 403 CURVE SMOOTH",
"241 414 OFFCURVE",
"250 423 OFFCURVE",
"261 429 CURVE SMOOTH",
"272 435 OFFCURVE",
"286 438 OFFCURVE",
"301 438 CURVE SMOOTH",
"323 438 OFFCURVE",
"340 431 OFFCURVE",
"352 418 CURVE SMOOTH",
"364 405 OFFCURVE",
"369 386 OFFCURVE",
"369 361 CURVE SMOOTH",
"369 346 OFFCURVE",
"367 332 OFFCURVE",
"363 318 CURVE SMOOTH",
"359 304 OFFCURVE",
"354 290 OFFCURVE",
"346 279 CURVE SMOOTH",
"338 268 OFFCURVE",
"328 259 OFFCURVE",
"317 252 CURVE SMOOTH",
"306 245 OFFCURVE",
"293 242 OFFCURVE",
"278 242 CURVE SMOOTH"
);
}
);
width = 579;
}
);
leftKerningGroup = c;
note = g;
rightKerningGroup = g;
unicode = 0067;
},
{
glyphname = h;
lastChange = "2017-01-26 14:38:56 +0000";
layers = (
{
anchors = (
{
name = bottom;
position = "{285, 0}";
},
{
name = center;
position = "{285, 257}";
},
{
name = top;
position = "{285, 513}";
}
);
layerId = "A0CD44AA-8F44-4864-B482-F84B7650FD25";
paths = (
{
closed = 1;
nodes = (
"526 90 OFFCURVE",
"524 90 OFFCURVE",
"521 91 CURVE SMOOTH",
"518 92 OFFCURVE",
"514 93 OFFCURVE",
"507 94 CURVE SMOOTH",
"500 95 OFFCURVE",
"490 97 OFFCURVE",
"478 99 CURVE",
"506 326 LINE SMOOTH",
"510 355 OFFCURVE",
"509 381 OFFCURVE",
"504 405 CURVE SMOOTH",
"499 429 OFFCURVE",
"491 450 OFFCURVE",
"479 467 CURVE SMOOTH",
"467 484 OFFCURVE",
"449 498 OFFCURVE",
"429 507 CURVE SMOOTH",
"408 516 OFFCURVE",
"384 521 OFFCURVE",
"356 521 CURVE SMOOTH",
"324 521 OFFCURVE",
"295 515 OFFCURVE",
"270 503 CURVE SMOOTH",
"245 491 OFFCURVE",
"220 476 OFFCURVE",
"198 457 CURVE",
"233 743 LINE",
"110 743 LINE",
"34 743 LINE",
"27 684 LINE SMOOTH",
"25 667 OFFCURVE",
"32 657 OFFCURVE",
"48 653 CURVE",
"49 653 OFFCURVE",
"51 652 OFFCURVE",
"54 652 CURVE SMOOTH",
"57 652 OFFCURVE",
"62 650 OFFCURVE",
"69 649 CURVE SMOOTH",
"76 648 OFFCURVE",
"86 646 OFFCURVE",
"98 644 CURVE",
"46 221 LINE",
"37 149 LINE",
"31 99 LINE",
"18 0 LINE",
"142 0 LINE",
"157 124 LINE",
"188 371 LINE",
"207 388 OFFCURVE",
"225 400 OFFCURVE",
"245 410 CURVE SMOOTH",
"265 420 OFFCURVE",
"286 425 OFFCURVE",
"307 425 CURVE SMOOTH",
"336 425 OFFCURVE",
"357 416 OFFCURVE",
"369 399 CURVE SMOOTH",
"381 382 OFFCURVE",
"386 357 OFFCURVE",
"382 326 CURVE SMOOTH",
"342 0 LINE",
"465 0 LINE",
"541 0 LINE",
"548 59 LINE SMOOTH",
"550 76 OFFCURVE",
"543 86 OFFCURVE",
"527 90 CURVE"
);
}
);
width = 569;
}
);
note = h;
unicode = 0068;
},
{
glyphname = i;
lastChange = "2017-01-26 14:38:56 +0000";
layers = (
{
anchors = (
{
name = bottom;
position = "{141, 0}";
}
);
layerId = "A0CD44AA-8F44-4864-B482-F84B7650FD25";
paths = (
{
closed = 1;
nodes = (
"224 90 OFFCURVE",
"221 90 OFFCURVE",
"218 91 CURVE SMOOTH",
"215 92 OFFCURVE",
"211 93 OFFCURVE",
"204 94 CURVE SMOOTH",
"197 95 OFFCURVE",
"187 97 OFFCURVE",
"175 99 CURVE",
"226 513 LINE",
"102 513 LINE",
"27 513 LINE",
"19 454 LINE SMOOTH",
"17 437 OFFCURVE",
"25 427 OFFCURVE",
"41 423 CURVE",
"42 423 OFFCURVE",
"44 422 OFFCURVE",
"47 422 CURVE",
"50 421 OFFCURVE",
"54 420 OFFCURVE",
"61 419 CURVE SMOOTH",
"68 418 OFFCURVE",
"78 416 OFFCURVE",
"90 414 CURVE",
"52 99 LINE",
"39 0 LINE",
"163 0 LINE",
"239 0 LINE",
"246 59 LINE SMOOTH",
"248 76 OFFCURVE",
"241 86 OFFCURVE",
"225 90 CURVE"
);
},
{
closed = 1;
nodes = (
"264 673 OFFCURVE",
"263 684 OFFCURVE",
"260 694 CURVE SMOOTH",
"257 704 OFFCURVE",
"252 711 OFFCURVE",
"246 718 CURVE SMOOTH",
"240 725 OFFCURVE",
"232 731 OFFCURVE",
"223 735 CURVE SMOOTH",
"214 739 OFFCURVE",
"203 742 OFFCURVE",
"192 742 CURVE SMOOTH",
"181 742 OFFCURVE",
"171 739 OFFCURVE",
"161 735 CURVE SMOOTH",
"151 731 OFFCURVE",
"143 725 OFFCURVE",
"135 718 CURVE SMOOTH",
"127 711 OFFCURVE",
"120 704 OFFCURVE",
"115 694 CURVE SMOOTH",
"110 684 OFFCURVE",
"106 673 OFFCURVE",
"105 662 CURVE SMOOTH",
"104 651 OFFCURVE",
"104 641 OFFCURVE",
"107 632 CURVE SMOOTH",
"110 623 OFFCURVE",
"115 615 OFFCURVE",
"121 608 CURVE SMOOTH",
"127 601 OFFCURVE",
"135 595 OFFCURVE",
"144 591 CURVE SMOOTH",
"153 587 OFFCURVE",
"162 585 OFFCURVE",
"173 585 CURVE SMOOTH",
"184 585 OFFCURVE",
"195 587 OFFCURVE",
"205 591 CURVE SMOOTH",
"215 595 OFFCURVE",
"224 601 OFFCURVE",
"232 608 CURVE SMOOTH",
"240 615 OFFCURVE",
"248 623 OFFCURVE",
"253 632 CURVE SMOOTH",
"258 641 OFFCURVE",
"262 651 OFFCURVE",
"263 662 CURVE SMOOTH"
);
}
);
width = 282;
}
);
note = i;
unicode = 0069;
},
{
glyphname = j;
lastChange = "2017-01-26 15:47:16 +0000";
layers = (
{
layerId = "A0CD44AA-8F44-4864-B482-F84B7650FD25";
paths = (
{
closed = 1;
nodes = (
"359 703 OFFCURVE",
"353 711 OFFCURVE",
"347 718 CURVE SMOOTH",
"341 725 OFFCURVE",
"333 731 OFFCURVE",
"324 735 CURVE SMOOTH",
"315 739 OFFCURVE",
"305 741 OFFCURVE",
"294 741 CURVE SMOOTH",
"283 741 OFFCURVE",
"273 739 OFFCURVE",
"263 735 CURVE SMOOTH",
"253 731 OFFCURVE",
"244 725 OFFCURVE",
"236 718 CURVE SMOOTH",
"228 711 OFFCURVE",
"221 703 OFFCURVE",
"216 693 CURVE SMOOTH",
"211 683 OFFCURVE",
"207 673 OFFCURVE",
"206 662 CURVE SMOOTH",
"205 651 OFFCURVE",
"206 641 OFFCURVE",
"209 632 CURVE SMOOTH",
"212 623 OFFCURVE",
"217 615 OFFCURVE",
"223 608 CURVE SMOOTH",
"229 601 OFFCURVE",
"236 595 OFFCURVE",
"245 591 CURVE SMOOTH",
"254 587 OFFCURVE",
"264 585 OFFCURVE",
"275 585 CURVE SMOOTH",
"286 585 OFFCURVE",
"297 587 OFFCURVE",
"307 591 CURVE SMOOTH",
"317 595 OFFCURVE",
"326 601 OFFCURVE",
"334 608 CURVE SMOOTH",
"342 615 OFFCURVE",
"349 623 OFFCURVE",
"354 632 CURVE SMOOTH",
"359 641 OFFCURVE",
"363 651 OFFCURVE",
"364 662 CURVE SMOOTH",
"365 673 OFFCURVE",
"365 683 OFFCURVE",
"362 693 CURVE SMOOTH"
);
},
{
closed = 1;
nodes = (
"204 513 LINE",
"128 513 LINE",
"121 454 LINE SMOOTH",
"119 437 OFFCURVE",
"126 427 OFFCURVE",
"142 423 CURVE",
"143 423 OFFCURVE",
"145 422 OFFCURVE",
"148 422 CURVE SMOOTH",
"151 422 OFFCURVE",
"156 420 OFFCURVE",
"163 419 CURVE SMOOTH",
"170 418 OFFCURVE",
"180 416 OFFCURVE",
"192 414 CURVE",
"139 -17 LINE SMOOTH",
"137 -30 OFFCURVE",
"134 -42 OFFCURVE",
"131 -51 CURVE SMOOTH",
"128 -60 OFFCURVE",
"124 -68 OFFCURVE",
"118 -73 CURVE",
"112 -79 OFFCURVE",
"105 -83 OFFCURVE",
"96 -85 CURVE SMOOTH",
"87 -87 OFFCURVE",
"76 -88 OFFCURVE",
"64 -88 CURVE SMOOTH",
"52 -88 OFFCURVE",
"44 -89 OFFCURVE",
"39 -91 CURVE SMOOTH",
"34 -93 OFFCURVE",
"31 -97 OFFCURVE",
"29 -104 CURVE",
"17 -170 LINE",
"27 -173 OFFCURVE",
"37 -177 OFFCURVE",
"47 -178 CURVE SMOOTH",
"57 -179 OFFCURVE",
"67 -180 OFFCURVE",
"79 -180 CURVE SMOOTH",
"109 -180 OFFCURVE",
"135 -175 OFFCURVE",
"157 -167 CURVE",
"179 -158 OFFCURVE",
"196 -147 OFFCURVE",
"211 -132 CURVE SMOOTH",
"226 -117 OFFCURVE",
"238 -100 OFFCURVE",
"246 -80 CURVE SMOOTH",
"254 -60 OFFCURVE",
"259 -39 OFFCURVE",
"262 -17 CURVE SMOOTH",
"327 513 LINE"
);
}
);
width = 383;
}
);
leftKerningGroup = j;
note = j;
unicode = 006A;
},
{
glyphname = k;
lastChange = "2017-01-26 15:47:16 +0000";
layers = (
{
anchors = (
{
name = bottom;
position = "{281, 0}";
},
{
name = top;
position = "{281, 513}";
}
);
layerId = "A0CD44AA-8F44-4864-B482-F84B7650FD25";
paths = (
{
closed = 1;
nodes = (
"542 513 LINE",
"433 513 LINE SMOOTH",
"430 513 OFFCURVE",
"426 513 OFFCURVE",
"422 512 CURVE",
"423 513 LINE",
"300 513 LINE",
"293 454 LINE SMOOTH",
"291 437 OFFCURVE",
"298 427 OFFCURVE",
"314 423 CURVE",
"315 423 OFFCURVE",
"317 422 OFFCURVE",
"322 421 CURVE",
"240 334 LINE SMOOTH",
"234 328 OFFCURVE",
"229 323 OFFCURVE",
"224 321 CURVE SMOOTH",
"219 319 OFFCURVE",
"212 318 OFFCURVE",
"204 318 CURVE SMOOTH",
"181 318 LINE",
"233 743 LINE",
"110 743 LINE",
"34 743 LINE",
"27 684 LINE SMOOTH",
"25 667 OFFCURVE",
"32 657 OFFCURVE",
"48 653 CURVE",
"49 653 OFFCURVE",
"51 652 OFFCURVE",
"54 652 CURVE",
"57 651 OFFCURVE",
"62 650 OFFCURVE",
"69 649 CURVE SMOOTH",
"76 648 OFFCURVE",
"86 646 OFFCURVE",
"98 644 CURVE",
"46 221 LINE",
"18 0 LINE",
"142 0 LINE",
"166 201 LINE",
"167 201 LINE",
"171 235 LINE",
"199 235 LINE SMOOTH",
"209 235 OFFCURVE",
"216 234 OFFCURVE",
"221 232 CURVE SMOOTH",
"226 230 OFFCURVE",
"230 225 OFFCURVE",
"234 217 CURVE",
"341 22 LINE",
"345 14 OFFCURVE",
"351 8 OFFCURVE",
"357 5 CURVE SMOOTH",
"363 2 OFFCURVE",
"370 0 OFFCURVE",
"380 0 CURVE SMOOTH",
"436 0 LINE",
"492 0 LINE",
"512 0 LINE",
"519 59 LINE SMOOTH",
"521 76 OFFCURVE",
"514 86 OFFCURVE",
"498 90 CURVE",
"496 90 OFFCURVE",
"492 91 OFFCURVE",
"488 92 CURVE SMOOTH",
"484 93 OFFCURVE",
"477 93 OFFCURVE",
"467 94 CURVE SMOOTH",
"457 95 OFFCURVE",
"447 97 OFFCURVE",
"436 99 CURVE",
"352 249 LINE",
"348 257 OFFCURVE",
"343 264 OFFCURVE",
"338 271 CURVE SMOOTH",
"333 278 OFFCURVE",
"328 283 OFFCURVE",
"322 288 CURVE",
"330 292 OFFCURVE",
"336 297 OFFCURVE",
"343 303 CURVE SMOOTH",
"350 309 OFFCURVE",
"356 316 OFFCURVE",
"363 323 CURVE SMOOTH",
"450 415 LINE",
"460 416 OFFCURVE",
"470 418 OFFCURVE",
"479 419 CURVE SMOOTH",
"488 420 OFFCURVE",
"494 421 OFFCURVE",
"498 422 CURVE SMOOTH",
"502 423 OFFCURVE",
"505 423 OFFCURVE",
"507 423 CURVE",
"524 427 OFFCURVE",
"534 437 OFFCURVE",
"536 454 CURVE SMOOTH",
"543 513 LINE"
);
}
);
width = 562;
}
);
leftKerningGroup = k;
note = k;
rightKerningGroup = k;
unicode = 006B;
},
{
glyphname = l;
lastChange = "2017-01-26 14:38:56 +0000";
layers = (
{
anchors = (
{
name = bottom;
position = "{126, 0}";
},
{
name = center;
position = "{126, 257}";
},
{
name = top;
position = "{126, 513}";
},
{
name = topright;
position = "{231, 513}";
}
);
layerId = "A0CD44AA-8F44-4864-B482-F84B7650FD25";
paths = (
{
closed = 1;
nodes = (
"203 90 OFFCURVE",
"201 90 OFFCURVE",
"198 91 CURVE SMOOTH",
"195 92 OFFCURVE",
"190 93 OFFCURVE",
"183 94 CURVE SMOOTH",
"176 95 OFFCURVE",
"166 97 OFFCURVE",
"154 99 CURVE",
"233 743 LINE",
"110 743 LINE",
"34 743 LINE",
"27 684 LINE SMOOTH",
"25 667 OFFCURVE",
"32 657 OFFCURVE",
"48 653 CURVE",
"49 653 OFFCURVE",
"51 652 OFFCURVE",
"54 652 CURVE SMOOTH",
"57 652 OFFCURVE",
"62 650 OFFCURVE",
"69 649 CURVE SMOOTH",
"76 648 OFFCURVE",
"86 646 OFFCURVE",
"98 644 CURVE",
"62 351 LINE",
"46 221 LINE",
"31 99 LINE",
"18 0 LINE",
"19 0 LINE",
"142 0 LINE",
"218 0 LINE",
"225 59 LINE SMOOTH",
"227 76 OFFCURVE",
"220 86 OFFCURVE",
"204 90 CURVE"
);
}
);
width = 251;
}
);
note = l;
unicode = 006C;
},
{
glyphname = m;
lastChange = "2017-01-26 15:47:16 +0000";
layers = (
{
anchors = (
{
name = bottom;
position = "{433, 0}";
},
{
name = top;
position = "{433, 513}";
}
);
layerId = "A0CD44AA-8F44-4864-B482-F84B7650FD25";
paths = (
{
closed = 1;
nodes = (
"821 90 OFFCURVE",
"819 90 OFFCURVE",
"816 91 CURVE SMOOTH",
"813 92 OFFCURVE",
"808 93 OFFCURVE",
"801 94 CURVE SMOOTH",
"794 95 OFFCURVE",
"785 97 OFFCURVE",
"773 99 CURVE",
"800 326 LINE SMOOTH",
"804 357 OFFCURVE",
"804 385 OFFCURVE",
"799 409 CURVE SMOOTH",
"794 433 OFFCURVE",
"785 453 OFFCURVE",
"772 470 CURVE SMOOTH",
"759 487 OFFCURVE",
"742 499 OFFCURVE",
"721 508 CURVE SMOOTH",
"700 517 OFFCURVE",
"675 521 OFFCURVE",
"647 521 CURVE SMOOTH",
"631 521 OFFCURVE",
"615 519 OFFCURVE",
"598 515 CURVE SMOOTH",
"581 511 OFFCURVE",
"565 506 OFFCURVE",
"550 498 CURVE SMOOTH",
"535 490 OFFCURVE",
"520 481 OFFCURVE",
"507 469 CURVE",
"493 457 OFFCURVE",
"482 442 OFFCURVE",
"472 425 CURVE",
"465 454 OFFCURVE",
"452 477 OFFCURVE",
"433 495 CURVE SMOOTH",
"414 513 OFFCURVE",
"389 521 OFFCURVE",
"357 521 CURVE SMOOTH",
"342 521 OFFCURVE",
"327 519 OFFCURVE",
"314 516 CURVE",
"301 512 OFFCURVE",
"288 507 OFFCURVE",
"276 501 CURVE SMOOTH",
"264 495 OFFCURVE",
"253 488 OFFCURVE",
"242 480 CURVE SMOOTH",
"231 472 OFFCURVE",
"220 462 OFFCURVE",
"210 452 CURVE",
"207 490 LINE",
"204 505 OFFCURVE",
"194 513 OFFCURVE",
"178 513 CURVE SMOOTH",
"103 513 LINE",
"27 513 LINE",
"20 454 LINE SMOOTH",
"18 437 OFFCURVE",
"25 427 OFFCURVE",
"41 423 CURVE",
"42 423 OFFCURVE",
"44 422 OFFCURVE",
"47 422 CURVE SMOOTH",
"50 422 OFFCURVE",
"55 420 OFFCURVE",
"62 419 CURVE SMOOTH",
"69 418 OFFCURVE",
"79 416 OFFCURVE",
"91 414 CURVE",
"65 207 LINE",
"40 0 LINE",
"40 0 LINE",
"163 0 LINE",
"185 177 LINE",
"209 376 LINE",
"224 391 OFFCURVE",
"240 403 OFFCURVE",
"257 412 CURVE SMOOTH",
"274 421 OFFCURVE",
"291 425 OFFCURVE",
"309 425 CURVE SMOOTH",
"336 425 OFFCURVE",
"355 417 OFFCURVE",
"367 401 CURVE SMOOTH",
"379 385 OFFCURVE",
"382 360 OFFCURVE",
"378 326 CURVE SMOOTH",
"338 0 LINE",
"462 0 LINE",
"475 99 LINE",
"481 155 LINE",
"490 229 LINE",
"490 229 LINE",
"502 326 LINE SMOOTH",
"504 342 OFFCURVE",
"509 357 OFFCURVE",
"515 369 CURVE SMOOTH",
"521 381 OFFCURVE",
"529 392 OFFCURVE",
"538 400 CURVE SMOOTH",
"547 408 OFFCURVE",
"557 414 OFFCURVE",
"568 418 CURVE SMOOTH",
"579 422 OFFCURVE",
"592 425 OFFCURVE",
"605 425 CURVE SMOOTH",
"633 425 OFFCURVE",
"652 417 OFFCURVE",
"664 400 CURVE SMOOTH",
"676 383 OFFCURVE",
"681 359 OFFCURVE",
"677 326 CURVE SMOOTH",
"637 0 LINE",
"760 0 LINE",
"836 0 LINE",
"843 59 LINE SMOOTH",
"845 76 OFFCURVE",
"838 86 OFFCURVE",
"822 90 CURVE"
);
}
);
width = 865;
}
);
leftKerningGroup = k;
note = m;
unicode = 006D;
},
{
glyphname = n;
lastChange = "2017-01-26 15:47:16 +0000";
layers = (
{
anchors = (
{
name = bottom;
position = "{296, 0}";
},
{
name = top;
position = "{296, 513}";
}
);
layerId = "A0CD44AA-8F44-4864-B482-F84B7650FD25";
paths = (
{
closed = 1;
nodes = (
"548 90 OFFCURVE",
"545 90 OFFCURVE",
"542 91 CURVE SMOOTH",
"539 92 OFFCURVE",
"535 93 OFFCURVE",
"528 94 CURVE SMOOTH",
"521 95 OFFCURVE",
"511 97 OFFCURVE",
"499 99 CURVE",
"527 326 LINE SMOOTH",
"531 355 OFFCURVE",
"530 381 OFFCURVE",
"525 405 CURVE SMOOTH",
"520 429 OFFCURVE",
"512 450 OFFCURVE",
"500 467 CURVE SMOOTH",
"488 484 OFFCURVE",
"471 498 OFFCURVE",
"451 507 CURVE SMOOTH",
"430 517 OFFCURVE",
"406 521 OFFCURVE",
"378 521 CURVE SMOOTH",
"361 521 OFFCURVE",
"344 519 OFFCURVE",
"329 516 CURVE SMOOTH",
"314 513 OFFCURVE",
"300 507 OFFCURVE",
"286 501 CURVE SMOOTH",
"272 495 OFFCURVE",
"260 488 OFFCURVE",
"247 479 CURVE SMOOTH",
"234 470 OFFCURVE",
"223 461 OFFCURVE",
"211 450 CURVE",
"207 490 LINE",
"204 505 OFFCURVE",
"194 513 OFFCURVE",
"178 513 CURVE SMOOTH",
"103 513 LINE",
"27 513 LINE",
"20 454 LINE SMOOTH",
"18 437 OFFCURVE",
"25 427 OFFCURVE",
"41 423 CURVE",
"42 423 OFFCURVE",
"44 423 OFFCURVE",
"47 422 CURVE",
"50 422 OFFCURVE",
"55 420 OFFCURVE",
"62 419 CURVE SMOOTH",
"69 418 OFFCURVE",
"79 416 OFFCURVE",
"91 414 CURVE",
"58 149 LINE",
"40 0 LINE",
"163 0 LINE",
"176 99 LINE",
"186 184 LINE",
"189 208 LINE",
"209 371 LINE",
"228 388 OFFCURVE",
"247 400 OFFCURVE",
"267 410 CURVE SMOOTH",
"287 420 OFFCURVE",
"308 425 OFFCURVE",
"329 425 CURVE SMOOTH",
"358 425 OFFCURVE",
"379 416 OFFCURVE",
"391 399 CURVE SMOOTH",
"403 382 OFFCURVE",
"407 357 OFFCURVE",
"403 326 CURVE SMOOTH",
"363 0 LINE",
"487 0 LINE",
"563 0 LINE",
"570 59 LINE SMOOTH",
"572 76 OFFCURVE",
"565 86 OFFCURVE",
"549 90 CURVE"
);
}
);
width = 591;
}
);
leftKerningGroup = k;
note = n;
unicode = 006E;
},
{
glyphname = o;
lastChange = "2017-01-26 15:47:16 +0000";
layers = (
{
anchors = (
{
name = bottom;
position = "{277, 0}";
},
{
name = center;
position = "{277, 257}";
},
{
name = ogonek;
position = "{498, 10}";
},
{
name = top;
position = "{277, 513}";
},
{
name = topright;
position = "{533, 513}";
}
);
layerId = "A0CD44AA-8F44-4864-B482-F84B7650FD25";
paths = (
{
closed = 1;
nodes = (
"270 521 OFFCURVE",
"234 514 OFFCURVE",
"201 502 CURVE SMOOTH",
"168 490 OFFCURVE",
"140 473 OFFCURVE",
"115 450 CURVE SMOOTH",
"90 427 OFFCURVE",
"69 400 OFFCURVE",
"53 367 CURVE SMOOTH",
"37 334 OFFCURVE",
"26 298 OFFCURVE",
"21 258 CURVE SMOOTH",
"16 217 OFFCURVE",
"18 181 OFFCURVE",
"26 148 CURVE SMOOTH",
"34 115 OFFCURVE",
"48 87 OFFCURVE",
"67 64 CURVE SMOOTH",
"86 41 OFFCURVE",
"111 23 OFFCURVE",
"141 11 CURVE SMOOTH",
"171 -1 OFFCURVE",
"205 -7 OFFCURVE",
"243 -7 CURVE SMOOTH",
"281 -7 OFFCURVE",
"317 -1 OFFCURVE",
"350 11 CURVE SMOOTH",
"383 23 OFFCURVE",
"411 41 OFFCURVE",
"436 64 CURVE SMOOTH",
"461 87 OFFCURVE",
"481 115 OFFCURVE",
"497 148 CURVE SMOOTH",
"513 181 OFFCURVE",
"524 217 OFFCURVE",
"529 258 CURVE SMOOTH",
"534 298 OFFCURVE",
"532 334 OFFCURVE",
"524 367 CURVE SMOOTH",
"516 400 OFFCURVE",
"502 427 OFFCURVE",
"483 450 CURVE SMOOTH",
"464 473 OFFCURVE",
"440 490 OFFCURVE",
"410 502 CURVE SMOOTH",
"380 514 OFFCURVE",
"346 521 OFFCURVE",
"308 521 CURVE SMOOTH"
);
},
{
closed = 1;
nodes = (
"212 88 OFFCURVE",
"181 102 OFFCURVE",
"164 131 CURVE SMOOTH",
"147 160 OFFCURVE",
"142 201 OFFCURVE",
"149 256 CURVE SMOOTH",
"156 311 OFFCURVE",
"171 354 OFFCURVE",
"195 383 CURVE SMOOTH",
"219 412 OFFCURVE",
"254 427 OFFCURVE",
"297 427 CURVE SMOOTH",
"340 427 OFFCURVE",
"369 412 OFFCURVE",
"386 383 CURVE SMOOTH",
"403 354 OFFCURVE",
"408 312 OFFCURVE",
"401 257 CURVE SMOOTH",
"394 202 OFFCURVE",
"379 160 OFFCURVE",
"355 131 CURVE SMOOTH",
"331 102 OFFCURVE",
"298 88 OFFCURVE",
"255 88 CURVE SMOOTH"
);
}
);
width = 553;
}
);
leftKerningGroup = c;
note = o;
rightKerningGroup = b;
unicode = 006F;
},
{
glyphname = p;
lastChange = "2017-01-26 14:38:56 +0000";
layers = (
{
anchors = (
{
name = bottom;
position = "{322, 0}";
},
{
name = top;
position = "{322, 513}";
}
);
layerId = "A0CD44AA-8F44-4864-B482-F84B7650FD25";
paths = (
{
closed = 1;
nodes = (
"613 404 OFFCURVE",
"603 432 OFFCURVE",
"589 454 CURVE SMOOTH",
"575 476 OFFCURVE",
"557 493 OFFCURVE",
"535 505 CURVE SMOOTH",
"513 517 OFFCURVE",
"488 522 OFFCURVE",
"460 522 CURVE SMOOTH",
"424 522 OFFCURVE",
"393 515 OFFCURVE",
"364 500 CURVE SMOOTH",
"335 485 OFFCURVE",
"309 467 OFFCURVE",
"285 443 CURVE",
"281 490 LINE",
"280 498 OFFCURVE",
"277 503 OFFCURVE",
"272 507 CURVE SMOOTH",
"267 511 OFFCURVE",
"260 513 OFFCURVE",
"252 513 CURVE SMOOTH",
"177 513 LINE",
"101 513 LINE",
"94 454 LINE SMOOTH",
"92 437 OFFCURVE",
"99 427 OFFCURVE",
"115 423 CURVE",
"116 423 OFFCURVE",
"118 422 OFFCURVE",
"121 422 CURVE SMOOTH",
"124 422 OFFCURVE",
"129 420 OFFCURVE",
"136 419 CURVE SMOOTH",
"143 418 OFFCURVE",
"153 416 OFFCURVE",
"165 414 CURVE",
"105 -68 LINE",
"92 -70 OFFCURVE",
"82 -73 OFFCURVE",
"75 -74 CURVE SMOOTH",
"68 -75 OFFCURVE",
"63 -76 OFFCURVE",
"60 -76 CURVE SMOOTH",
"57 -76 OFFCURVE",
"55 -77 OFFCURVE",
"54 -77 CURVE",
"37 -81 OFFCURVE",
"27 -92 OFFCURVE",
"25 -109 CURVE SMOOTH",
"18 -167 LINE",
"93 -167 LINE",
"217 -167 LINE",
"292 -167 LINE",
"300 -109 LINE SMOOTH",
"302 -92 OFFCURVE",
"294 -81 OFFCURVE",
"278 -77 CURVE",
"277 -77 OFFCURVE",
"275 -77 OFFCURVE",
"272 -76 CURVE SMOOTH",
"269 -75 OFFCURVE",
"265 -75 OFFCURVE",
"258 -74 CURVE SMOOTH",
"251 -73 OFFCURVE",
"241 -70 OFFCURVE",
"229 -68 CURVE",
"243 43 LINE",
"257 27 OFFCURVE",
"273 15 OFFCURVE",
"292 6 CURVE SMOOTH",
"311 -3 OFFCURVE",
"335 -7 OFFCURVE",
"364 -7 CURVE SMOOTH",
"398 -7 OFFCURVE",
"429 -1 OFFCURVE",
"458 13 CURVE SMOOTH",
"487 27 OFFCURVE",
"513 45 OFFCURVE",
"535 69 CURVE SMOOTH",
"557 93 OFFCURVE",
"575 121 OFFCURVE",
"589 154 CURVE SMOOTH",
"603 187 OFFCURVE",
"613 223 OFFCURVE",
"618 261 CURVE SMOOTH",
"623 303 OFFCURVE",
"623 339 OFFCURVE",
"618 372 CURVE SMOOTH"
);
},
{
closed = 1;
nodes = (
"464 161 OFFCURVE",
"453 143 OFFCURVE",
"441 129 CURVE SMOOTH",
"429 115 OFFCURVE",
"415 104 OFFCURVE",
"399 97 CURVE SMOOTH",
"383 90 OFFCURVE",
"366 86 OFFCURVE",
"347 86 CURVE SMOOTH",
"328 86 OFFCURVE",
"311 90 OFFCURVE",
"295 97 CURVE SMOOTH",
"279 104 OFFCURVE",
"266 116 OFFCURVE",
"254 133 CURVE",
"282 363 LINE",
"300 383 OFFCURVE",
"319 398 OFFCURVE",
"338 409 CURVE SMOOTH",
"358 420 OFFCURVE",
"380 425 OFFCURVE",
"406 425 CURVE SMOOTH",
"422 425 OFFCURVE",
"437 422 OFFCURVE",
"449 416 CURVE SMOOTH",
"461 410 OFFCURVE",
"471 400 OFFCURVE",
"478 387 CURVE SMOOTH",
"485 374 OFFCURVE",
"490 358 OFFCURVE",
"492 337 CURVE SMOOTH",
"494 316 OFFCURVE",
"494 290 OFFCURVE",
"490 260 CURVE SMOOTH",
"486 230 OFFCURVE",
"480 205 OFFCURVE",
"472 183 CURVE SMOOTH"
);
}
);
width = 643;
}
);
note = p;
unicode = 0070;
},
{
glyphname = q;
lastChange = "2017-01-26 15:47:16 +0000";
layers = (
{
anchors = (
{
name = bottom;
position = "{274, 0}";
},
{
name = top;
position = "{274, 513}";
}
);
layerId = "A0CD44AA-8F44-4864-B482-F84B7650FD25";
paths = (
{
closed = 1;
nodes = (
"507 -78 OFFCURVE",
"504 -77 OFFCURVE",
"501 -77 CURVE SMOOTH",
"498 -77 OFFCURVE",
"493 -75 OFFCURVE",
"485 -74 CURVE SMOOTH",
"477 -73 OFFCURVE",
"467 -71 OFFCURVE",
"455 -69 CURVE",
"504 333 LINE",
"524 494 LINE",
"433 513 OFFCURVE",
"350 522 OFFCURVE",
"276 522 CURVE SMOOTH",
"242 522 OFFCURVE",
"211 515 OFFCURVE",
"182 502 CURVE SMOOTH",
"153 489 OFFCURVE",
"128 469 OFFCURVE",
"106 445 CURVE SMOOTH",
"84 421 OFFCURVE",
"65 393 OFFCURVE",
"51 360 CURVE SMOOTH",
"37 327 OFFCURVE",
"27 292 OFFCURVE",
"22 254 CURVE SMOOTH",
"17 212 OFFCURVE",
"17 174 OFFCURVE",
"22 142 CURVE SMOOTH",
"27 110 OFFCURVE",
"37 83 OFFCURVE",
"51 61 CURVE SMOOTH",
"65 39 OFFCURVE",
"83 23 OFFCURVE",
"105 11 CURVE SMOOTH",
"127 -1 OFFCURVE",
"152 -7 OFFCURVE",
"180 -7 CURVE SMOOTH",
"214 -7 OFFCURVE",
"245 0 OFFCURVE",
"272 13 CURVE SMOOTH",
"299 26 OFFCURVE",
"325 42 OFFCURVE",
"348 64 CURVE",
"331 -69 LINE",
"318 -71 OFFCURVE",
"308 -73 OFFCURVE",
"301 -74 CURVE SMOOTH",
"294 -75 OFFCURVE",
"289 -76 OFFCURVE",
"286 -77 CURVE SMOOTH",
"283 -78 OFFCURVE",
"280 -78 OFFCURVE",
"279 -78 CURVE",
"262 -82 OFFCURVE",
"253 -92 OFFCURVE",
"251 -109 CURVE SMOOTH",
"243 -168 LINE",
"319 -168 LINE",
"443 -168 LINE",
"522 -168 LINE",
"529 -109 LINE SMOOTH",
"531 -92 OFFCURVE",
"524 -82 OFFCURVE",
"508 -78 CURVE"
);
},
{
closed = 1;
nodes = (
"282 95 OFFCURVE",
"260 89 OFFCURVE",
"234 89 CURVE SMOOTH",
"218 89 OFFCURVE",
"203 92 OFFCURVE",
"191 98 CURVE SMOOTH",
"179 104 OFFCURVE",
"169 114 OFFCURVE",
"162 127 CURVE SMOOTH",
"155 140 OFFCURVE",
"150 157 OFFCURVE",
"148 178 CURVE SMOOTH",
"146 199 OFFCURVE",
"146 224 OFFCURVE",
"150 254 CURVE SMOOTH",
"154 284 OFFCURVE",
"160 309 OFFCURVE",
"168 331 CURVE SMOOTH",
"176 353 OFFCURVE",
"187 371 OFFCURVE",
"199 385 CURVE SMOOTH",
"211 399 OFFCURVE",
"225 410 OFFCURVE",
"241 417 CURVE SMOOTH",
"257 424 OFFCURVE",
"274 428 OFFCURVE",
"293 428 CURVE SMOOTH",
"326 428 OFFCURVE",
"358 424 OFFCURVE",
"391 418 CURVE",
"358 151 LINE",
"340 131 OFFCURVE",
"321 117 OFFCURVE",
"302 106 CURVE SMOOTH"
);
}
);
width = 548;
}
);
leftKerningGroup = c;
note = q;
rightKerningGroup = q;
unicode = 0071;
},
{
glyphname = r;
lastChange = "2017-01-26 15:47:16 +0000";
layers = (
{
anchors = (
{
name = bottom;
position = "{224, 0}";
},
{
name = top;
position = "{224, 513}";
}
);
layerId = "A0CD44AA-8F44-4864-B482-F84B7650FD25";
paths = (
{
closed = 1;
nodes = (
"337 522 OFFCURVE",
"309 513 OFFCURVE",
"282 495 CURVE SMOOTH",
"255 477 OFFCURVE",
"230 452 OFFCURVE",
"208 420 CURVE",
"208 482 LINE SMOOTH",
"208 493 OFFCURVE",
"205 501 OFFCURVE",
"201 506 CURVE SMOOTH",
"197 511 OFFCURVE",
"188 513 OFFCURVE",
"175 513 CURVE SMOOTH",
"103 513 LINE",
"103 513 LINE",
"27 513 LINE",
"20 454 LINE SMOOTH",
"18 437 OFFCURVE",
"25 427 OFFCURVE",
"41 423 CURVE",
"49 422 OFFCURVE",
"49 422 OFFCURVE",
"91 414 CURVE",
"64 193 LINE",
"59 158 LINE",
"52 99 LINE",
"40 0 LINE",
"40 0 LINE",
"163 0 LINE",
"163 0 LINE",
"181 141 LINE",
"203 319 LINE",
"219 346 OFFCURVE",
"237 368 OFFCURVE",
"257 382 CURVE SMOOTH",
"277 396 OFFCURVE",
"299 403 OFFCURVE",
"325 403 CURVE SMOOTH",
"339 403 OFFCURVE",
"351 401 OFFCURVE",
"359 399 CURVE SMOOTH",
"367 397 OFFCURVE",
"374 396 OFFCURVE",
"379 396 CURVE SMOOTH",
"385 396 OFFCURVE",
"389 397 OFFCURVE",
"393 400 CURVE",
"397 402 OFFCURVE",
"400 406 OFFCURVE",
"402 412 CURVE",
"429 505 LINE",
"414 517 OFFCURVE",
"393 522 OFFCURVE",
"368 522 CURVE SMOOTH"
);
}
);
width = 448;
}
);
leftKerningGroup = k;
note = r;
rightKerningGroup = r;
unicode = 0072;
},
{
glyphname = s;
lastChange = "2017-01-26 15:47:16 +0000";
layers = (
{
anchors = (
{
name = bottom;
position = "{220, 0}";
},
{
name = top;
position = "{220, 513}";
}
);
layerId = "A0CD44AA-8F44-4864-B482-F84B7650FD25";
paths = (
{
closed = 1;
nodes = (
"395 231 OFFCURVE",
"387 243 OFFCURVE",
"376 253 CURVE",
"365 264 OFFCURVE",
"353 272 OFFCURVE",
"339 279 CURVE SMOOTH",
"325 286 OFFCURVE",
"311 293 OFFCURVE",
"296 298 CURVE SMOOTH",
"281 303 OFFCURVE",
"265 308 OFFCURVE",
"251 312 CURVE SMOOTH",
"237 316 OFFCURVE",
"224 322 OFFCURVE",
"213 328 CURVE SMOOTH",
"202 334 OFFCURVE",
"193 339 OFFCURVE",
"187 347 CURVE SMOOTH",
"181 355 OFFCURVE",
"179 364 OFFCURVE",
"180 375 CURVE SMOOTH",
"182 392 OFFCURVE",
"191 406 OFFCURVE",
"206 416 CURVE SMOOTH",
"221 426 OFFCURVE",
"241 431 OFFCURVE",
"265 431 CURVE SMOOTH",
"288 431 OFFCURVE",
"312 428 OFFCURVE",
"324 424 CURVE",
"323 385 OFFCURVE",
"323 373 OFFCURVE",
"323 368 CURVE",
"324 356 OFFCURVE",
"331 349 OFFCURVE",
"344 349 CURVE SMOOTH",
"386 349 LINE",
"398 349 LINE",
"402 349 LINE",
"420 494 LINE",
"420 494 LINE",
"351 517 OFFCURVE",
"324 521 OFFCURVE",
"274 521 CURVE SMOOTH",
"242 521 OFFCURVE",
"214 516 OFFCURVE",
"189 508 CURVE SMOOTH",
"164 500 OFFCURVE",
"142 488 OFFCURVE",
"124 474 CURVE SMOOTH",
"106 460 OFFCURVE",
"92 443 OFFCURVE",
"81 424 CURVE SMOOTH",
"70 405 OFFCURVE",
"64 385 OFFCURVE",
"61 364 CURVE SMOOTH",
"58 341 OFFCURVE",
"60 322 OFFCURVE",
"65 306 CURVE SMOOTH",
"70 290 OFFCURVE",
"79 277 OFFCURVE",
"89 266 CURVE SMOOTH",
"99 255 OFFCURVE",
"112 246 OFFCURVE",
"126 239 CURVE SMOOTH",
"140 232 OFFCURVE",
"155 225 OFFCURVE",
"170 220 CURVE SMOOTH",
"215 205 LINE",
"230 201 OFFCURVE",
"242 196 OFFCURVE",
"253 190 CURVE SMOOTH",
"264 184 OFFCURVE",
"273 178 OFFCURVE",
"279 170 CURVE SMOOTH",
"285 162 OFFCURVE",
"287 153 OFFCURVE",
"286 141 CURVE",
"285 133 OFFCURVE",
"283 125 OFFCURVE",
"279 117 CURVE SMOOTH",
"275 109 OFFCURVE",
"269 104 OFFCURVE",
"261 98 CURVE SMOOTH",
"253 92 OFFCURVE",
"245 88 OFFCURVE",
"234 84 CURVE",
"223 81 OFFCURVE",
"210 79 OFFCURVE",
"195 79 CURVE SMOOTH",
"173 79 OFFCURVE",
"141 79 OFFCURVE",
"115 87 CURVE",
"116 127 OFFCURVE",
"116 141 OFFCURVE",
"116 146 CURVE",
"115 158 OFFCURVE",
"108 165 OFFCURVE",
"95 165 CURVE SMOOTH",
"54 165 LINE",
"42 165 LINE",
"37 165 LINE",
"26 70 LINE",
"20 20 LINE",
"20 20 LINE",
"55 6 OFFCURVE",
"115 -8 OFFCURVE",
"179 -8 CURVE SMOOTH",
"212 -8 OFFCURVE",
"241 -4 OFFCURVE",
"268 5 CURVE SMOOTH",
"295 13 OFFCURVE",
"318 25 OFFCURVE",
"337 40 CURVE SMOOTH",
"356 55 OFFCURVE",
"371 73 OFFCURVE",
"383 94 CURVE SMOOTH",
"395 115 OFFCURVE",
"402 138 OFFCURVE",
"405 163 CURVE SMOOTH",
"408 184 OFFCURVE",
"405 201 OFFCURVE",
"400 216 CURVE SMOOTH"
);
}
);
width = 439;
}
);
leftKerningGroup = s;
note = s;
unicode = 0073;
},
{
glyphname = t;
lastChange = "2017-01-26 14:38:56 +0000";
layers = (
{
anchors = (
{
name = bottom;
position = "{191, 0}";
},
{
name = center;
position = "{191, 257}";
},
{
name = top;
position = "{191, 513}";
},
{
name = topright;
position = "{361, 513}";
}
);
layerId = "A0CD44AA-8F44-4864-B482-F84B7650FD25";
paths = (
{
closed = 1;
nodes = (
"204 -8 OFFCURVE",
"228 -4 OFFCURVE",
"252 4 CURVE SMOOTH",
"276 12 OFFCURVE",
"299 23 OFFCURVE",
"319 38 CURVE",
"289 98 LINE SMOOTH",
"287 102 OFFCURVE",
"284 104 OFFCURVE",
"282 106 CURVE SMOOTH",
"280 108 OFFCURVE",
"278 108 OFFCURVE",
"274 108 CURVE SMOOTH",
"271 108 OFFCURVE",
"267 108 OFFCURVE",
"264 106 CURVE SMOOTH",
"261 104 OFFCURVE",
"258 102 OFFCURVE",
"254 100 CURVE SMOOTH",
"250 98 OFFCURVE",
"244 96 OFFCURVE",
"239 94 CURVE SMOOTH",
"234 92 OFFCURVE",
"228 92 OFFCURVE",
"220 92 CURVE SMOOTH",
"207 92 OFFCURVE",
"196 96 OFFCURVE",
"189 105 CURVE SMOOTH",
"182 114 OFFCURVE",
"180 126 OFFCURVE",
"182 142 CURVE SMOOTH",
"216 420 LINE",
"351 420 LINE",
"362 508 LINE",
"227 508 LINE",
"247 670 LINE",
"183 670 LINE SMOOTH",
"176 670 OFFCURVE",
"169 668 OFFCURVE",
"164 664 CURVE SMOOTH",
"159 660 OFFCURVE",
"155 656 OFFCURVE",
"153 649 CURVE SMOOTH",
"109 509 LINE",
"25 496 LINE",
"19 446 LINE SMOOTH",
"18 437 OFFCURVE",
"20 431 OFFCURVE",
"24 427 CURVE SMOOTH",
"28 423 OFFCURVE",
"34 420 OFFCURVE",
"41 420 CURVE SMOOTH",
"93 420 LINE",
"57 134 LINE SMOOTH",
"52 90 OFFCURVE",
"60 55 OFFCURVE",
"81 30 CURVE SMOOTH",
"102 5 OFFCURVE",
"135 -8 OFFCURVE",
"179 -8 CURVE SMOOTH"
);
}
);
width = 381;
}
);
note = t;
unicode = 0074;
},
{
glyphname = u;
lastChange = "2017-01-26 15:47:16 +0000";
layers = (
{
anchors = (
{
name = bottom;
position = "{296, 0}";
},
{
name = ogonek;
position = "{532, 10}";
},
{
name = top;
position = "{296, 513}";
},
{
name = topright;
position = "{571, 513}";
}
);
layerId = "A0CD44AA-8F44-4864-B482-F84B7650FD25";
paths = (
{
closed = 1;
nodes = (
"541 91 OFFCURVE",
"541 91 OFFCURVE",
"499 99 CURVE",
"550 513 LINE",
"426 513 LINE",
"426 513 LINE",
"351 513 LINE",
"343 454 LINE SMOOTH",
"341 437 OFFCURVE",
"349 427 OFFCURVE",
"365 423 CURVE",
"373 422 OFFCURVE",
"372 421 OFFCURVE",
"414 414 CURVE",
"381 142 LINE",
"362 125 OFFCURVE",
"343 112 OFFCURVE",
"323 103 CURVE SMOOTH",
"303 94 OFFCURVE",
"282 89 OFFCURVE",
"261 89 CURVE SMOOTH",
"232 89 OFFCURVE",
"211 97 OFFCURVE",
"199 114 CURVE SMOOTH",
"187 131 OFFCURVE",
"182 156 OFFCURVE",
"186 187 CURVE SMOOTH",
"226 513 LINE",
"103 513 LINE",
"103 513 LINE",
"27 513 LINE",
"20 454 LINE SMOOTH",
"18 437 OFFCURVE",
"25 427 OFFCURVE",
"41 423 CURVE",
"49 422 OFFCURVE",
"49 422 OFFCURVE",
"91 414 CURVE",
"63 187 LINE SMOOTH",
"59 158 OFFCURVE",
"59 132 OFFCURVE",
"64 108 CURVE SMOOTH",
"69 84 OFFCURVE",
"77 64 OFFCURVE",
"90 47 CURVE SMOOTH",
"103 30 OFFCURVE",
"119 15 OFFCURVE",
"139 6 CURVE SMOOTH",
"159 -3 OFFCURVE",
"184 -8 OFFCURVE",
"212 -8 CURVE SMOOTH",
"229 -8 OFFCURVE",
"245 -6 OFFCURVE",
"260 -3 CURVE",
"275 1 OFFCURVE",
"290 6 OFFCURVE",
"304 12 CURVE SMOOTH",
"318 18 OFFCURVE",
"331 25 OFFCURVE",
"343 34 CURVE SMOOTH",
"355 43 OFFCURVE",
"367 53 OFFCURVE",
"379 64 CURVE",
"383 23 LINE",
"386 8 OFFCURVE",
"395 0 OFFCURVE",
"411 0 CURVE SMOOTH",
"487 0 LINE",
"563 0 LINE",
"570 59 LINE SMOOTH",
"572 76 OFFCURVE",
"565 86 OFFCURVE",
"549 90 CURVE"
);
}
);
width = 591;
}
);
leftKerningGroup = k;
note = u;
unicode = 0075;
},
{
glyphname = v;
lastChange = "2017-01-26 15:47:16 +0000";
layers = (
{
anchors = (
{
name = bottom;
position = "{317, 0}";
},
{
name = top;
position = "{317, 513}";
}
);
layerId = "A0CD44AA-8F44-4864-B482-F84B7650FD25";
paths = (
{
closed = 1;
nodes = (
"580 513 LINE",
"580 513 LINE",
"483 513 LINE",
"483 513 LINE",
"364 513 LINE",
"356 454 LINE SMOOTH",
"354 437 OFFCURVE",
"362 427 OFFCURVE",
"378 423 CURVE",
"384 422 OFFCURVE",
"385 421 OFFCURVE",
"410 417 CURVE",
"311 216 LINE SMOOTH",
"303 200 OFFCURVE",
"296 184 OFFCURVE",
"290 169 CURVE SMOOTH",
"284 154 OFFCURVE",
"279 138 OFFCURVE",
"274 123 CURVE",
"273 138 OFFCURVE",
"272 154 OFFCURVE",
"270 169 CURVE SMOOTH",
"268 184 OFFCURVE",
"265 200 OFFCURVE",
"261 216 CURVE SMOOTH",
"213 418 LINE",
"233 422 OFFCURVE",
"235 422 OFFCURVE",
"241 423 CURVE",
"258 427 OFFCURVE",
"268 437 OFFCURVE",
"270 454 CURVE SMOOTH",
"277 513 LINE",
"163 513 LINE",
"163 513 LINE",
"61 513 LINE",
"61 513 LINE",
"28 513 LINE",
"20 454 LINE SMOOTH",
"18 437 OFFCURVE",
"26 427 OFFCURVE",
"42 423 CURVE",
"50 422 OFFCURVE",
"46 422 OFFCURVE",
"88 414 CURVE",
"202 0 LINE",
"314 0 LINE",
"529 414 LINE",
"572 421 OFFCURVE",
"569 422 OFFCURVE",
"577 423 CURVE",
"594 427 OFFCURVE",
"604 437 OFFCURVE",
"606 454 CURVE SMOOTH",
"613 513 LINE"
);
}
);
width = 633;
}
);
leftKerningGroup = v;
note = v;
rightKerningGroup = v;
unicode = 0076;
},
{
glyphname = w;
lastChange = "2017-01-26 15:47:16 +0000";
layers = (
{
anchors = (
{
name = bottom;
position = "{457, 0}";
},
{
name = top;
position = "{457, 513}";
}
);
layerId = "A0CD44AA-8F44-4864-B482-F84B7650FD25";
paths = (
{
closed = 1;
nodes = (
"853 513 LINE",
"853 513 LINE",
"759 513 LINE",
"759 513 LINE",
"644 513 LINE",
"637 454 LINE SMOOTH",
"635 437 OFFCURVE",
"642 427 OFFCURVE",
"658 423 CURVE",
"665 422 OFFCURVE",
"666 421 OFFCURVE",
"693 416 CURVE",
"613 216 LINE SMOOTH",
"607 201 OFFCURVE",
"601 185 OFFCURVE",
"596 171 CURVE SMOOTH",
"591 157 OFFCURVE",
"587 142 OFFCURVE",
"583 128 CURVE",
"581 142 OFFCURVE",
"580 155 OFFCURVE",
"578 169 CURVE SMOOTH",
"576 183 OFFCURVE",
"575 197 OFFCURVE",
"572 211 CURVE SMOOTH",
"522 491 LINE SMOOTH",
"521 498 OFFCURVE",
"517 503 OFFCURVE",
"512 507 CURVE SMOOTH",
"507 511 OFFCURVE",
"499 514 OFFCURVE",
"490 514 CURVE SMOOTH",
"436 514 LINE SMOOTH",
"428 514 OFFCURVE",
"421 511 OFFCURVE",
"414 507 CURVE SMOOTH",
"407 503 OFFCURVE",
"403 498 OFFCURVE",
"400 491 CURVE SMOOTH",
"281 216 LINE SMOOTH",
"274 201 OFFCURVE",
"269 186 OFFCURVE",
"263 172 CURVE SMOOTH",
"257 158 OFFCURVE",
"250 143 OFFCURVE",
"245 129 CURVE",
"244 143 OFFCURVE",
"245 158 OFFCURVE",
"244 172 CURVE SMOOTH",
"243 186 OFFCURVE",
"241 201 OFFCURVE",
"239 216 CURVE SMOOTH",
"210 417 LINE",
"234 421 OFFCURVE",
"235 422 OFFCURVE",
"241 423 CURVE",
"258 427 OFFCURVE",
"268 437 OFFCURVE",
"270 454 CURVE SMOOTH",
"277 513 LINE",
"167 513 LINE",
"167 513 LINE",
"69 513 LINE",
"69 513 LINE",
"28 513 LINE",
"20 454 LINE SMOOTH",
"18 437 OFFCURVE",
"26 427 OFFCURVE",
"42 423 CURVE",
"50 422 OFFCURVE",
"46 421 OFFCURVE",
"88 414 CURVE",
"168 0 LINE",
"263 0 LINE SMOOTH",
"276 0 OFFCURVE",
"286 7 OFFCURVE",
"292 22 CURVE SMOOTH",
"422 317 LINE",
"434 347 LINE SMOOTH",
"438 357 OFFCURVE",
"441 367 OFFCURVE",
"444 377 CURVE",
"444 367 OFFCURVE",
"446 358 OFFCURVE",
"447 348 CURVE SMOOTH",
"448 338 OFFCURVE",
"449 328 OFFCURVE",
"451 318 CURVE SMOOTH",
"507 22 LINE SMOOTH",
"510 7 OFFCURVE",
"517 0 OFFCURVE",
"528 0 CURVE SMOOTH",
"627 0 LINE",
"809 414 LINE",
"852 422 OFFCURVE",
"850 422 OFFCURVE",
"858 423 CURVE",
"875 427 OFFCURVE",
"885 437 OFFCURVE",
"887 454 CURVE SMOOTH",
"894 513 LINE"
);
}
);
width = 913;
}
);
leftKerningGroup = v;
note = w;
rightKerningGroup = v;
unicode = 0077;
},
{
glyphname = x;
lastChange = "2017-01-26 15:47:16 +0000";
layers = (
{
anchors = (
{
name = bottom;
position = "{308, 0}";
},
{
name = top;
position = "{308, 513}";
}
);
layerId = "A0CD44AA-8F44-4864-B482-F84B7650FD25";
paths = (
{
closed = 1;
nodes = (
"522 91 OFFCURVE",
"519 92 OFFCURVE",
"488 97 CURVE",
"396 270 LINE",
"516 416 LINE",
"550 421 OFFCURVE",
"553 422 OFFCURVE",
"560 423 CURVE",
"577 427 OFFCURVE",
"586 437 OFFCURVE",
"588 454 CURVE SMOOTH",
"596 513 LINE",
"595 513 LINE",
"595 513 LINE",
"482 513 LINE",
"481 513 LINE",
"373 513 LINE",
"366 454 LINE SMOOTH",
"364 437 OFFCURVE",
"371 427 OFFCURVE",
"387 423 CURVE",
"390 422 OFFCURVE",
"392 422 OFFCURVE",
"395 421 CURVE",
"348 359 LINE",
"344 353 OFFCURVE",
"339 348 OFFCURVE",
"336 342 CURVE SMOOTH",
"333 336 OFFCURVE",
"330 331 OFFCURVE",
"328 325 CURVE",
"279 423 LINE",
"279 423 LINE",
"296 427 OFFCURVE",
"306 437 OFFCURVE",
"308 454 CURVE SMOOTH",
"315 513 LINE",
"212 513 LINE",
"212 513 LINE",
"93 513 LINE",
"93 513 LINE",
"93 513 LINE",
"85 454 LINE SMOOTH",
"83 437 OFFCURVE",
"91 427 OFFCURVE",
"107 423 CURVE",
"114 422 OFFCURVE",
"117 421 OFFCURVE",
"147 416 CURVE",
"231 264 LINE",
"99 97 LINE",
"65 92 OFFCURVE",
"63 91 OFFCURVE",
"56 90 CURVE",
"39 86 OFFCURVE",
"29 76 OFFCURVE",
"27 59 CURVE SMOOTH",
"20 0 LINE",
"23 0 LINE",
"68 0 LINE",
"95 0 LINE",
"134 0 LINE",
"242 0 LINE",
"249 59 LINE SMOOTH",
"251 76 OFFCURVE",
"244 86 OFFCURVE",
"228 90 CURVE",
"226 90 OFFCURVE",
"224 91 OFFCURVE",
"222 91 CURVE",
"284 171 LINE SMOOTH",
"290 179 OFFCURVE",
"296 189 OFFCURVE",
"300 201 CURVE",
"355 90 LINE",
"339 86 OFFCURVE",
"330 76 OFFCURVE",
"328 59 CURVE SMOOTH",
"320 0 LINE",
"420 0 LINE",
"467 0 LINE",
"495 0 LINE",
"539 0 LINE",
"543 0 LINE",
"550 59 LINE SMOOTH",
"552 76 OFFCURVE",
"545 86 OFFCURVE",
"529 90 CURVE"
);
}
);
width = 615;
}
);
leftKerningGroup = x;
note = x;
rightKerningGroup = k;
unicode = 0078;
},
{
glyphname = y;
lastChange = "2017-01-26 15:47:16 +0000";
layers = (
{
anchors = (
{
name = bottom;
position = "{315, 0}";
},
{
name = top;
position = "{315, 513}";
}
);
layerId = "A0CD44AA-8F44-4864-B482-F84B7650FD25";
paths = (
{
closed = 1;
nodes = (
"581 513 LINE",
"581 513 LINE",
"482 513 LINE",
"482 513 LINE",
"361 513 LINE",
"354 454 LINE SMOOTH",
"352 437 OFFCURVE",
"359 427 OFFCURVE",
"375 423 CURVE",
"381 422 OFFCURVE",
"383 422 OFFCURVE",
"408 417 CURVE",
"309 224 LINE SMOOTH",
"304 215 OFFCURVE",
"300 206 OFFCURVE",
"296 197 CURVE SMOOTH",
"292 188 OFFCURVE",
"287 179 OFFCURVE",
"283 169 CURVE",
"282 178 OFFCURVE",
"282 188 OFFCURVE",
"280 197 CURVE SMOOTH",
"278 206 OFFCURVE",
"277 215 OFFCURVE",
"274 224 CURVE",
"217 419 LINE",
"233 422 OFFCURVE",
"235 422 OFFCURVE",
"241 423 CURVE",
"258 427 OFFCURVE",
"268 437 OFFCURVE",
"270 454 CURVE SMOOTH",
"277 513 LINE",
"165 513 LINE",
"165 513 LINE",
"57 513 LINE",
"57 513 LINE",
"28 513 LINE",
"20 454 LINE SMOOTH",
"18 437 OFFCURVE",
"26 427 OFFCURVE",
"42 423 CURVE",
"50 422 OFFCURVE",
"47 421 OFFCURVE",
"88 414 CURVE",
"206 38 LINE",
"85 -167 LINE",
"177 -167 LINE SMOOTH",
"189 -167 OFFCURVE",
"198 -166 OFFCURVE",
"204 -161 CURVE",
"210 -157 OFFCURVE",
"216 -150 OFFCURVE",
"221 -141 CURVE SMOOTH",
"527 414 LINE",
"570 421 OFFCURVE",
"567 422 OFFCURVE",
"575 423 CURVE",
"592 427 OFFCURVE",
"602 437 OFFCURVE",
"604 454 CURVE SMOOTH",
"611 513 LINE"
);
}
);
width = 630;
}
);
leftKerningGroup = v;
note = y;
rightKerningGroup = v;
unicode = 0079;
},
{
glyphname = z;
lastChange = "2017-01-26 15:47:16 +0000";
layers = (
{
anchors = (
{
name = bottom;
position = "{253, 0}";
},
{
name = top;
position = "{253, 513}";
}
);
layerId = "A0CD44AA-8F44-4864-B482-F84B7650FD25";
paths = (
{
closed = 1;
nodes = (
"445 168 LINE",
"433 168 LINE",
"392 168 LINE SMOOTH",
"379 168 OFFCURVE",
"370 161 OFFCURVE",
"366 149 CURVE",
"365 144 OFFCURVE",
"362 132 OFFCURVE",
"354 95 CURVE",
"174 95 LINE",
"458 416 LINE SMOOTH",
"463 422 OFFCURVE",
"467 429 OFFCURVE",
"471 437 CURVE SMOOTH",
"475 445 OFFCURVE",
"478 453 OFFCURVE",
"479 462 CURVE SMOOTH",
"485 513 LINE",
"96 513 LINE",
"96 507 LINE",
"96 507 LINE",
"76 349 LINE",
"81 349 LINE",
"93 349 LINE",
"134 349 LINE SMOOTH",
"147 349 OFFCURVE",
"155 356 OFFCURVE",
"159 368 CURVE",
"160 372 OFFCURVE",
"164 384 OFFCURVE",
"172 418 CURVE",
"333 418 LINE",
"47 94 LINE",
"40 87 OFFCURVE",
"36 80 OFFCURVE",
"32 72 CURVE SMOOTH",
"28 64 OFFCURVE",
"26 58 OFFCURVE",
"25 52 CURVE",
"19 0 LINE",
"413 0 LINE",
"415 0 LINE",
"429 0 LINE",
"450 168 LINE"
);
}
);
width = 505;
}
);
leftKerningGroup = z;
note = z;
rightKerningGroup = uni01F2;
unicode = 007A;
},
{
glyphname = braceleft;
layers = (
{
layerId = "A0CD44AA-8F44-4864-B482-F84B7650FD25";
paths = (
{
closed = 1;
nodes = (
"69 189 OFFCURVE",
"66 174 OFFCURVE",
"62 158 CURVE SMOOTH",
"58 142 OFFCURVE",
"53 127 OFFCURVE",
"48 111 CURVE SMOOTH",
"43 95 OFFCURVE",
"39 80 OFFCURVE",
"35 64 CURVE SMOOTH",
"31 48 OFFCURVE",
"28 32 OFFCURVE",
"26 16 CURVE SMOOTH",
"23 -9 OFFCURVE",
"23 -33 OFFCURVE",
"28 -54 CURVE SMOOTH",
"33 -75 OFFCURVE",
"42 -92 OFFCURVE",
"55 -107 CURVE SMOOTH",
"68 -122 OFFCURVE",
"87 -134 OFFCURVE",
"109 -142 CURVE SMOOTH",
"131 -150 OFFCURVE",
"158 -154 OFFCURVE",
"189 -154 CURVE SMOOTH",
"215 -154 LINE",
"222 -100 LINE",
"223 -96 OFFCURVE",
"222 -91 OFFCURVE",
"221 -88 CURVE SMOOTH",
"220 -85 OFFCURVE",
"218 -82 OFFCURVE",
"215 -80 CURVE SMOOTH",
"212 -78 OFFCURVE",
"210 -77 OFFCURVE",
"207 -76 CURVE SMOOTH",
"204 -75 OFFCURVE",
"201 -74 OFFCURVE",
"199 -74 CURVE SMOOTH",
"194 -74 LINE SMOOTH",
"171 -74 OFFCURVE",
"154 -67 OFFCURVE",
"143 -52 CURVE SMOOTH",
"132 -37 OFFCURVE",
"129 -17 OFFCURVE",
"132 8 CURVE SMOOTH",
"134 26 OFFCURVE",
"138 44 OFFCURVE",
"142 61 CURVE SMOOTH",
"146 78 OFFCURVE",
"150 94 OFFCURVE",
"154 110 CURVE SMOOTH",
"158 126 OFFCURVE",
"162 142 OFFCURVE",
"166 157 CURVE SMOOTH",
"170 172 OFFCURVE",
"173 187 OFFCURVE",
"175 203 CURVE",
"177 215 OFFCURVE",
"176 228 OFFCURVE",
"174 239 CURVE SMOOTH",
"172 250 OFFCURVE",
"168 261 OFFCURVE",
"162 270 CURVE SMOOTH",
"156 279 OFFCURVE",
"150 287 OFFCURVE",
"141 294 CURVE SMOOTH",
"132 301 OFFCURVE",
"122 306 OFFCURVE",
"110 310 CURVE",
"122 313 OFFCURVE",
"135 318 OFFCURVE",
"145 325 CURVE SMOOTH",
"155 332 OFFCURVE",
"164 340 OFFCURVE",
"172 349 CURVE SMOOTH",
"180 358 OFFCURVE",
"186 369 OFFCURVE",
"191 380 CURVE SMOOTH",
"196 391 OFFCURVE",
"199 403 OFFCURVE",
"201 416 CURVE SMOOTH",
"203 432 OFFCURVE",
"204 448 OFFCURVE",
"204 463 CURVE SMOOTH",
"204 478 OFFCURVE",
"203 493 OFFCURVE",
"203 509 CURVE SMOOTH",
"203 558 LINE SMOOTH",
"203 575 OFFCURVE",
"204 593 OFFCURVE",
"206 611 CURVE SMOOTH",
"209 637 OFFCURVE",
"218 657 OFFCURVE",
"232 672 CURVE SMOOTH",
"246 687 OFFCURVE",
"266 694 OFFCURVE",
"289 694 CURVE SMOOTH",
"293 694 LINE SMOOTH",
"295 694 OFFCURVE",
"298 694 OFFCURVE",
"301 695 CURVE SMOOTH",
"304 696 OFFCURVE",
"307 698 OFFCURVE",
"310 700 CURVE SMOOTH",
"313 702 OFFCURVE",
"316 704 OFFCURVE",
"318 707 CURVE SMOOTH",
"320 710 OFFCURVE",
"322 715 OFFCURVE",
"323 719 CURVE",
"329 774 LINE",
"303 774 LINE SMOOTH",
"272 774 OFFCURVE",
"244 769 OFFCURVE",
"220 761 CURVE SMOOTH",
"196 753 OFFCURVE",
"175 742 OFFCURVE",
"158 727 CURVE SMOOTH",
"141 712 OFFCURVE",
"127 694 OFFCURVE",
"117 673 CURVE SMOOTH",
"107 652 OFFCURVE",
"101 629 OFFCURVE",
"98 604 CURVE SMOOTH",
"96 588 OFFCURVE",
"95 571 OFFCURVE",
"95 555 CURVE SMOOTH",
"95 539 OFFCURVE",
"96 524 OFFCURVE",
"97 508 CURVE SMOOTH",
"98 492 OFFCURVE",
"99 477 OFFCURVE",
"99 461 CURVE SMOOTH",
"99 445 OFFCURVE",
"98 431 OFFCURVE",
"96 415 CURVE SMOOTH",
"94 395 OFFCURVE",
"87 378 OFFCURVE",
"76 365 CURVE SMOOTH",
"65 352 OFFCURVE",
"49 346 OFFCURVE",
"28 346 CURVE",
"19 274 LINE",
"40 274 OFFCURVE",
"54 268 OFFCURVE",
"62 255 CURVE SMOOTH",
"70 242 OFFCURVE",
"73 225 OFFCURVE",
"71 205 CURVE SMOOTH"
);
}
);
width = 348;
}
);
note = braceleft;
unicode = 007B;
},
{
glyphname = bar;
layers = (
{
layerId = "A0CD44AA-8F44-4864-B482-F84B7650FD25";
paths = (
{
closed = 1;
nodes = (
"80 774 LINE",
"80 -168 LINE",
"176 -168 LINE",
"176 774 LINE"
);
}
);
width = 248;
}
);
note = bar;
unicode = 007C;
},
{
glyphname = braceright;
layers = (
{
layerId = "A0CD44AA-8F44-4864-B482-F84B7650FD25";
paths = (
{
closed = 1;
nodes = (
"253 225 OFFCURVE",
"260 242 OFFCURVE",
"271 255 CURVE SMOOTH",
"282 268 OFFCURVE",
"299 274 OFFCURVE",
"320 274 CURVE",
"328 346 LINE",
"307 346 OFFCURVE",
"293 352 OFFCURVE",
"285 365 CURVE SMOOTH",
"277 378 OFFCURVE",
"275 394 OFFCURVE",
"277 414 CURVE SMOOTH",
"279 430 OFFCURVE",
"282 445 OFFCURVE",
"286 461 CURVE SMOOTH",
"290 476 OFFCURVE",
"294 492 OFFCURVE",
"299 508 CURVE SMOOTH",
"304 524 OFFCURVE",
"308 539 OFFCURVE",
"312 555 CURVE SMOOTH",
"316 571 OFFCURVE",
"320 588 OFFCURVE",
"322 604 CURVE SMOOTH",
"325 629 OFFCURVE",
"324 652 OFFCURVE",
"319 673 CURVE SMOOTH",
"314 694 OFFCURVE",
"305 712 OFFCURVE",
"292 727 CURVE SMOOTH",
"279 742 OFFCURVE",
"261 753 OFFCURVE",
"239 761 CURVE SMOOTH",
"217 769 OFFCURVE",
"189 774 OFFCURVE",
"158 774 CURVE SMOOTH",
"132 774 LINE",
"125 719 LINE",
"124 715 OFFCURVE",
"125 710 OFFCURVE",
"126 707 CURVE SMOOTH",
"127 704 OFFCURVE",
"130 702 OFFCURVE",
"133 700 CURVE SMOOTH",
"136 698 OFFCURVE",
"138 696 OFFCURVE",
"141 695 CURVE SMOOTH",
"144 694 OFFCURVE",
"147 694 OFFCURVE",
"149 694 CURVE SMOOTH",
"153 694 LINE SMOOTH",
"176 694 OFFCURVE",
"193 687 OFFCURVE",
"204 672 CURVE SMOOTH",
"215 657 OFFCURVE",
"218 637 OFFCURVE",
"215 611 CURVE SMOOTH",
"213 593 OFFCURVE",
"209 575 OFFCURVE",
"205 558 CURVE SMOOTH",
"201 541 OFFCURVE",
"197 525 OFFCURVE",
"193 509 CURVE SMOOTH",
"189 493 OFFCURVE",
"185 477 OFFCURVE",
"181 462 CURVE SMOOTH",
"177 447 OFFCURVE",
"174 432 OFFCURVE",
"172 416 CURVE SMOOTH",
"170 403 OFFCURVE",
"171 391 OFFCURVE",
"173 380 CURVE SMOOTH",
"175 369 OFFCURVE",
"179 358 OFFCURVE",
"185 349 CURVE SMOOTH",
"191 340 OFFCURVE",
"197 332 OFFCURVE",
"206 325 CURVE SMOOTH",
"215 318 OFFCURVE",
"225 313 OFFCURVE",
"237 310 CURVE",
"225 306 OFFCURVE",
"213 301 OFFCURVE",
"202 294 CURVE SMOOTH",
"191 287 OFFCURVE",
"183 279 OFFCURVE",
"175 270 CURVE SMOOTH",
"167 261 OFFCURVE",
"161 249 OFFCURVE",
"156 238 CURVE SMOOTH",
"151 227 OFFCURVE",
"148 215 OFFCURVE",
"146 203 CURVE",
"144 187 OFFCURVE",
"144 171 OFFCURVE",
"144 156 CURVE SMOOTH",
"144 110 LINE",
"144 61 LINE SMOOTH",
"144 44 OFFCURVE",
"143 26 OFFCURVE",
"141 8 CURVE SMOOTH",
"138 -17 OFFCURVE",
"129 -37 OFFCURVE",
"115 -52 CURVE SMOOTH",
"101 -67 OFFCURVE",
"82 -74 OFFCURVE",
"59 -74 CURVE SMOOTH",
"54 -74 LINE SMOOTH",
"52 -74 OFFCURVE",
"49 -75 OFFCURVE",
"46 -76 CURVE SMOOTH",
"43 -77 OFFCURVE",
"40 -78 OFFCURVE",
"37 -80 CURVE SMOOTH",
"34 -82 OFFCURVE",
"31 -85 OFFCURVE",
"29 -88 CURVE SMOOTH",
"27 -91 OFFCURVE",
"26 -96 OFFCURVE",
"25 -100 CURVE",
"18 -154 LINE",
"44 -154 LINE SMOOTH",
"75 -154 OFFCURVE",
"104 -150 OFFCURVE",
"128 -142 CURVE SMOOTH",
"152 -134 OFFCURVE",
"172 -122 OFFCURVE",
"189 -107 CURVE SMOOTH",
"206 -92 OFFCURVE",
"220 -75 OFFCURVE",
"230 -54 CURVE SMOOTH",
"240 -33 OFFCURVE",
"246 -10 OFFCURVE",
"249 15 CURVE SMOOTH",
"251 31 OFFCURVE",
"252 48 OFFCURVE",
"252 64 CURVE SMOOTH",
"252 80 OFFCURVE",
"251 95 OFFCURVE",
"250 111 CURVE SMOOTH",
"249 127 OFFCURVE",
"249 142 OFFCURVE",
"249 158 CURVE SMOOTH",
"249 174 OFFCURVE",
"249 189 OFFCURVE",
"251 205 CURVE SMOOTH"
);
}
);
width = 348;
}
);
note = braceright;
unicode = 007D;
},
{
glyphname = asciitilde;
lastChange = "2017-01-26 15:47:16 +0000";
layers = (
{
layerId = "A0CD44AA-8F44-4864-B482-F84B7650FD25";
paths = (
{
closed = 1;
nodes = (
"355 324 OFFCURVE",
"344 326 OFFCURVE",
"332 331 CURVE SMOOTH",
"320 336 OFFCURVE",
"307 340 OFFCURVE",
"293 346 CURVE",
"279 351 OFFCURVE",
"265 357 OFFCURVE",
"249 362 CURVE SMOOTH",
"233 367 OFFCURVE",
"217 369 OFFCURVE",
"199 369 CURVE SMOOTH",
"175 369 OFFCURVE",
"153 365 OFFCURVE",
"133 357 CURVE SMOOTH",
"113 349 OFFCURVE",
"97 337 OFFCURVE",
"82 322 CURVE SMOOTH",
"67 307 OFFCURVE",
"55 290 OFFCURVE",
"46 269 CURVE SMOOTH",
"37 248 OFFCURVE",
"30 225 OFFCURVE",
"27 199 CURVE",
"126 199 LINE",
"129 221 OFFCURVE",
"136 238 OFFCURVE",
"148 250 CURVE SMOOTH",
"160 262 OFFCURVE",
"175 268 OFFCURVE",
"194 268 CURVE SMOOTH",
"205 268 OFFCURVE",
"216 266 OFFCURVE",
"228 261 CURVE SMOOTH",
"240 256 OFFCURVE",
"253 251 OFFCURVE",
"267 245 CURVE SMOOTH",
"281 239 OFFCURVE",
"295 235 OFFCURVE",
"311 230 CURVE SMOOTH",
"327 225 OFFCURVE",
"343 223 OFFCURVE",
"361 223 CURVE SMOOTH",
"385 223 OFFCURVE",
"406 227 OFFCURVE",
"426 235 CURVE SMOOTH",
"446 243 OFFCURVE",
"463 254 OFFCURVE",
"478 269 CURVE SMOOTH",
"493 284 OFFCURVE",
"505 302 OFFCURVE",
"514 323 CURVE SMOOTH",
"523 344 OFFCURVE",
"530 367 OFFCURVE",
"533 393 CURVE",
"433 393 LINE",
"430 371 OFFCURVE",
"424 354 OFFCURVE",
"412 342 CURVE SMOOTH",
"400 330 OFFCURVE",
"385 324 OFFCURVE",
"366 324 CURVE SMOOTH"
);
}
);
width = 560;
}
);
leftKerningGroup = emdash;
note = asciitilde;
rightKerningGroup = emdash;
unicode = 007E;
},
{
glyphname = exclamdown;
layers = (
{
layerId = "A0CD44AA-8F44-4864-B482-F84B7650FD25";
paths = (
{
closed = 1;
nodes = (
"22 -168 LINE",
"138 -168 LINE",
"171 99 LINE SMOOTH",
"175 129 OFFCURVE",
"177 159 OFFCURVE",
"178 188 CURVE SMOOTH",
"179 217 OFFCURVE",
"178 248 OFFCURVE",
"177 281 CURVE",
"94 281 LINE",
"85 248 OFFCURVE",
"77 217 OFFCURVE",
"70 188 CURVE SMOOTH",
"63 159 OFFCURVE",
"59 129 OFFCURVE",
"55 99 CURVE SMOOTH"
);
},
{
closed = 1;
nodes = (
"77 435 OFFCURVE",
"77 425 OFFCURVE",
"80 416 CURVE SMOOTH",
"83 407 OFFCURVE",
"87 400 OFFCURVE",
"93 393 CURVE SMOOTH",
"99 386 OFFCURVE",
"106 381 OFFCURVE",
"115 377 CURVE SMOOTH",
"124 373 OFFCURVE",
"134 371 OFFCURVE",
"145 371 CURVE SMOOTH",
"156 371 OFFCURVE",
"165 373 OFFCURVE",
"175 377 CURVE SMOOTH",
"185 381 OFFCURVE",
"193 386 OFFCURVE",
"201 393 CURVE SMOOTH",
"209 400 OFFCURVE",
"215 407 OFFCURVE",
"220 416 CURVE SMOOTH",
"225 425 OFFCURVE",
"229 435 OFFCURVE",
"230 446 CURVE SMOOTH",
"231 457 OFFCURVE",
"230 467 OFFCURVE",
"227 476 CURVE SMOOTH",
"224 485 OFFCURVE",
"220 493 OFFCURVE",
"214 500 CURVE SMOOTH",
"208 507 OFFCURVE",
"201 511 OFFCURVE",
"192 515 CURVE SMOOTH",
"183 519 OFFCURVE",
"174 521 OFFCURVE",
"163 521 CURVE SMOOTH",
"152 521 OFFCURVE",
"142 519 OFFCURVE",
"132 515 CURVE SMOOTH",
"122 511 OFFCURVE",
"113 506 OFFCURVE",
"106 499 CURVE SMOOTH",
"99 492 OFFCURVE",
"93 485 OFFCURVE",
"88 476 CURVE SMOOTH",
"83 467 OFFCURVE",
"79 457 OFFCURVE",
"78 446 CURVE SMOOTH"
);
}
);
width = 254;
}
);
note = exclamdown;
unicode = 00A1;
},
{
glyphname = cent;
lastChange = "2017-01-26 15:47:16 +0000";
layers = (
{
layerId = "A0CD44AA-8F44-4864-B482-F84B7650FD25";
paths = (
{
closed = 1;
nodes = (
"404 120 LINE",
"400 128 OFFCURVE",
"393 132 OFFCURVE",
"383 132 CURVE SMOOTH",
"375 132 OFFCURVE",
"369 130 OFFCURVE",
"362 125 CURVE SMOOTH",
"355 120 OFFCURVE",
"347 115 OFFCURVE",
"338 109 CURVE SMOOTH",
"329 103 OFFCURVE",
"318 98 OFFCURVE",
"305 93 CURVE SMOOTH",
"292 88 OFFCURVE",
"277 86 OFFCURVE",
"257 86 CURVE SMOOTH",
"253 86 LINE",
"323 422 LINE",
"324 425 LINE",
"334 424 OFFCURVE",
"347 421 OFFCURVE",
"365 416 CURVE",
"364 376 OFFCURVE",
"364 353 OFFCURVE",
"364 344 CURVE",
"365 332 OFFCURVE",
"372 325 OFFCURVE",
"385 325 CURVE SMOOTH",
"427 325 LINE",
"439 325 LINE",
"443 325 LINE",
"462 483 LINE",
"410 503 OFFCURVE",
"370 515 OFFCURVE",
"343 518 CURVE",
"351 555 LINE",
"351 556 LINE",
"367 628 LINE",
"321 628 LINE SMOOTH",
"311 628 OFFCURVE",
"303 626 OFFCURVE",
"296 619 CURVE SMOOTH",
"289 612 OFFCURVE",
"286 605 OFFCURVE",
"284 597 CURVE SMOOTH",
"277 565 LINE",
"267 518 LINE",
"241 515 OFFCURVE",
"218 509 OFFCURVE",
"196 500 CURVE SMOOTH",
"163 487 OFFCURVE",
"135 469 OFFCURVE",
"111 445 CURVE SMOOTH",
"87 421 OFFCURVE",
"68 393 OFFCURVE",
"53 361 CURVE SMOOTH",
"38 329 OFFCURVE",
"29 295 OFFCURVE",
"24 257 CURVE SMOOTH",
"19 215 OFFCURVE",
"20 177 OFFCURVE",
"28 144 CURVE SMOOTH",
"36 111 OFFCURVE",
"50 84 OFFCURVE",
"68 61 CURVE SMOOTH",
"86 38 OFFCURVE",
"108 21 OFFCURVE",
"135 9 CURVE",
"143 6 OFFCURVE",
"150 3 OFFCURVE",
"159 0 CURVE",
"149 -46 LINE",
"136 -112 LINE",
"181 -112 LINE SMOOTH",
"191 -112 OFFCURVE",
"199 -108 OFFCURVE",
"206 -102 CURVE",
"213 -95 OFFCURVE",
"217 -88 OFFCURVE",
"219 -80 CURVE SMOOTH",
"222 -66 LINE",
"233 -8 LINE",
"248 -8 OFFCURVE",
"262 -6 OFFCURVE",
"277 -4 CURVE SMOOTH",
"296 -1 OFFCURVE",
"314 3 OFFCURVE",
"332 9 CURVE",
"350 16 OFFCURVE",
"368 24 OFFCURVE",
"385 35 CURVE SMOOTH",
"402 46 OFFCURVE",
"418 60 OFFCURVE",
"434 76 CURVE"
);
},
{
closed = 1;
nodes = (
"147 205 OFFCURVE",
"148 229 OFFCURVE",
"151 256 CURVE SMOOTH",
"154 282 OFFCURVE",
"159 306 OFFCURVE",
"167 327 CURVE SMOOTH",
"175 348 OFFCURVE",
"185 365 OFFCURVE",
"198 380 CURVE SMOOTH",
"211 395 OFFCURVE",
"226 406 OFFCURVE",
"243 414 CURVE",
"243 414 OFFCURVE",
"243 415 OFFCURVE",
"244 415 CURVE SMOOTH",
"246 415 LINE",
"210 246 LINE",
"183 113 LINE",
"178 118 OFFCURVE",
"173 124 OFFCURVE",
"169 130 CURVE",
"160 145 OFFCURVE",
"153 163 OFFCURVE",
"150 184 CURVE SMOOTH"
);
}
);
width = 483;
}
);
leftKerningGroup = c;
note = cent;
unicode = 00A2;
},
{
glyphname = sterling;
layers = (
{
layerId = "A0CD44AA-8F44-4864-B482-F84B7650FD25";
paths = (
{
closed = 1;
nodes = (
"47 300 LINE",
"143 300 LINE",
"127 170 LINE SMOOTH",
"125 156 OFFCURVE",
"121 144 OFFCURVE",
"115 134 CURVE SMOOTH",
"109 124 OFFCURVE",
"102 115 OFFCURVE",
"93 107 CURVE SMOOTH",
"84 99 OFFCURVE",
"75 94 OFFCURVE",
"64 89 CURVE SMOOTH",
"53 84 OFFCURVE",
"42 81 OFFCURVE",
"30 78 CURVE",
"20 0 LINE",
"500 0 LINE SMOOTH",
"508 0 OFFCURVE",
"515 2 OFFCURVE",
"522 5 CURVE SMOOTH",
"529 8 OFFCURVE",
"536 12 OFFCURVE",
"541 17 CURVE SMOOTH",
"546 22 OFFCURVE",
"550 28 OFFCURVE",
"553 34 CURVE SMOOTH",
"556 40 OFFCURVE",
"559 47 OFFCURVE",
"560 53 CURVE",
"566 105 LINE",
"273 105 LINE SMOOTH",
"249 105 OFFCURVE",
"223 102 OFFCURVE",
"198 96 CURVE",
"214 111 OFFCURVE",
"228 127 OFFCURVE",
"238 144 CURVE SMOOTH",
"248 161 OFFCURVE",
"254 181 OFFCURVE",
"257 203 CURVE SMOOTH",
"269 300 LINE",
"439 300 LINE SMOOTH",
"449 300 OFFCURVE",
"458 303 OFFCURVE",
"465 310 CURVE SMOOTH",
"472 317 OFFCURVE",
"477 324 OFFCURVE",
"478 332 CURVE SMOOTH",
"484 381 LINE",
"279 381 LINE",
"294 500 LINE SMOOTH",
"299 540 OFFCURVE",
"311 571 OFFCURVE",
"331 593 CURVE SMOOTH",
"351 615 OFFCURVE",
"378 627 OFFCURVE",
"412 627 CURVE SMOOTH",
"423 627 OFFCURVE",
"433 626 OFFCURVE",
"441 624 CURVE SMOOTH",
"449 622 OFFCURVE",
"456 617 OFFCURVE",
"463 613 CURVE SMOOTH",
"470 609 OFFCURVE",
"476 604 OFFCURVE",
"481 598 CURVE SMOOTH",
"486 592 OFFCURVE",
"492 584 OFFCURVE",
"497 577 CURVE SMOOTH",
"505 566 OFFCURVE",
"516 561 OFFCURVE",
"528 561 CURVE SMOOTH",
"536 561 OFFCURVE",
"547 564 OFFCURVE",
"558 569 CURVE",
"611 600 LINE",
"605 618 OFFCURVE",
"596 636 OFFCURVE",
"586 652 CURVE SMOOTH",
"576 668 OFFCURVE",
"563 681 OFFCURVE",
"548 693 CURVE SMOOTH",
"533 705 OFFCURVE",
"515 714 OFFCURVE",
"495 721 CURVE SMOOTH",
"475 728 OFFCURVE",
"452 731 OFFCURVE",
"425 731 CURVE SMOOTH",
"386 731 OFFCURVE",
"351 724 OFFCURVE",
"321 712 CURVE SMOOTH",
"291 700 OFFCURVE",
"266 683 OFFCURVE",
"244 662 CURVE SMOOTH",
"222 641 OFFCURVE",
"205 616 OFFCURVE",
"192 588 CURVE SMOOTH",
"179 560 OFFCURVE",
"171 530 OFFCURVE",
"167 499 CURVE SMOOTH",
"153 381 LINE",
"99 381 LINE SMOOTH",
"85 381 OFFCURVE",
"74 377 OFFCURVE",
"66 369 CURVE SMOOTH",
"58 361 OFFCURVE",
"53 351 OFFCURVE",
"52 340 CURVE SMOOTH"
);
}
);
width = 632;
}
);
note = sterling;
unicode = 00A3;
},
{
glyphname = currency;
layers = (
{
layerId = "A0CD44AA-8F44-4864-B482-F84B7650FD25";
paths = (
{
closed = 1;
nodes = (
"89 318 OFFCURVE",
"89 301 OFFCURVE",
"92 285 CURVE SMOOTH",
"95 269 OFFCURVE",
"100 253 OFFCURVE",
"107 239 CURVE",
"22 164 LINE",
"76 102 LINE",
"162 178 LINE",
"175 170 OFFCURVE",
"189 163 OFFCURVE",
"204 159 CURVE SMOOTH",
"219 155 OFFCURVE",
"236 152 OFFCURVE",
"253 152 CURVE SMOOTH",
"271 152 OFFCURVE",
"288 155 OFFCURVE",
"305 160 CURVE SMOOTH",
"322 165 OFFCURVE",
"338 171 OFFCURVE",
"353 180 CURVE",
"420 104 LINE",
"490 166 LINE",
"423 242 LINE",
"433 256 OFFCURVE",
"441 270 OFFCURVE",
"447 286 CURVE SMOOTH",
"453 302 OFFCURVE",
"458 318 OFFCURVE",
"460 336 CURVE SMOOTH",
"462 354 OFFCURVE",
"462 372 OFFCURVE",
"459 388 CURVE SMOOTH",
"456 404 OFFCURVE",
"452 420 OFFCURVE",
"445 434 CURVE",
"529 510 LINE",
"475 571 LINE",
"390 495 LINE",
"377 503 OFFCURVE",
"363 510 OFFCURVE",
"348 514 CURVE SMOOTH",
"333 518 OFFCURVE",
"315 521 OFFCURVE",
"298 521 CURVE SMOOTH",
"280 521 OFFCURVE",
"263 519 OFFCURVE",
"246 514 CURVE SMOOTH",
"229 509 OFFCURVE",
"212 503 OFFCURVE",
"197 494 CURVE",
"132 568 LINE",
"62 508 LINE",
"129 432 LINE",
"119 418 OFFCURVE",
"110 403 OFFCURVE",
"104 387 CURVE SMOOTH",
"98 371 OFFCURVE",
"93 354 OFFCURVE",
"91 336 CURVE SMOOTH"
);
},
{
closed = 1;
nodes = (
"184 349 OFFCURVE",
"188 362 OFFCURVE",
"194 374 CURVE SMOOTH",
"200 386 OFFCURVE",
"208 396 OFFCURVE",
"218 404 CURVE SMOOTH",
"228 412 OFFCURVE",
"238 419 OFFCURVE",
"250 424 CURVE SMOOTH",
"262 429 OFFCURVE",
"274 432 OFFCURVE",
"287 432 CURVE SMOOTH",
"300 432 OFFCURVE",
"312 429 OFFCURVE",
"323 424 CURVE SMOOTH",
"334 419 OFFCURVE",
"344 412 OFFCURVE",
"351 404 CURVE SMOOTH",
"358 396 OFFCURVE",
"363 386 OFFCURVE",
"367 374 CURVE SMOOTH",
"371 362 OFFCURVE",
"372 349 OFFCURVE",
"370 336 CURVE SMOOTH",
"368 323 OFFCURVE",
"364 312 OFFCURVE",
"358 300 CURVE SMOOTH",
"352 288 OFFCURVE",
"344 278 OFFCURVE",
"334 270 CURVE SMOOTH",
"324 262 OFFCURVE",
"314 255 OFFCURVE",
"302 250 CURVE SMOOTH",
"290 245 OFFCURVE",
"277 242 OFFCURVE",
"264 242 CURVE SMOOTH",
"251 242 OFFCURVE",
"240 245 OFFCURVE",
"229 250 CURVE SMOOTH",
"218 255 OFFCURVE",
"208 262 OFFCURVE",
"201 270 CURVE SMOOTH",
"194 278 OFFCURVE",
"188 288 OFFCURVE",
"185 300 CURVE SMOOTH",
"182 312 OFFCURVE",
"180 323 OFFCURVE",
"182 336 CURVE SMOOTH"
);
}
);
width = 552;
}
);
note = currency;
unicode = 00A4;
},
{
glyphname = yen;
layers = (
{
layerId = "A0CD44AA-8F44-4864-B482-F84B7650FD25";
paths = (
{
closed = 1;
nodes = (
"43 316 LINE",
"34 248 LINE",
"194 248 LINE",
"188 200 LINE",
"28 200 LINE",
"20 132 LINE",
"180 132 LINE",
"164 0 LINE",
"287 0 LINE",
"304 132 LINE",
"463 132 LINE",
"471 200 LINE",
"312 200 LINE",
"318 248 LINE",
"477 248 LINE",
"486 316 LINE",
"348 316 LINE",
"597 723 LINE",
"494 723 LINE SMOOTH",
"483 723 OFFCURVE",
"472 720 OFFCURVE",
"464 714 CURVE SMOOTH",
"456 708 OFFCURVE",
"450 701 OFFCURVE",
"445 693 CURVE",
"307 449 LINE SMOOTH",
"299 434 OFFCURVE",
"291 421 OFFCURVE",
"286 408 CURVE SMOOTH",
"281 395 OFFCURVE",
"276 382 OFFCURVE",
"272 370 CURVE",
"271 382 OFFCURVE",
"268 395 OFFCURVE",
"266 408 CURVE SMOOTH",
"264 421 OFFCURVE",
"260 434 OFFCURVE",
"255 449 CURVE SMOOTH",
"176 693 LINE SMOOTH",
"173 702 OFFCURVE",
"169 709 OFFCURVE",
"162 715 CURVE SMOOTH",
"155 721 OFFCURVE",
"146 723 OFFCURVE",
"134 723 CURVE SMOOTH",
"32 723 LINE",
"181 316 LINE"
);
}
);
width = 617;
}
);
note = yen;
unicode = 00A5;
},
{
glyphname = brokenbar;
layers = (
{
layerId = "A0CD44AA-8F44-4864-B482-F84B7650FD25";
paths = (
{
closed = 1;
nodes = (
"135 774 LINE",
"85 369 LINE",
"181 369 LINE",
"231 774 LINE"
);
},
{
closed = 1;
nodes = (
"69 236 LINE",
"19 -168 LINE",
"115 -168 LINE",
"165 236 LINE"
);
}
);
width = 250;
}
);
note = brokenbar;
unicode = 00A6;
},
